<?xml version="1.0" encoding="UTF-8" standalone="no"?><svg xmlns="http://www.w3.org/2000/svg" xmlns:xlink="http://www.w3.org/1999/xlink" contentScriptType="application/ecmascript" contentStyleType="text/css" height="1088px" preserveAspectRatio="none" style="width:848px;height:1088px;" version="1.1" viewBox="0 0 848 1088" width="848px" zoomAndPan="magnify"><defs><filter height="300%" id="f1fwm71y5imsn6" width="300%" x="-1" y="-1"><feGaussianBlur result="blurOut" stdDeviation="2.0"/><feColorMatrix in="blurOut" result="blurOut2" type="matrix" values="0 0 0 0 0 0 0 0 0 0 0 0 0 0 0 0 0 0 .4 0"/><feOffset dx="4.0" dy="4.0" in="blurOut2" result="blurOut3"/><feBlend in="SourceGraphic" in2="blurOut3" mode="normal"/></filter></defs><g><!--MD5=[60a26ce4f459803086534c491c8cb487]
class VertexArray--><rect codeLine="2" fill="#FEFECE" filter="url(#f1fwm71y5imsn6)" height="60.8047" id="VertexArray" style="stroke:#A80036;stroke-width:1.5;" width="145" x="299" y="194.5"/><ellipse cx="332.45" cy="210.5" fill="#ADD1B2" rx="11" ry="11" style="stroke:#A80036;stroke-width:1.0;"/><path d="M335.4188,216.1406 Q334.8406,216.4375 334.2,216.5781 Q333.5594,216.7344 332.8563,216.7344 Q330.3563,216.7344 329.0281,215.0938 Q327.7156,213.4375 327.7156,210.3125 Q327.7156,207.1875 329.0281,205.5313 Q330.3563,203.875 332.8563,203.875 Q333.5594,203.875 334.2,204.0313 Q334.8563,204.1875 335.4188,204.4844 L335.4188,207.2031 Q334.7938,206.625 334.2,206.3594 Q333.6063,206.0781 332.9813,206.0781 Q331.6375,206.0781 330.95,207.1563 Q330.2625,208.2188 330.2625,210.3125 Q330.2625,212.4063 330.95,213.4844 Q331.6375,214.5469 332.9813,214.5469 Q333.6063,214.5469 334.2,214.2813 Q334.7938,214 335.4188,213.4219 L335.4188,216.1406 Z " fill="#000000"/><text fill="#000000" font-family="sans-serif" font-size="12" lengthAdjust="spacing" textLength="72" x="350.55" y="214.6543">VertexArray</text><line style="stroke:#A80036;stroke-width:1.5;" x1="300" x2="443" y1="226.5" y2="226.5"/><text fill="#000000" font-family="sans-serif" font-size="11" lengthAdjust="spacing" textLength="133" x="305" y="240.7104">element_buffer : Buffer</text><line style="stroke:#A80036;stroke-width:1.5;" x1="300" x2="443" y1="247.3047" y2="247.3047"/><!--MD5=[50952b335fa3bd16cefe5adf9103827b]
class VertexBufferBinding--><rect codeLine="6" fill="#FEFECE" filter="url(#f1fwm71y5imsn6)" height="112.0234" id="VertexBufferBinding" style="stroke:#A80036;stroke-width:1.5;" width="155" x="294" y="636"/><ellipse cx="309" cy="652" fill="#ADD1B2" rx="11" ry="11" style="stroke:#A80036;stroke-width:1.0;"/><path d="M311.9688,657.6406 Q311.3906,657.9375 310.75,658.0781 Q310.1094,658.2344 309.4063,658.2344 Q306.9063,658.2344 305.5781,656.5938 Q304.2656,654.9375 304.2656,651.8125 Q304.2656,648.6875 305.5781,647.0313 Q306.9063,645.375 309.4063,645.375 Q310.1094,645.375 310.75,645.5313 Q311.4063,645.6875 311.9688,645.9844 L311.9688,648.7031 Q311.3438,648.125 310.75,647.8594 Q310.1563,647.5781 309.5313,647.5781 Q308.1875,647.5781 307.5,648.6563 Q306.8125,649.7188 306.8125,651.8125 Q306.8125,653.9063 307.5,654.9844 Q308.1875,656.0469 309.5313,656.0469 Q310.1563,656.0469 310.75,655.7813 Q311.3438,655.5 311.9688,654.9219 L311.9688,657.6406 Z " fill="#000000"/><text fill="#000000" font-family="sans-serif" font-size="12" lengthAdjust="spacing" textLength="123" x="323" y="656.1543">VertexBufferBinding</text><line style="stroke:#A80036;stroke-width:1.5;" x1="295" x2="448" y1="668" y2="668"/><text fill="#000000" font-family="sans-serif" font-size="11" lengthAdjust="spacing" textLength="93" x="300" y="682.2104">bindingindex: int</text><line style="stroke:#A80036;stroke-width:1.0;" x1="295" x2="448" y1="688.8047" y2="688.8047"/><text fill="#000000" font-family="sans-serif" font-size="11" lengthAdjust="spacing" textLength="77" x="300" y="703.0151">buffer: Buffer</text><text fill="#000000" font-family="sans-serif" font-size="11" lengthAdjust="spacing" textLength="55" x="300" y="715.8198">offset: int</text><text fill="#000000" font-family="sans-serif" font-size="11" lengthAdjust="spacing" textLength="55" x="300" y="728.6245">stride: int</text><text fill="#000000" font-family="sans-serif" font-size="11" lengthAdjust="spacing" textLength="60" x="300" y="741.4292">divisor: int</text><!--MD5=[76e7e293c2a385281ce113ae04ee64e5]
class VertexArrayAttrib--><rect codeLine="15" fill="#FEFECE" filter="url(#f1fwm71y5imsn6)" height="137.6328" id="VertexArrayAttrib" style="stroke:#A80036;stroke-width:1.5;" width="138" x="75.5" y="382"/><ellipse cx="90.5" cy="398" fill="#ADD1B2" rx="11" ry="11" style="stroke:#A80036;stroke-width:1.0;"/><path d="M93.4688,403.6406 Q92.8906,403.9375 92.25,404.0781 Q91.6094,404.2344 90.9063,404.2344 Q88.4063,404.2344 87.0781,402.5938 Q85.7656,400.9375 85.7656,397.8125 Q85.7656,394.6875 87.0781,393.0313 Q88.4063,391.375 90.9063,391.375 Q91.6094,391.375 92.25,391.5313 Q92.9063,391.6875 93.4688,391.9844 L93.4688,394.7031 Q92.8438,394.125 92.25,393.8594 Q91.6563,393.5781 91.0313,393.5781 Q89.6875,393.5781 89,394.6563 Q88.3125,395.7188 88.3125,397.8125 Q88.3125,399.9063 89,400.9844 Q89.6875,402.0469 91.0313,402.0469 Q91.6563,402.0469 92.25,401.7813 Q92.8438,401.5 93.4688,400.9219 L93.4688,403.6406 Z " fill="#000000"/><text fill="#000000" font-family="sans-serif" font-size="12" lengthAdjust="spacing" textLength="106" x="104.5" y="402.1543">VertexArrayAttrib</text><line style="stroke:#A80036;stroke-width:1.5;" x1="76.5" x2="212.5" y1="414" y2="414"/><text fill="#000000" font-family="sans-serif" font-size="11" lengthAdjust="spacing" textLength="82" x="81.5" y="428.2104">attribindex: int</text><line style="stroke:#A80036;stroke-width:1.0;" x1="76.5" x2="212.5" y1="434.8047" y2="434.8047"/><text fill="#000000" font-family="sans-serif" font-size="11" lengthAdjust="spacing" textLength="93" x="81.5" y="449.0151">bindingindex: int</text><text fill="#000000" font-family="sans-serif" font-size="11" lengthAdjust="spacing" textLength="87" x="81.5" y="461.8198">type: data_type</text><text fill="#000000" font-family="sans-serif" font-size="11" lengthAdjust="spacing" textLength="125" x="81.5" y="474.6245">values_per_vertex: int</text><text fill="#000000" font-family="sans-serif" font-size="11" lengthAdjust="spacing" textLength="55" x="81.5" y="487.4292">offset: int</text><text fill="#000000" font-family="sans-serif" font-size="11" lengthAdjust="spacing" textLength="94" x="81.5" y="500.2339">normalized: bool</text><text fill="#000000" font-family="sans-serif" font-size="11" lengthAdjust="spacing" textLength="77" x="81.5" y="513.0386">enabled: bool</text><!--MD5=[601d8e45e32ecb18e76e4e3ca7427eb4]
class BufferTarget--><rect codeLine="27" fill="#FEFECE" filter="url(#f1fwm71y5imsn6)" height="227.2656" id="BufferTarget" style="stroke:#A80036;stroke-width:1.5;" width="126" x="708.5" y="847"/><ellipse cx="730.7" cy="863" fill="#EB937F" rx="11" ry="11" style="stroke:#A80036;stroke-width:1.0;"/><path d="M734.8094,869 L727.0906,869 L727.0906,856.6094 L734.8094,856.6094 L734.8094,858.7656 L729.5438,858.7656 L729.5438,861.4375 L734.3094,861.4375 L734.3094,863.5938 L729.5438,863.5938 L729.5438,866.8438 L734.8094,866.8438 L734.8094,869 Z " fill="#000000"/><text fill="#000000" font-family="sans-serif" font-size="12" lengthAdjust="spacing" textLength="78" x="746.3" y="867.1543">BufferTarget</text><line style="stroke:#A80036;stroke-width:1.5;" x1="709.5" x2="833.5" y1="879" y2="879"/><text fill="#000000" font-family="sans-serif" font-size="11" lengthAdjust="spacing" textLength="30" x="714.5" y="893.2104">array</text><text fill="#000000" font-family="sans-serif" font-size="11" lengthAdjust="spacing" textLength="82" x="714.5" y="906.0151">element_array</text><text fill="#000000" font-family="sans-serif" font-size="11" lengthAdjust="spacing" textLength="44" x="714.5" y="918.8198">uniform</text><text fill="#000000" font-family="sans-serif" font-size="11" lengthAdjust="spacing" textLength="90" x="714.5" y="931.6245">shared_storage</text><text fill="#000000" font-family="sans-serif" font-size="11" lengthAdjust="spacing" textLength="87" x="714.5" y="944.4292">atomic_counter</text><text fill="#000000" font-family="sans-serif" font-size="11" lengthAdjust="spacing" textLength="40" x="714.5" y="957.2339">texture</text><text fill="#000000" font-family="sans-serif" font-size="11" lengthAdjust="spacing" textLength="32" x="714.5" y="970.0386">query</text><text fill="#000000" font-family="sans-serif" font-size="11" lengthAdjust="spacing" textLength="114" x="714.5" y="982.8433">transform_feedback</text><text fill="#000000" font-family="sans-serif" font-size="11" lengthAdjust="spacing" textLength="76" x="714.5" y="995.6479">draw_indirect</text><text fill="#000000" font-family="sans-serif" font-size="11" lengthAdjust="spacing" textLength="96" x="714.5" y="1008.4526">dispatch_indirect</text><text fill="#000000" font-family="sans-serif" font-size="11" lengthAdjust="spacing" textLength="58" x="714.5" y="1021.2573">copy_read</text><text fill="#000000" font-family="sans-serif" font-size="11" lengthAdjust="spacing" textLength="60" x="714.5" y="1034.062">copy_write</text><text fill="#000000" font-family="sans-serif" font-size="11" lengthAdjust="spacing" textLength="58" x="714.5" y="1046.8667">pixel_pack</text><text fill="#000000" font-family="sans-serif" font-size="11" lengthAdjust="spacing" textLength="72" x="714.5" y="1059.6714">pixel_unpack</text><line style="stroke:#A80036;stroke-width:1.5;" x1="709.5" x2="833.5" y1="1066.2656" y2="1066.2656"/><!--MD5=[9e9737bed61a6b1d6b48b2052db5d4e5]
class Buffer--><rect codeLine="44" fill="#FEFECE" filter="url(#f1fwm71y5imsn6)" height="73.6094" id="Buffer" style="stroke:#A80036;stroke-width:1.5;" width="69" x="544" y="923.5"/><ellipse cx="559" cy="939.5" fill="#ADD1B2" rx="11" ry="11" style="stroke:#A80036;stroke-width:1.0;"/><path d="M561.9688,945.1406 Q561.3906,945.4375 560.75,945.5781 Q560.1094,945.7344 559.4063,945.7344 Q556.9063,945.7344 555.5781,944.0938 Q554.2656,942.4375 554.2656,939.3125 Q554.2656,936.1875 555.5781,934.5313 Q556.9063,932.875 559.4063,932.875 Q560.1094,932.875 560.75,933.0313 Q561.4063,933.1875 561.9688,933.4844 L561.9688,936.2031 Q561.3438,935.625 560.75,935.3594 Q560.1563,935.0781 559.5313,935.0781 Q558.1875,935.0781 557.5,936.1563 Q556.8125,937.2188 556.8125,939.3125 Q556.8125,941.4063 557.5,942.4844 Q558.1875,943.5469 559.5313,943.5469 Q560.1563,943.5469 560.75,943.2813 Q561.3438,943 561.9688,942.4219 L561.9688,945.1406 Z " fill="#000000"/><text fill="#000000" font-family="sans-serif" font-size="12" lengthAdjust="spacing" textLength="37" x="573" y="943.6543">Buffer</text><line style="stroke:#A80036;stroke-width:1.5;" x1="545" x2="612" y1="955.5" y2="955.5"/><text fill="#000000" font-family="sans-serif" font-size="11" lengthAdjust="spacing" textLength="22" x="550" y="969.7104">size</text><text fill="#000000" font-family="sans-serif" font-size="11" lengthAdjust="spacing" textLength="28" x="550" y="982.5151">flags</text><line style="stroke:#A80036;stroke-width:1.5;" x1="545" x2="612" y1="989.1094" y2="989.1094"/><!--MD5=[ccac03cbca3c6aa59b0a8e3e705b541f]
class BufferBinding--><rect codeLine="49" fill="#FEFECE" filter="url(#f1fwm71y5imsn6)" height="73.6094" id="BufferBinding" style="stroke:#A80036;stroke-width:1.5;" width="126" x="669.5" y="655"/><ellipse cx="689.45" cy="671" fill="#ADD1B2" rx="11" ry="11" style="stroke:#A80036;stroke-width:1.0;"/><path d="M692.4188,676.6406 Q691.8406,676.9375 691.2,677.0781 Q690.5594,677.2344 689.8563,677.2344 Q687.3563,677.2344 686.0281,675.5938 Q684.7156,673.9375 684.7156,670.8125 Q684.7156,667.6875 686.0281,666.0313 Q687.3563,664.375 689.8563,664.375 Q690.5594,664.375 691.2,664.5313 Q691.8563,664.6875 692.4188,664.9844 L692.4188,667.7031 Q691.7938,667.125 691.2,666.8594 Q690.6063,666.5781 689.9813,666.5781 Q688.6375,666.5781 687.95,667.6563 Q687.2625,668.7188 687.2625,670.8125 Q687.2625,672.9063 687.95,673.9844 Q688.6375,675.0469 689.9813,675.0469 Q690.6063,675.0469 691.2,674.7813 Q691.7938,674.5 692.4188,673.9219 L692.4188,676.6406 Z " fill="#000000"/><text fill="#000000" font-family="sans-serif" font-size="12" lengthAdjust="spacing" textLength="83" x="704.55" y="675.1543">BufferBinding</text><line style="stroke:#A80036;stroke-width:1.5;" x1="670.5" x2="794.5" y1="687" y2="687"/><text fill="#000000" font-family="sans-serif" font-size="11" lengthAdjust="spacing" textLength="77" x="675.5" y="701.2104">buffer: Buffer</text><text fill="#000000" font-family="sans-serif" font-size="11" lengthAdjust="spacing" textLength="114" x="675.5" y="714.0151">target: BufferTarget</text><line style="stroke:#A80036;stroke-width:1.5;" x1="670.5" x2="794.5" y1="720.6094" y2="720.6094"/><!--MD5=[175f95e045c1a44aed0b30df3abe0e5c]
class Program--><rect codeLine="54" fill="#FEFECE" filter="url(#f1fwm71y5imsn6)" height="60.8047" id="Program" style="stroke:#A80036;stroke-width:1.5;" width="116" x="28.5" y="7"/><ellipse cx="57.45" cy="23" fill="#ADD1B2" rx="11" ry="11" style="stroke:#A80036;stroke-width:1.0;"/><path d="M60.4188,28.6406 Q59.8406,28.9375 59.2,29.0781 Q58.5594,29.2344 57.8563,29.2344 Q55.3563,29.2344 54.0281,27.5938 Q52.7156,25.9375 52.7156,22.8125 Q52.7156,19.6875 54.0281,18.0313 Q55.3563,16.375 57.8563,16.375 Q58.5594,16.375 59.2,16.5313 Q59.8563,16.6875 60.4188,16.9844 L60.4188,19.7031 Q59.7938,19.125 59.2,18.8594 Q58.6063,18.5781 57.9813,18.5781 Q56.6375,18.5781 55.95,19.6563 Q55.2625,20.7188 55.2625,22.8125 Q55.2625,24.9063 55.95,25.9844 Q56.6375,27.0469 57.9813,27.0469 Q58.6063,27.0469 59.2,26.7813 Q59.7938,26.5 60.4188,25.9219 L60.4188,28.6406 Z " fill="#000000"/><text fill="#000000" font-family="sans-serif" font-size="12" lengthAdjust="spacing" textLength="53" x="74.55" y="27.1543">Program</text><line style="stroke:#A80036;stroke-width:1.5;" x1="29.5" x2="143.5" y1="39" y2="39"/><text fill="#000000" font-family="sans-serif" font-size="11" lengthAdjust="spacing" textLength="104" x="34.5" y="53.2104">shaders: Shader[]</text><line style="stroke:#A80036;stroke-width:1.5;" x1="29.5" x2="143.5" y1="59.8047" y2="59.8047"/><!--MD5=[8a27c2d851f93488fb907f4ea217acd0]
class ProgramVertexAttrib--><rect codeLine="58" fill="#FEFECE" filter="url(#f1fwm71y5imsn6)" height="86.4141" id="ProgramVertexAttrib" style="stroke:#A80036;stroke-width:1.5;" width="159" x="7" y="182"/><ellipse cx="22" cy="198" fill="#ADD1B2" rx="11" ry="11" style="stroke:#A80036;stroke-width:1.0;"/><path d="M24.9688,203.6406 Q24.3906,203.9375 23.75,204.0781 Q23.1094,204.2344 22.4063,204.2344 Q19.9063,204.2344 18.5781,202.5938 Q17.2656,200.9375 17.2656,197.8125 Q17.2656,194.6875 18.5781,193.0313 Q19.9063,191.375 22.4063,191.375 Q23.1094,191.375 23.75,191.5313 Q24.4063,191.6875 24.9688,191.9844 L24.9688,194.7031 Q24.3438,194.125 23.75,193.8594 Q23.1563,193.5781 22.5313,193.5781 Q21.1875,193.5781 20.5,194.6563 Q19.8125,195.7188 19.8125,197.8125 Q19.8125,199.9063 20.5,200.9844 Q21.1875,202.0469 22.5313,202.0469 Q23.1563,202.0469 23.75,201.7813 Q24.3438,201.5 24.9688,200.9219 L24.9688,203.6406 Z " fill="#000000"/><text fill="#000000" font-family="sans-serif" font-size="12" lengthAdjust="spacing" textLength="127" x="36" y="202.1543">ProgramVertexAttrib</text><line style="stroke:#A80036;stroke-width:1.5;" x1="8" x2="165" y1="214" y2="214"/><text fill="#000000" font-family="sans-serif" font-size="11" lengthAdjust="spacing" textLength="73" x="13" y="228.2104">name: string</text><text fill="#000000" font-family="sans-serif" font-size="11" lengthAdjust="spacing" textLength="87" x="13" y="241.0151">type: data_type</text><text fill="#000000" font-family="sans-serif" font-size="11" lengthAdjust="spacing" textLength="82" x="13" y="253.8198">attribindex: int</text><line style="stroke:#A80036;stroke-width:1.5;" x1="8" x2="165" y1="260.4141" y2="260.4141"/><!--MD5=[b1c0042be650e1c26fa5fffe264dc2ab]
reverse link VertexArray to VertexArrayAttrib--><path codeLine="64" d="M286.05,241.81 C228.17,254.46 159.12,274.02 141.5,298 C124.15,321.61 122.41,353.32 126.01,381.67 " fill="none" id="VertexArray-backto-VertexArrayAttrib" style="stroke:#A80036;stroke-width:1.0;"/><polygon fill="#A80036" points="298.97,239.06,292.27,236.3936,287.2318,241.5527,293.9318,244.2191,298.97,239.06" style="stroke:#A80036;stroke-width:1.0;"/><path d="M146.5,303 L146.5,343 L336.5,343 L336.5,313 L326.5,303 L146.5,303 " fill="#FBFB77" filter="url(#f1fwm71y5imsn6)" style="stroke:#A80036;stroke-width:1.0;"/><path d="M326.5,303 L326.5,313 L336.5,313 L326.5,303 " fill="#FBFB77" style="stroke:#A80036;stroke-width:1.0;"/><text fill="#000000" font-family="sans-serif" font-size="13" lengthAdjust="spacing" textLength="169" x="152.5" y="320.0669">glEnableVertexAttribArray,</text><text fill="#000000" font-family="sans-serif" font-size="13" lengthAdjust="spacing" textLength="134" x="152.5" y="335.1997">glVertexAttribFormat</text><!--MD5=[db8cc606db3696b54ff800594b86b334]
reverse link VertexArray to VertexBufferBinding--><path codeLine="67" d="M371.5,268.94 C371.5,353.65 371.5,542.16 371.5,635.89 " fill="none" id="VertexArray-backto-VertexBufferBinding" style="stroke:#A80036;stroke-width:1.0;"/><polygon fill="#A80036" points="371.5,255.8,367.5,261.8,371.5,267.8,375.5,261.8,371.5,255.8" style="stroke:#A80036;stroke-width:1.0;"/><path d="M376.5,436.5 L376.5,461.5 L516.5,461.5 L516.5,446.5 L506.5,436.5 L376.5,436.5 " fill="#FBFB77" filter="url(#f1fwm71y5imsn6)" style="stroke:#A80036;stroke-width:1.0;"/><path d="M506.5,436.5 L506.5,446.5 L516.5,446.5 L506.5,436.5 " fill="#FBFB77" style="stroke:#A80036;stroke-width:1.0;"/><text fill="#000000" font-family="sans-serif" font-size="13" lengthAdjust="spacing" textLength="119" x="382.5" y="453.5669">glBindVertexBuffer</text><!--MD5=[772fc9d70378575c05c69d4d77ad96ca]
link VertexArrayAttrib to VertexBufferBinding--><path codeLine="70" d="M144.57,520.04 C147.81,549.23 156.12,582.04 175.5,606 C203.74,640.92 249.11,661.82 289.09,674.15 " fill="none" id="VertexArrayAttrib-to-VertexBufferBinding" style="stroke:#A80036;stroke-width:1.0;"/><polygon fill="#A80036" points="293.94,675.61,286.4777,669.1823,289.1528,674.1667,284.1685,676.8418,293.94,675.61" style="stroke:#A80036;stroke-width:1.0;"/><path d="M180.5,563.5 L180.5,588.5 L336.5,588.5 L336.5,573.5 L326.5,563.5 L180.5,563.5 " fill="#FBFB77" filter="url(#f1fwm71y5imsn6)" style="stroke:#A80036;stroke-width:1.0;"/><path d="M326.5,563.5 L326.5,573.5 L336.5,573.5 L326.5,563.5 " fill="#FBFB77" style="stroke:#A80036;stroke-width:1.0;"/><text fill="#000000" font-family="sans-serif" font-size="13" lengthAdjust="spacing" textLength="135" x="186.5" y="580.5669">glVertexAttribBinding</text><!--MD5=[9429b8b3fbda79f2fb5b9794b500b1d7]
link VertexBufferBinding to Buffer--><path codeLine="73" d="M414.39,748.22 C453.93,799.13 511.7,873.5 547.1,919.08 " fill="none" id="VertexBufferBinding-to-Buffer" style="stroke:#A80036;stroke-width:1.0;"/><polygon fill="#A80036" points="550.25,923.12,547.8748,913.5619,547.1773,919.1755,541.5636,918.4781,550.25,923.12" style="stroke:#A80036;stroke-width:1.0;"/><text fill="#000000" font-family="sans-serif" font-size="13" lengthAdjust="spacing" textLength="81" x="463.5" y="802.0669">vertex buffer</text><!--MD5=[3279408d1e9b93394c3613b7b1625371]
link VertexArray to Buffer--><path codeLine="75" d="M417.44,255.75 C455.81,283.4 508.17,328.33 533.5,382 C620.37,566.05 598.02,820.01 584.84,918.33 " fill="none" id="VertexArray-to-Buffer" style="stroke:#A80036;stroke-width:1.0;"/><polygon fill="#A80036" points="584.14,923.46,589.3355,915.093,584.8251,918.5072,581.4109,913.9968,584.14,923.46" style="stroke:#A80036;stroke-width:1.0;"/><text fill="#000000" font-family="sans-serif" font-size="13" lengthAdjust="spacing" textLength="89" x="602" y="563.0669">element buffe</text><path d="M595.5,572.1328 L595.5,597.1328 L693.5,597.1328 L693.5,582.1328 L683.5,572.1328 L595.5,572.1328 " fill="#FBFB77" filter="url(#f1fwm71y5imsn6)" style="stroke:#A80036;stroke-width:1.0;"/><path d="M683.5,572.1328 L683.5,582.1328 L693.5,582.1328 L683.5,572.1328 " fill="#FBFB77" style="stroke:#A80036;stroke-width:1.0;"/><text fill="#000000" font-family="sans-serif" font-size="13" lengthAdjust="spacing" textLength="77" x="601.5" y="589.1997">glBindBuffer</text><!--MD5=[b4e1320e6b72babf39d1947f9397d67e]
link BufferBinding to Buffer--><path codeLine="78" d="M676.59,729.04 C659.35,742.56 641.71,759.25 629.5,778 C601.46,821.04 588.63,879.53 582.9,918.35 " fill="none" id="BufferBinding-to-Buffer" style="stroke:#A80036;stroke-width:1.0;"/><polygon fill="#A80036" points="582.17,923.45,587.4161,915.1146,582.8851,918.5014,579.4983,913.9704,582.17,923.45" style="stroke:#A80036;stroke-width:1.0;"/><path d="M634.5,783 L634.5,808 L732.5,808 L732.5,793 L722.5,783 L634.5,783 " fill="#FBFB77" filter="url(#f1fwm71y5imsn6)" style="stroke:#A80036;stroke-width:1.0;"/><path d="M722.5,783 L722.5,793 L732.5,793 L722.5,783 " fill="#FBFB77" style="stroke:#A80036;stroke-width:1.0;"/><text fill="#000000" font-family="sans-serif" font-size="13" lengthAdjust="spacing" textLength="77" x="640.5" y="800.0669">glBindBuffer</text><!--MD5=[ae952c754d5cfc4b6e31053f86e29e5b]
link BufferBinding to BufferTarget--><path codeLine="81" d="M740.4,729.29 C743.5,744.32 746.93,761.95 749.5,778 C753.04,800.1 756.3,823.79 759.17,846.52 " fill="none" id="BufferBinding-BufferTarget" style="stroke:#A80036;stroke-width:1.0;"/><!--MD5=[61f4316aefe6ca4121507cf9e5df415b]
reverse link Program to ProgramVertexAttrib--><path codeLine="83" d="M86.5,81.4 C86.5,111.59 86.5,151.8 86.5,181.83 " fill="none" id="Program-backto-ProgramVertexAttrib" style="stroke:#A80036;stroke-width:1.0;"/><polygon fill="#A80036" points="86.5,68.3,82.5,74.3,86.5,80.3,90.5,74.3,86.5,68.3" style="stroke:#A80036;stroke-width:1.0;"/><path d="M91.5,103 L91.5,143 L244.5,143 L244.5,113 L234.5,103 L91.5,103 " fill="#FBFB77" filter="url(#f1fwm71y5imsn6)" style="stroke:#A80036;stroke-width:1.0;"/><path d="M234.5,103 L234.5,113 L244.5,113 L234.5,103 " fill="#FBFB77" style="stroke:#A80036;stroke-width:1.0;"/><text fill="#000000" font-family="sans-serif" font-size="13" lengthAdjust="spacing" textLength="132" x="97.5" y="120.0669">glBindAttribLocation,</text><text fill="#000000" font-family="sans-serif" font-size="13" lengthAdjust="spacing" textLength="123" x="97.5" y="135.1997">glGetAttribLocation</text><!--MD5=[4c12b4a5aed3f42d904969f2c7f37b64]
link ProgramVertexAttrib to VertexArrayAttrib--><path codeLine="86" d="M91.93,268.12 C95.58,292.8 101.1,324.44 108.5,352 C110.68,360.12 113.25,368.51 116,376.81 " fill="none" id="ProgramVertexAttrib-to-VertexArrayAttrib" style="stroke:#A80036;stroke-width:1.0;"/><polygon fill="#A80036" points="117.74,381.97,118.6798,372.1661,116.1546,377.228,111.0926,374.7028,117.74,381.97" style="stroke:#A80036;stroke-width:1.0;"/><!--MD5=[bb1967dad06ff5a39cf0f69b49738b32]
@startuml

class VertexArray {
    element_buffer : Buffer
}

class VertexBufferBinding {
    bindingindex: int
    - - -
    buffer: Buffer
    offset: int
    stride: int
    divisor: int
}

class VertexArrayAttrib {
    attribindex: int
    - - -
    bindingindex: int
    type: data_type
    values_per_vertex: int
    offset: int
    normalized: bool
    enabled: bool
}


enum BufferTarget {
    array
    element_array
    uniform
    shared_storage
    atomic_counter
    texture
    query
    transform_feedback
    draw_indirect
    dispatch_indirect
    copy_read
    copy_write
    pixel_pack
    pixel_unpack
}

class Buffer {
    size
    flags
}

class BufferBinding {
    buffer: Buffer
    target: BufferTarget
}

class Program {
    shaders: Shader[]
}

class ProgramVertexAttrib{
    name: string
    type: data_type
    attribindex: int
}

VertexArray *- - VertexArrayAttrib
note on link: glEnableVertexAttribArray,\nglVertexAttribFormat

VertexArray *- - VertexBufferBinding
note on link: glBindVertexBuffer

VertexArrayAttrib - -> VertexBufferBinding
note on link: glVertexAttribBinding

VertexBufferBinding - -> Buffer: vertex buffer

VertexArray - -> Buffer : element buffe
note on link: glBindBuffer

BufferBinding - -> Buffer
note on link: glBindBuffer

BufferBinding - - BufferTarget

Program *- - ProgramVertexAttrib
note on link: glBindAttribLocation,\nglGetAttribLocation

ProgramVertexAttrib - -> VertexArrayAttrib
@enduml

PlantUML version 1.2021.3(Mon Mar 22 17:53:19 CET 2021)
(GPL source distribution)
Java Runtime: OpenJDK Runtime Environment
JVM: OpenJDK 64-Bit Server VM
Default Encoding: UTF-8
Language: en
Country: US
--></g></svg>
