<?xml version="1.0" encoding="UTF-8" standalone="no"?><svg xmlns="http://www.w3.org/2000/svg" xmlns:xlink="http://www.w3.org/1999/xlink" contentScriptType="application/ecmascript" contentStyleType="text/css" height="1132px" preserveAspectRatio="none" style="width:850px;height:1132px;" version="1.1" viewBox="0 0 850 1132" width="850px" zoomAndPan="magnify"><defs><filter height="300%" id="f55mw62r4bhl5" width="300%" x="-1" y="-1"><feGaussianBlur result="blurOut" stdDeviation="2.0"/><feColorMatrix in="blurOut" result="blurOut2" type="matrix" values="0 0 0 0 0 0 0 0 0 0 0 0 0 0 0 0 0 0 .4 0"/><feOffset dx="4.0" dy="4.0" in="blurOut2" result="blurOut3"/><feBlend in="SourceGraphic" in2="blurOut3" mode="normal"/></filter></defs><g><!--MD5=[8b90c0ac23c0767a2d57369ece18f93e]
class log_event_severity--><rect codeLine="1" fill="#FEFECE" filter="url(#f55mw62r4bhl5)" height="137.6328" id="log_event_severity" style="stroke:#A80036;stroke-width:1.5;" width="146" x="397.5" y="733.5"/><ellipse cx="412.5" cy="749.5" fill="#EB937F" rx="11" ry="11" style="stroke:#A80036;stroke-width:1.0;"/><path d="M416.6094,755.5 L408.8906,755.5 L408.8906,743.1094 L416.6094,743.1094 L416.6094,745.2656 L411.3438,745.2656 L411.3438,747.9375 L416.1094,747.9375 L416.1094,750.0938 L411.3438,750.0938 L411.3438,753.3438 L416.6094,753.3438 L416.6094,755.5 Z " fill="#000000"/><text fill="#000000" font-family="sans-serif" font-size="12" lengthAdjust="spacing" textLength="114" x="426.5" y="753.6543">log_event_severity</text><line style="stroke:#A80036;stroke-width:1.5;" x1="398.5" x2="542.5" y1="765.5" y2="765.5"/><text fill="#000000" font-family="sans-serif" font-size="11" lengthAdjust="spacing" textLength="29" x="403.5" y="779.7104">trace</text><text fill="#000000" font-family="sans-serif" font-size="11" lengthAdjust="spacing" textLength="35" x="403.5" y="792.5151">debug</text><text fill="#000000" font-family="sans-serif" font-size="11" lengthAdjust="spacing" textLength="22" x="403.5" y="805.3198">stat</text><text fill="#000000" font-family="sans-serif" font-size="11" lengthAdjust="spacing" textLength="21" x="403.5" y="818.1245">info</text><text fill="#000000" font-family="sans-serif" font-size="11" lengthAdjust="spacing" textLength="45" x="403.5" y="830.9292">warning</text><text fill="#000000" font-family="sans-serif" font-size="11" lengthAdjust="spacing" textLength="29" x="403.5" y="843.7339">error</text><text fill="#000000" font-family="sans-serif" font-size="11" lengthAdjust="spacing" textLength="25" x="403.5" y="856.5386">fatal</text><line style="stroke:#A80036;stroke-width:1.5;" x1="398.5" x2="542.5" y1="863.1328" y2="863.1328"/><!--MD5=[71ff6efc569c45735900e3a30c5ab8e3]
class logger_backend--><rect codeLine="11" fill="#FEFECE" filter="url(#f55mw62r4bhl5)" height="163.2422" id="logger_backend" style="stroke:#A80036;stroke-width:1.5;" width="146" x="186.5" y="721"/><ellipse cx="207.8" cy="737" fill="#B4A7E5" rx="11" ry="11" style="stroke:#A80036;stroke-width:1.0;"/><path d="M203.7219,732.7656 L203.7219,730.6094 L211.1125,730.6094 L211.1125,732.7656 L208.6438,732.7656 L208.6438,740.8438 L211.1125,740.8438 L211.1125,743 L203.7219,743 L203.7219,740.8438 L206.1906,740.8438 L206.1906,732.7656 L203.7219,732.7656 Z " fill="#000000"/><text fill="#000000" font-family="sans-serif" font-size="12" font-style="italic" lengthAdjust="spacing" textLength="100" x="223.2" y="741.1543">logger_backend</text><line style="stroke:#A80036;stroke-width:1.5;" x1="187.5" x2="331.5" y1="753" y2="753"/><line style="stroke:#A80036;stroke-width:1.5;" x1="187.5" x2="331.5" y1="761" y2="761"/><ellipse cx="197.5" cy="772" fill="#84BE84" rx="3" ry="3" style="stroke:#038048;stroke-width:1.0;"/><text fill="#000000" font-family="sans-serif" font-size="11" lengthAdjust="spacing" textLength="110" x="206.5" y="775.2104">type_id() : identifier</text><ellipse cx="197.5" cy="784.8047" fill="#84BE84" rx="3" ry="3" style="stroke:#038048;stroke-width:1.0;"/><text fill="#000000" font-family="sans-serif" font-size="11" lengthAdjust="spacing" textLength="95" x="206.5" y="788.0151">set_description()</text><ellipse cx="197.5" cy="797.6094" fill="#84BE84" rx="3" ry="3" style="stroke:#038048;stroke-width:1.0;"/><text fill="#000000" font-family="sans-serif" font-size="11" lengthAdjust="spacing" textLength="78" x="206.5" y="800.8198">enter_scope()</text><ellipse cx="197.5" cy="810.4141" fill="#84BE84" rx="3" ry="3" style="stroke:#038048;stroke-width:1.0;"/><text fill="#000000" font-family="sans-serif" font-size="11" lengthAdjust="spacing" textLength="78" x="206.5" y="813.6245">leave_scope()</text><ellipse cx="197.5" cy="823.2188" fill="#84BE84" rx="3" ry="3" style="stroke:#038048;stroke-width:1.0;"/><text fill="#000000" font-family="sans-serif" font-size="11" lengthAdjust="spacing" textLength="120" x="206.5" y="826.4292">log_chart_sample(...)</text><ellipse cx="197.5" cy="836.0234" fill="#84BE84" rx="3" ry="3" style="stroke:#038048;stroke-width:1.0;"/><text fill="#000000" font-family="sans-serif" font-size="11" lengthAdjust="spacing" textLength="110" x="206.5" y="839.2339">begin_message(...)</text><ellipse cx="197.5" cy="848.8281" fill="#84BE84" rx="3" ry="3" style="stroke:#038048;stroke-width:1.0;"/><text fill="#000000" font-family="sans-serif" font-size="11" lengthAdjust="spacing" textLength="102" x="206.5" y="852.0386">add_argument(...)</text><ellipse cx="197.5" cy="861.6328" fill="#84BE84" rx="3" ry="3" style="stroke:#038048;stroke-width:1.0;"/><text fill="#000000" font-family="sans-serif" font-size="11" lengthAdjust="spacing" textLength="110" x="206.5" y="864.8433">finish_message(...)</text><ellipse cx="197.5" cy="874.4375" fill="#84BE84" rx="3" ry="3" style="stroke:#038048;stroke-width:1.0;"/><text fill="#000000" font-family="sans-serif" font-size="11" lengthAdjust="spacing" textLength="62" x="206.5" y="877.6479">finish_log()</text><!--MD5=[11043de89c6a29bafe37bf600dac5c08]
class null_log_backend--><rect codeLine="23" fill="#FEFECE" filter="url(#f55mw62r4bhl5)" height="48" id="null_log_backend" style="stroke:#A80036;stroke-width:1.5;" width="139" x="7" y="961"/><ellipse cx="22" cy="977" fill="#ADD1B2" rx="11" ry="11" style="stroke:#A80036;stroke-width:1.0;"/><path d="M24.9688,982.6406 Q24.3906,982.9375 23.75,983.0781 Q23.1094,983.2344 22.4063,983.2344 Q19.9063,983.2344 18.5781,981.5938 Q17.2656,979.9375 17.2656,976.8125 Q17.2656,973.6875 18.5781,972.0313 Q19.9063,970.375 22.4063,970.375 Q23.1094,970.375 23.75,970.5313 Q24.4063,970.6875 24.9688,970.9844 L24.9688,973.7031 Q24.3438,973.125 23.75,972.8594 Q23.1563,972.5781 22.5313,972.5781 Q21.1875,972.5781 20.5,973.6563 Q19.8125,974.7188 19.8125,976.8125 Q19.8125,978.9063 20.5,979.9844 Q21.1875,981.0469 22.5313,981.0469 Q23.1563,981.0469 23.75,980.7813 Q24.3438,980.5 24.9688,979.9219 L24.9688,982.6406 Z " fill="#000000"/><text fill="#000000" font-family="sans-serif" font-size="12" lengthAdjust="spacing" textLength="107" x="36" y="981.1543">null_log_backend</text><line style="stroke:#A80036;stroke-width:1.5;" x1="8" x2="145" y1="993" y2="993"/><line style="stroke:#A80036;stroke-width:1.5;" x1="8" x2="145" y1="1001" y2="1001"/><!--MD5=[4174052cf03c15514add9353cf87b419]
class syslog_log_backend--><rect codeLine="26" fill="#FEFECE" filter="url(#f55mw62r4bhl5)" height="48" id="syslog_log_backend" style="stroke:#A80036;stroke-width:1.5;" width="156" x="181.5" y="961"/><ellipse cx="196.5" cy="977" fill="#ADD1B2" rx="11" ry="11" style="stroke:#A80036;stroke-width:1.0;"/><path d="M199.4688,982.6406 Q198.8906,982.9375 198.25,983.0781 Q197.6094,983.2344 196.9063,983.2344 Q194.4063,983.2344 193.0781,981.5938 Q191.7656,979.9375 191.7656,976.8125 Q191.7656,973.6875 193.0781,972.0313 Q194.4063,970.375 196.9063,970.375 Q197.6094,970.375 198.25,970.5313 Q198.9063,970.6875 199.4688,970.9844 L199.4688,973.7031 Q198.8438,973.125 198.25,972.8594 Q197.6563,972.5781 197.0313,972.5781 Q195.6875,972.5781 195,973.6563 Q194.3125,974.7188 194.3125,976.8125 Q194.3125,978.9063 195,979.9844 Q195.6875,981.0469 197.0313,981.0469 Q197.6563,981.0469 198.25,980.7813 Q198.8438,980.5 199.4688,979.9219 L199.4688,982.6406 Z " fill="#000000"/><text fill="#000000" font-family="sans-serif" font-size="12" lengthAdjust="spacing" textLength="124" x="210.5" y="981.1543">syslog_log_backend</text><line style="stroke:#A80036;stroke-width:1.5;" x1="182.5" x2="336.5" y1="993" y2="993"/><line style="stroke:#A80036;stroke-width:1.5;" x1="182.5" x2="336.5" y1="1001" y2="1001"/><!--MD5=[140efb4af687b542bdc14403526a9c74]
class ostream_log_backend--><rect codeLine="29" fill="#FEFECE" filter="url(#f55mw62r4bhl5)" height="48" id="ostream_log_backend" style="stroke:#A80036;stroke-width:1.5;" width="169" x="373" y="961"/><ellipse cx="388" cy="977" fill="#ADD1B2" rx="11" ry="11" style="stroke:#A80036;stroke-width:1.0;"/><path d="M390.9688,982.6406 Q390.3906,982.9375 389.75,983.0781 Q389.1094,983.2344 388.4063,983.2344 Q385.9063,983.2344 384.5781,981.5938 Q383.2656,979.9375 383.2656,976.8125 Q383.2656,973.6875 384.5781,972.0313 Q385.9063,970.375 388.4063,970.375 Q389.1094,970.375 389.75,970.5313 Q390.4063,970.6875 390.9688,970.9844 L390.9688,973.7031 Q390.3438,973.125 389.75,972.8594 Q389.1563,972.5781 388.5313,972.5781 Q387.1875,972.5781 386.5,973.6563 Q385.8125,974.7188 385.8125,976.8125 Q385.8125,978.9063 386.5,979.9844 Q387.1875,981.0469 388.5313,981.0469 Q389.1563,981.0469 389.75,980.7813 Q390.3438,980.5 390.9688,979.9219 L390.9688,982.6406 Z " fill="#000000"/><text fill="#000000" font-family="sans-serif" font-size="12" lengthAdjust="spacing" textLength="137" x="402" y="981.1543">ostream_log_backend</text><line style="stroke:#A80036;stroke-width:1.5;" x1="374" x2="541" y1="993" y2="993"/><line style="stroke:#A80036;stroke-width:1.5;" x1="374" x2="541" y1="1001" y2="1001"/><!--MD5=[b48a174cd08e1cd8dd23fab0987cdce6]
class asio_ostream_log_backend--><rect codeLine="32" fill="#FEFECE" filter="url(#f55mw62r4bhl5)" height="48" id="asio_ostream_log_backend" style="stroke:#A80036;stroke-width:1.5;" width="201" x="357" y="1070"/><ellipse cx="372" cy="1086" fill="#ADD1B2" rx="11" ry="11" style="stroke:#A80036;stroke-width:1.0;"/><path d="M374.9688,1091.6406 Q374.3906,1091.9375 373.75,1092.0781 Q373.1094,1092.2344 372.4063,1092.2344 Q369.9063,1092.2344 368.5781,1090.5938 Q367.2656,1088.9375 367.2656,1085.8125 Q367.2656,1082.6875 368.5781,1081.0313 Q369.9063,1079.375 372.4063,1079.375 Q373.1094,1079.375 373.75,1079.5313 Q374.4063,1079.6875 374.9688,1079.9844 L374.9688,1082.7031 Q374.3438,1082.125 373.75,1081.8594 Q373.1563,1081.5781 372.5313,1081.5781 Q371.1875,1081.5781 370.5,1082.6563 Q369.8125,1083.7188 369.8125,1085.8125 Q369.8125,1087.9063 370.5,1088.9844 Q371.1875,1090.0469 372.5313,1090.0469 Q373.1563,1090.0469 373.75,1089.7813 Q374.3438,1089.5 374.9688,1088.9219 L374.9688,1091.6406 Z " fill="#000000"/><text fill="#000000" font-family="sans-serif" font-size="12" lengthAdjust="spacing" textLength="169" x="386" y="1090.1543">asio_ostream_log_backend</text><line style="stroke:#A80036;stroke-width:1.5;" x1="358" x2="557" y1="1102" y2="1102"/><line style="stroke:#A80036;stroke-width:1.5;" x1="358" x2="557" y1="1110" y2="1110"/><!--MD5=[2a5b14a0b654426fe38eedd15ff8ae8e]
class proxy_log_backend--><rect codeLine="35" fill="#FEFECE" filter="url(#f55mw62r4bhl5)" height="53.9375" id="proxy_log_backend" style="stroke:#A80036;stroke-width:1.5;" width="150" x="90.5" y="542"/><ellipse cx="105.5" cy="560.9688" fill="#ADD1B2" rx="11" ry="11" style="stroke:#A80036;stroke-width:1.0;"/><path d="M108.4688,566.6094 Q107.8906,566.9063 107.25,567.0469 Q106.6094,567.2031 105.9063,567.2031 Q103.4063,567.2031 102.0781,565.5625 Q100.7656,563.9063 100.7656,560.7813 Q100.7656,557.6563 102.0781,556 Q103.4063,554.3438 105.9063,554.3438 Q106.6094,554.3438 107.25,554.5 Q107.9063,554.6563 108.4688,554.9531 L108.4688,557.6719 Q107.8438,557.0938 107.25,556.8281 Q106.6563,556.5469 106.0313,556.5469 Q104.6875,556.5469 104,557.625 Q103.3125,558.6875 103.3125,560.7813 Q103.3125,562.875 104,563.9531 Q104.6875,565.0156 106.0313,565.0156 Q106.6563,565.0156 107.25,564.75 Q107.8438,564.4688 108.4688,563.8906 L108.4688,566.6094 Z " fill="#000000"/><text fill="#000000" font-family="sans-serif" font-size="12" font-style="italic" lengthAdjust="spacing" textLength="48" x="154.5" y="558.1387">«Proxy»</text><text fill="#000000" font-family="sans-serif" font-size="12" lengthAdjust="spacing" textLength="118" x="119.5" y="572.1074">proxy_log_backend</text><line style="stroke:#A80036;stroke-width:1.5;" x1="91.5" x2="239.5" y1="579.9375" y2="579.9375"/><line style="stroke:#A80036;stroke-width:1.5;" x1="91.5" x2="239.5" y1="587.9375" y2="587.9375"/><!--MD5=[264fd1b91f44758258da03b74098a61c]
class log_entry--><rect codeLine="38" fill="#FEFECE" filter="url(#f55mw62r4bhl5)" height="73.6094" id="log_entry" style="stroke:#A80036;stroke-width:1.5;" width="108" x="396.5" y="532"/><ellipse cx="420.05" cy="548" fill="#ADD1B2" rx="11" ry="11" style="stroke:#A80036;stroke-width:1.0;"/><path d="M423.0188,553.6406 Q422.4406,553.9375 421.8,554.0781 Q421.1594,554.2344 420.4563,554.2344 Q417.9563,554.2344 416.6281,552.5938 Q415.3156,550.9375 415.3156,547.8125 Q415.3156,544.6875 416.6281,543.0313 Q417.9563,541.375 420.4563,541.375 Q421.1594,541.375 421.8,541.5313 Q422.4563,541.6875 423.0188,541.9844 L423.0188,544.7031 Q422.3938,544.125 421.8,543.8594 Q421.2063,543.5781 420.5813,543.5781 Q419.2375,543.5781 418.55,544.6563 Q417.8625,545.7188 417.8625,547.8125 Q417.8625,549.9063 418.55,550.9844 Q419.2375,552.0469 420.5813,552.0469 Q421.2063,552.0469 421.8,551.7813 Q422.3938,551.5 423.0188,550.9219 L423.0188,553.6406 Z " fill="#000000"/><text fill="#000000" font-family="sans-serif" font-size="12" lengthAdjust="spacing" textLength="57" x="435.95" y="552.1543">log_entry</text><line style="stroke:#A80036;stroke-width:1.5;" x1="397.5" x2="503.5" y1="564" y2="564"/><line style="stroke:#A80036;stroke-width:1.5;" x1="397.5" x2="503.5" y1="572" y2="572"/><ellipse cx="407.5" cy="583" fill="#84BE84" rx="3" ry="3" style="stroke:#038048;stroke-width:1.0;"/><text fill="#000000" font-family="sans-serif" font-size="11" lengthAdjust="spacing" textLength="82" x="416.5" y="586.2104">set_format(...)</text><ellipse cx="407.5" cy="595.8047" fill="#84BE84" rx="3" ry="3" style="stroke:#038048;stroke-width:1.0;"/><text fill="#000000" font-family="sans-serif" font-size="11" lengthAdjust="spacing" textLength="39" x="416.5" y="599.0151">arg(...)</text><!--MD5=[b9a83fe85ac8f271356db0251d854f74]
class basic_logger--><rect codeLine="43" fill="#FEFECE" filter="url(#f55mw62r4bhl5)" height="86.4141" id="basic_logger" style="stroke:#A80036;stroke-width:1.5;" width="160" x="370.5" y="331"/><ellipse cx="407.55" cy="347" fill="#ADD1B2" rx="11" ry="11" style="stroke:#A80036;stroke-width:1.0;"/><path d="M410.5188,352.6406 Q409.9406,352.9375 409.3,353.0781 Q408.6594,353.2344 407.9563,353.2344 Q405.4563,353.2344 404.1281,351.5938 Q402.8156,349.9375 402.8156,346.8125 Q402.8156,343.6875 404.1281,342.0313 Q405.4563,340.375 407.9563,340.375 Q408.6594,340.375 409.3,340.5313 Q409.9563,340.6875 410.5188,340.9844 L410.5188,343.7031 Q409.8938,343.125 409.3,342.8594 Q408.7063,342.5781 408.0813,342.5781 Q406.7375,342.5781 406.05,343.6563 Q405.3625,344.7188 405.3625,346.8125 Q405.3625,348.9063 406.05,349.9844 Q406.7375,351.0469 408.0813,351.0469 Q408.7063,351.0469 409.3,350.7813 Q409.8938,350.5 410.5188,349.9219 L410.5188,352.6406 Z " fill="#000000"/><text fill="#000000" font-family="sans-serif" font-size="12" lengthAdjust="spacing" textLength="79" x="426.45" y="351.1543">basic_logger</text><line style="stroke:#A80036;stroke-width:1.5;" x1="371.5" x2="529.5" y1="363" y2="363"/><line style="stroke:#A80036;stroke-width:1.5;" x1="371.5" x2="529.5" y1="371" y2="371"/><ellipse cx="381.5" cy="382" fill="#84BE84" rx="3" ry="3" style="stroke:#038048;stroke-width:1.0;"/><text fill="#000000" font-family="sans-serif" font-size="11" lengthAdjust="spacing" textLength="134" x="390.5" y="385.2104">instance_id() : identifier</text><ellipse cx="381.5" cy="394.8047" fill="#84BE84" rx="3" ry="3" style="stroke:#038048;stroke-width:1.0;"/><text fill="#000000" font-family="sans-serif" font-size="11" lengthAdjust="spacing" textLength="55" x="390.5" y="398.0151">backend()</text><ellipse cx="381.5" cy="407.6094" fill="#84BE84" rx="3" ry="3" style="stroke:#038048;stroke-width:1.0;"/><text fill="#000000" font-family="sans-serif" font-size="11" lengthAdjust="spacing" textLength="97" x="390.5" y="410.8198">make_log_entry()</text><!--MD5=[a25c9a27c62d20652ab2fde66a4a346b]
class logger--><rect codeLine="49" fill="#FEFECE" filter="url(#f55mw62r4bhl5)" height="137.6328" id="logger" style="stroke:#A80036;stroke-width:1.5;" width="79" x="411" y="132"/><ellipse cx="429.15" cy="148" fill="#ADD1B2" rx="11" ry="11" style="stroke:#A80036;stroke-width:1.0;"/><path d="M432.1188,153.6406 Q431.5406,153.9375 430.9,154.0781 Q430.2594,154.2344 429.5563,154.2344 Q427.0563,154.2344 425.7281,152.5938 Q424.4156,150.9375 424.4156,147.8125 Q424.4156,144.6875 425.7281,143.0313 Q427.0563,141.375 429.5563,141.375 Q430.2594,141.375 430.9,141.5313 Q431.5563,141.6875 432.1188,141.9844 L432.1188,144.7031 Q431.4938,144.125 430.9,143.8594 Q430.3063,143.5781 429.6813,143.5781 Q428.3375,143.5781 427.65,144.6563 Q426.9625,145.7188 426.9625,147.8125 Q426.9625,149.9063 427.65,150.9844 Q428.3375,152.0469 429.6813,152.0469 Q430.3063,152.0469 430.9,151.7813 Q431.4938,151.5 432.1188,150.9219 L432.1188,153.6406 Z " fill="#000000"/><text fill="#000000" font-family="sans-serif" font-size="12" lengthAdjust="spacing" textLength="40" x="443.85" y="152.1543">logger</text><line style="stroke:#A80036;stroke-width:1.5;" x1="412" x2="489" y1="164" y2="164"/><line style="stroke:#A80036;stroke-width:1.5;" x1="412" x2="489" y1="172" y2="172"/><ellipse cx="422" cy="183" fill="#84BE84" rx="3" ry="3" style="stroke:#038048;stroke-width:1.0;"/><text fill="#000000" font-family="sans-serif" font-size="11" lengthAdjust="spacing" textLength="25" x="431" y="186.2104">log()</text><ellipse cx="422" cy="195.8047" fill="#84BE84" rx="3" ry="3" style="stroke:#038048;stroke-width:1.0;"/><text fill="#000000" font-family="sans-serif" font-size="11" lengthAdjust="spacing" textLength="37" x="431" y="199.0151">error()</text><ellipse cx="422" cy="208.6094" fill="#84BE84" rx="3" ry="3" style="stroke:#038048;stroke-width:1.0;"/><text fill="#000000" font-family="sans-serif" font-size="11" lengthAdjust="spacing" textLength="53" x="431" y="211.8198">warning()</text><ellipse cx="422" cy="221.4141" fill="#84BE84" rx="3" ry="3" style="stroke:#038048;stroke-width:1.0;"/><text fill="#000000" font-family="sans-serif" font-size="11" lengthAdjust="spacing" textLength="29" x="431" y="224.6245">info()</text><ellipse cx="422" cy="234.2188" fill="#84BE84" rx="3" ry="3" style="stroke:#038048;stroke-width:1.0;"/><text fill="#000000" font-family="sans-serif" font-size="11" lengthAdjust="spacing" textLength="30" x="431" y="237.4292">stat()</text><ellipse cx="422" cy="247.0234" fill="#84BE84" rx="3" ry="3" style="stroke:#038048;stroke-width:1.0;"/><text fill="#000000" font-family="sans-serif" font-size="11" lengthAdjust="spacing" textLength="43" x="431" y="250.2339">debug()</text><ellipse cx="422" cy="259.8281" fill="#84BE84" rx="3" ry="3" style="stroke:#038048;stroke-width:1.0;"/><text fill="#000000" font-family="sans-serif" font-size="11" lengthAdjust="spacing" textLength="37" x="431" y="263.0386">trace()</text><!--MD5=[d4d09630e0f99b87d18712d9c4fe0fd6]
class named_logging_object--><rect codeLine="59" fill="#FEFECE" filter="url(#f55mw62r4bhl5)" height="150.4375" id="named_logging_object" style="stroke:#A80036;stroke-width:1.5;" width="172" x="550.5" y="494"/><ellipse cx="565.5" cy="510" fill="#ADD1B2" rx="11" ry="11" style="stroke:#A80036;stroke-width:1.0;"/><path d="M568.4688,515.6406 Q567.8906,515.9375 567.25,516.0781 Q566.6094,516.2344 565.9063,516.2344 Q563.4063,516.2344 562.0781,514.5938 Q560.7656,512.9375 560.7656,509.8125 Q560.7656,506.6875 562.0781,505.0313 Q563.4063,503.375 565.9063,503.375 Q566.6094,503.375 567.25,503.5313 Q567.9063,503.6875 568.4688,503.9844 L568.4688,506.7031 Q567.8438,506.125 567.25,505.8594 Q566.6563,505.5781 566.0313,505.5781 Q564.6875,505.5781 564,506.6563 Q563.3125,507.7188 563.3125,509.8125 Q563.3125,511.9063 564,512.9844 Q564.6875,514.0469 566.0313,514.0469 Q566.6563,514.0469 567.25,513.7813 Q567.8438,513.5 568.4688,512.9219 L568.4688,515.6406 Z " fill="#000000"/><text fill="#000000" font-family="sans-serif" font-size="12" lengthAdjust="spacing" textLength="140" x="579.5" y="514.1543">named_logging_object</text><line style="stroke:#A80036;stroke-width:1.5;" x1="551.5" x2="721.5" y1="526" y2="526"/><line style="stroke:#A80036;stroke-width:1.5;" x1="551.5" x2="721.5" y1="534" y2="534"/><ellipse cx="561.5" cy="545" fill="#84BE84" rx="3" ry="3" style="stroke:#038048;stroke-width:1.0;"/><text fill="#000000" font-family="sans-serif" font-size="11" lengthAdjust="spacing" textLength="25" x="570.5" y="548.2104">log()</text><ellipse cx="561.5" cy="557.8047" fill="#84BE84" rx="3" ry="3" style="stroke:#038048;stroke-width:1.0;"/><text fill="#000000" font-family="sans-serif" font-size="11" lengthAdjust="spacing" textLength="56" x="570.5" y="561.0151">log_fatal()</text><ellipse cx="561.5" cy="570.6094" fill="#84BE84" rx="3" ry="3" style="stroke:#038048;stroke-width:1.0;"/><text fill="#000000" font-family="sans-serif" font-size="11" lengthAdjust="spacing" textLength="60" x="570.5" y="573.8198">log_error()</text><ellipse cx="561.5" cy="583.4141" fill="#84BE84" rx="3" ry="3" style="stroke:#038048;stroke-width:1.0;"/><text fill="#000000" font-family="sans-serif" font-size="11" lengthAdjust="spacing" textLength="76" x="570.5" y="586.6245">log_warning()</text><ellipse cx="561.5" cy="596.2188" fill="#84BE84" rx="3" ry="3" style="stroke:#038048;stroke-width:1.0;"/><text fill="#000000" font-family="sans-serif" font-size="11" lengthAdjust="spacing" textLength="52" x="570.5" y="599.4292">log_info()</text><ellipse cx="561.5" cy="609.0234" fill="#84BE84" rx="3" ry="3" style="stroke:#038048;stroke-width:1.0;"/><text fill="#000000" font-family="sans-serif" font-size="11" lengthAdjust="spacing" textLength="53" x="570.5" y="612.2339">log_stat()</text><ellipse cx="561.5" cy="621.8281" fill="#84BE84" rx="3" ry="3" style="stroke:#038048;stroke-width:1.0;"/><text fill="#000000" font-family="sans-serif" font-size="11" lengthAdjust="spacing" textLength="66" x="570.5" y="625.0386">log_debug()</text><ellipse cx="561.5" cy="634.6328" fill="#84BE84" rx="3" ry="3" style="stroke:#038048;stroke-width:1.0;"/><text fill="#000000" font-family="sans-serif" font-size="11" lengthAdjust="spacing" textLength="60" x="570.5" y="637.8433">log_trace()</text><!--MD5=[02575c23a59a11c75b5e200075840d0c]
class root_logger--><rect codeLine="70" fill="#FEFECE" filter="url(#f55mw62r4bhl5)" height="48" id="root_logger" style="stroke:#A80036;stroke-width:1.5;" width="104" x="551.5" y="7"/><ellipse cx="566.5" cy="23" fill="#ADD1B2" rx="11" ry="11" style="stroke:#A80036;stroke-width:1.0;"/><path d="M569.4688,28.6406 Q568.8906,28.9375 568.25,29.0781 Q567.6094,29.2344 566.9063,29.2344 Q564.4063,29.2344 563.0781,27.5938 Q561.7656,25.9375 561.7656,22.8125 Q561.7656,19.6875 563.0781,18.0313 Q564.4063,16.375 566.9063,16.375 Q567.6094,16.375 568.25,16.5313 Q568.9063,16.6875 569.4688,16.9844 L569.4688,19.7031 Q568.8438,19.125 568.25,18.8594 Q567.6563,18.5781 567.0313,18.5781 Q565.6875,18.5781 565,19.6563 Q564.3125,20.7188 564.3125,22.8125 Q564.3125,24.9063 565,25.9844 Q565.6875,27.0469 567.0313,27.0469 Q567.6563,27.0469 568.25,26.7813 Q568.8438,26.5 569.4688,25.9219 L569.4688,28.6406 Z " fill="#000000"/><text fill="#000000" font-family="sans-serif" font-size="12" lengthAdjust="spacing" textLength="72" x="580.5" y="27.1543">root_logger</text><line style="stroke:#A80036;stroke-width:1.5;" x1="552.5" x2="654.5" y1="39" y2="39"/><line style="stroke:#A80036;stroke-width:1.5;" x1="552.5" x2="654.5" y1="47" y2="47"/><!--MD5=[112f7764fbfcec6d11f25d9adb754dfb]
class root_logger_options--><rect codeLine="73" fill="#FEFECE" filter="url(#f55mw62r4bhl5)" height="48" id="root_logger_options" style="stroke:#A80036;stroke-width:1.5;" width="157" x="525" y="177"/><ellipse cx="540" cy="193" fill="#ADD1B2" rx="11" ry="11" style="stroke:#A80036;stroke-width:1.0;"/><path d="M542.9688,198.6406 Q542.3906,198.9375 541.75,199.0781 Q541.1094,199.2344 540.4063,199.2344 Q537.9063,199.2344 536.5781,197.5938 Q535.2656,195.9375 535.2656,192.8125 Q535.2656,189.6875 536.5781,188.0313 Q537.9063,186.375 540.4063,186.375 Q541.1094,186.375 541.75,186.5313 Q542.4063,186.6875 542.9688,186.9844 L542.9688,189.7031 Q542.3438,189.125 541.75,188.8594 Q541.1563,188.5781 540.5313,188.5781 Q539.1875,188.5781 538.5,189.6563 Q537.8125,190.7188 537.8125,192.8125 Q537.8125,194.9063 538.5,195.9844 Q539.1875,197.0469 540.5313,197.0469 Q541.1563,197.0469 541.75,196.7813 Q542.3438,196.5 542.9688,195.9219 L542.9688,198.6406 Z " fill="#000000"/><text fill="#000000" font-family="sans-serif" font-size="12" lengthAdjust="spacing" textLength="125" x="554" y="197.1543">root_logger_options</text><line style="stroke:#A80036;stroke-width:1.5;" x1="526" x2="681" y1="209" y2="209"/><line style="stroke:#A80036;stroke-width:1.5;" x1="526" x2="681" y1="217" y2="217"/><!--MD5=[26c0fe580dde9ceb96919a64ccc89f08]
class program_args--><rect codeLine="76" fill="#FEFECE" filter="url(#f55mw62r4bhl5)" height="86.4141" id="program_args" style="stroke:#A80036;stroke-width:1.5;" width="119" x="717" y="158"/><ellipse cx="732" cy="174" fill="#ADD1B2" rx="11" ry="11" style="stroke:#A80036;stroke-width:1.0;"/><path d="M734.9688,179.6406 Q734.3906,179.9375 733.75,180.0781 Q733.1094,180.2344 732.4063,180.2344 Q729.9063,180.2344 728.5781,178.5938 Q727.2656,176.9375 727.2656,173.8125 Q727.2656,170.6875 728.5781,169.0313 Q729.9063,167.375 732.4063,167.375 Q733.1094,167.375 733.75,167.5313 Q734.4063,167.6875 734.9688,167.9844 L734.9688,170.7031 Q734.3438,170.125 733.75,169.8594 Q733.1563,169.5781 732.5313,169.5781 Q731.1875,169.5781 730.5,170.6563 Q729.8125,171.7188 729.8125,173.8125 Q729.8125,175.9063 730.5,176.9844 Q731.1875,178.0469 732.5313,178.0469 Q733.1563,178.0469 733.75,177.7813 Q734.3438,177.5 734.9688,176.9219 L734.9688,179.6406 Z " fill="#000000"/><text fill="#000000" font-family="sans-serif" font-size="12" lengthAdjust="spacing" textLength="87" x="746" y="178.1543">program_args</text><line style="stroke:#A80036;stroke-width:1.5;" x1="718" x2="835" y1="190" y2="190"/><line style="stroke:#A80036;stroke-width:1.5;" x1="718" x2="835" y1="198" y2="198"/><ellipse cx="728" cy="209" fill="#84BE84" rx="3" ry="3" style="stroke:#038048;stroke-width:1.0;"/><text fill="#000000" font-family="sans-serif" font-size="11" lengthAdjust="spacing" textLength="39" x="737" y="212.2104">begin()</text><ellipse cx="728" cy="221.8047" fill="#84BE84" rx="3" ry="3" style="stroke:#038048;stroke-width:1.0;"/><text fill="#000000" font-family="sans-serif" font-size="11" lengthAdjust="spacing" textLength="29" x="737" y="225.0151">end()</text><ellipse cx="728" cy="234.6094" fill="#84BE84" rx="3" ry="3" style="stroke:#038048;stroke-width:1.0;"/><text fill="#000000" font-family="sans-serif" font-size="11" lengthAdjust="spacing" textLength="29" x="737" y="237.8198">find()</text><!--MD5=[5e5b5ca85e3fa76bc05d133b10cccf0a]
class main_ctx_object--><rect codeLine="82" fill="#FEFECE" filter="url(#f55mw62r4bhl5)" height="48" id="main_ctx_object" style="stroke:#A80036;stroke-width:1.5;" width="131" x="579" y="778.5"/><ellipse cx="594" cy="794.5" fill="#ADD1B2" rx="11" ry="11" style="stroke:#A80036;stroke-width:1.0;"/><path d="M596.9688,800.1406 Q596.3906,800.4375 595.75,800.5781 Q595.1094,800.7344 594.4063,800.7344 Q591.9063,800.7344 590.5781,799.0938 Q589.2656,797.4375 589.2656,794.3125 Q589.2656,791.1875 590.5781,789.5313 Q591.9063,787.875 594.4063,787.875 Q595.1094,787.875 595.75,788.0313 Q596.4063,788.1875 596.9688,788.4844 L596.9688,791.2031 Q596.3438,790.625 595.75,790.3594 Q595.1563,790.0781 594.5313,790.0781 Q593.1875,790.0781 592.5,791.1563 Q591.8125,792.2188 591.8125,794.3125 Q591.8125,796.4063 592.5,797.4844 Q593.1875,798.5469 594.5313,798.5469 Q595.1563,798.5469 595.75,798.2813 Q596.3438,798 596.9688,797.4219 L596.9688,800.1406 Z " fill="#000000"/><text fill="#000000" font-family="sans-serif" font-size="12" lengthAdjust="spacing" textLength="99" x="608" y="798.6543">main_ctx_object</text><line style="stroke:#A80036;stroke-width:1.5;" x1="580" x2="709" y1="810.5" y2="810.5"/><line style="stroke:#A80036;stroke-width:1.5;" x1="580" x2="709" y1="818.5" y2="818.5"/><!--MD5=[7164eccd22a31d5606c851e0dc4ba4c9]
class main_ctx--><rect codeLine="85" fill="#FEFECE" filter="url(#f55mw62r4bhl5)" height="48" id="main_ctx" style="stroke:#A80036;stroke-width:1.5;" width="86" x="601.5" y="961"/><ellipse cx="616.5" cy="977" fill="#ADD1B2" rx="11" ry="11" style="stroke:#A80036;stroke-width:1.0;"/><path d="M619.4688,982.6406 Q618.8906,982.9375 618.25,983.0781 Q617.6094,983.2344 616.9063,983.2344 Q614.4063,983.2344 613.0781,981.5938 Q611.7656,979.9375 611.7656,976.8125 Q611.7656,973.6875 613.0781,972.0313 Q614.4063,970.375 616.9063,970.375 Q617.6094,970.375 618.25,970.5313 Q618.9063,970.6875 619.4688,970.9844 L619.4688,973.7031 Q618.8438,973.125 618.25,972.8594 Q617.6563,972.5781 617.0313,972.5781 Q615.6875,972.5781 615,973.6563 Q614.3125,974.7188 614.3125,976.8125 Q614.3125,978.9063 615,979.9844 Q615.6875,981.0469 617.0313,981.0469 Q617.6563,981.0469 618.25,980.7813 Q618.8438,980.5 619.4688,979.9219 L619.4688,982.6406 Z " fill="#000000"/><text fill="#000000" font-family="sans-serif" font-size="12" lengthAdjust="spacing" textLength="54" x="630.5" y="981.1543">main_ctx</text><line style="stroke:#A80036;stroke-width:1.5;" x1="602.5" x2="686.5" y1="993" y2="993"/><line style="stroke:#A80036;stroke-width:1.5;" x1="602.5" x2="686.5" y1="1001" y2="1001"/><!--MD5=[0eaff4990b1f94fcf86ae4216e1ac4e3]
reverse link logger_backend to null_log_backend--><path codeLine="88" d="M172.13,889.68 C145.51,915.93 118.42,942.65 99.9,960.92 " fill="none" id="logger_backend-backto-null_log_backend" style="stroke:#A80036;stroke-width:1.0;"/><polygon fill="none" points="167.23,884.68,186.38,875.62,177.06,894.64,167.23,884.68" style="stroke:#A80036;stroke-width:1.0;"/><text fill="#000000" font-family="sans-serif" font-size="13" lengthAdjust="spacing" textLength="76" x="147.5" y="927.0669">implements</text><!--MD5=[a73e8fd2468924fbb2cdf50f55e1012d]
reverse link logger_backend to syslog_log_backend--><path codeLine="89" d="M259.5,904.3 C259.5,925.59 259.5,946.07 259.5,960.95 " fill="none" id="logger_backend-backto-syslog_log_backend" style="stroke:#A80036;stroke-width:1.0;"/><polygon fill="none" points="252.5,904.25,259.5,884.25,266.5,904.25,252.5,904.25" style="stroke:#A80036;stroke-width:1.0;"/><text fill="#000000" font-family="sans-serif" font-size="13" lengthAdjust="spacing" textLength="76" x="260.5" y="927.0669">implements</text><!--MD5=[8d9c6dc19375559afc8bd6aa3355b3ab]
reverse link logger_backend to ostream_log_backend--><path codeLine="90" d="M347.57,883.79 C378.27,911.77 410.39,941.06 431.93,960.69 " fill="none" id="logger_backend-backto-ostream_log_backend" style="stroke:#A80036;stroke-width:1.0;"/><polygon fill="none" points="342.73,888.85,332.67,870.2,352.16,878.5,342.73,888.85" style="stroke:#A80036;stroke-width:1.0;"/><text fill="#000000" font-family="sans-serif" font-size="13" lengthAdjust="spacing" textLength="76" x="400.5" y="927.0669">implements</text><!--MD5=[4a5a87151aa46c5eb85b33f00235f686]
reverse link ostream_log_backend to asio_ostream_log_backend--><path codeLine="91" d="M457.5,1029.58 C457.5,1043.36 457.5,1058.06 457.5,1069.83 " fill="none" id="ostream_log_backend-backto-asio_ostream_log_backend" style="stroke:#A80036;stroke-width:1.0;"/><polygon fill="none" points="450.5,1029.22,457.5,1009.22,464.5,1029.22,450.5,1029.22" style="stroke:#A80036;stroke-width:1.0;"/><!--MD5=[bce50dd353118fcaf20f6afdfd48c868]
link proxy_log_backend to logger_backend--><path codeLine="92" d="M141.01,596.38 C121.11,621.17 98.72,659.13 114.5,691 C126.76,715.76 147.52,736.48 169.55,753.04 " fill="none" id="proxy_log_backend-to-logger_backend" style="stroke:#A80036;stroke-width:1.0;"/><polygon fill="none" points="173.74,747.42,186.12,764.62,165.72,758.9,173.74,747.42" style="stroke:#A80036;stroke-width:1.0;"/><text fill="#000000" font-family="sans-serif" font-size="13" lengthAdjust="spacing" textLength="76" x="115.5" y="687.0669">implements</text><!--MD5=[bce50dd353118fcaf20f6afdfd48c868]
link proxy_log_backend to logger_backend--><path codeLine="93" d="M180.6112,607.2298 C180.6112,607.2298 207.6,673.68 221.83,708.74 " fill="none" id="proxy_log_backend-logger_backend" style="stroke:#A80036;stroke-width:1.0;"/><polygon fill="#A80036" points="226.81,720.99,227.1372,711.1466,224.9322,716.356,219.7228,714.151,226.81,720.99" style="stroke:#A80036;stroke-width:1.0;"/><line style="stroke:#A80036;stroke-width:1.0;" x1="224.9322" x2="221.92" y1="716.356" y2="708.95"/><polygon fill="#A80036" points="176.1,596.11,174.649,603.1736,180.6112,607.2298,182.0622,600.1661,176.1,596.11" style="stroke:#A80036;stroke-width:1.0;"/><text fill="#000000" font-family="sans-serif" font-size="13" lengthAdjust="spacing" textLength="80" x="213.5" y="687.0669">delegates to</text><!--MD5=[0d1aeeafe723003256e137e02b7694c4]
link log_entry to log_event_severity--><path codeLine="95" d="M453.62,606.17 C456.43,638.67 460.64,687.38 464.15,728.03 " fill="none" id="log_entry-to-log_event_severity" style="stroke:#A80036;stroke-width:1.0;"/><polygon fill="#A80036" points="464.62,733.45,467.8322,724.1397,464.1906,728.4685,459.8618,724.8268,464.62,733.45" style="stroke:#A80036;stroke-width:1.0;"/><text fill="#000000" font-family="sans-serif" font-size="13" lengthAdjust="spacing" textLength="23" x="461.5" y="687.0669">has</text><!--MD5=[dae49d4571fab21156e7d877f9b66f62]
link log_entry to logger_backend--><path codeLine="96" d="M424.65,606.13 C406.88,630.53 382.43,663.23 359.5,691 C352.08,699.99 344.17,709.24 336.18,718.38 " fill="none" id="log_entry-to-logger_backend" style="stroke:#A80036;stroke-width:1.0;"/><polygon fill="#A80036" points="332.75,722.29,341.6946,718.1676,336.0496,718.5333,335.6839,712.8883,332.75,722.29" style="stroke:#A80036;stroke-width:1.0;"/><text fill="#000000" font-family="sans-serif" font-size="13" lengthAdjust="spacing" textLength="30" x="373.5" y="687.0669">uses</text><!--MD5=[559e8b3a98f8432e9b2963b21bcee07f]
link basic_logger to log_entry--><path codeLine="98" d="M450.5,417.35 C450.5,449.9 450.5,494.6 450.5,526.84 " fill="none" id="basic_logger-to-log_entry" style="stroke:#A80036;stroke-width:1.0;stroke-dasharray:7.0,7.0;"/><polygon fill="#A80036" points="450.5,531.9,454.5,522.9,450.5,526.9,446.5,522.9,450.5,531.9" style="stroke:#A80036;stroke-width:1.0;"/><text fill="#000000" font-family="sans-serif" font-size="13" lengthAdjust="spacing" textLength="75" x="451.5" y="460.0669">instantiates</text><!--MD5=[51de6b5a84accedd03f85e34445c289e]
link basic_logger to logger_backend--><path codeLine="99" d="M416.0799,427.3834 C416.0799,427.3834 389.35,471.88 378.5,494 C337.16,578.25 336.41,603.49 302.5,691 C300.27,696.76 297.97,702.68 295.65,708.65 " fill="none" id="basic_logger-logger_backend" style="stroke:#A80036;stroke-width:1.0;"/><polygon fill="#A80036" points="290.88,720.94,297.8645,713.9962,292.6885,716.2785,290.4062,711.1025,290.88,720.94" style="stroke:#A80036;stroke-width:1.0;"/><line style="stroke:#A80036;stroke-width:1.0;" x1="292.6885" x2="295.59" y1="716.2785" y2="708.825"/><polygon fill="#FFFFFF" points="422.46,417.22,415.8822,420.175,416.0799,427.3834,422.6577,424.4284,422.46,417.22" style="stroke:#A80036;stroke-width:1.0;"/><!--MD5=[770e60e3d0679a224a64d1e413dad22e]
link logger to basic_logger--><path codeLine="100" d="M450.5,270.08 C450.5,283.36 450.5,297.23 450.5,310.34 " fill="none" id="logger-to-basic_logger" style="stroke:#A80036;stroke-width:1.0;"/><polygon fill="none" points="457.5,310.75,450.5,330.75,443.5,310.75,457.5,310.75" style="stroke:#A80036;stroke-width:1.0;"/><!--MD5=[03eef140ce72ffd06600855e6af43060]
reverse link basic_logger to named_logging_object--><path codeLine="101" d="M518.07,430.36 C524.09,435.85 529.99,441.45 535.5,447 C549.96,461.56 564.61,477.98 578.11,493.91 " fill="none" id="basic_logger-backto-named_logging_object" style="stroke:#A80036;stroke-width:1.0;"/><polygon fill="none" points="513.35,435.53,503.01,417.03,522.63,425.04,513.35,435.53" style="stroke:#A80036;stroke-width:1.0;"/><!--MD5=[c8eef39a2b1399b621578145283c03cb]
reverse link named_logging_object to main_ctx_object--><path codeLine="102" d="M639.76,664.3 C641.2,706.06 642.78,751.69 643.7,778.39 " fill="none" id="named_logging_object-backto-main_ctx_object" style="stroke:#A80036;stroke-width:1.0;"/><polygon fill="none" points="632.76,664.43,639.06,644.2,646.75,663.95,632.76,664.43" style="stroke:#A80036;stroke-width:1.0;"/><!--MD5=[affbe8c2beb5bde5b13e20d98769397a]
link main_ctx_object to main_ctx--><path codeLine="103" d="M644.5,826.73 C644.5,859.76 644.5,920.24 644.5,955.8 " fill="none" id="main_ctx_object-to-main_ctx" style="stroke:#A80036;stroke-width:1.0;"/><polygon fill="#A80036" points="644.5,960.86,648.5,951.86,644.5,955.86,640.5,951.86,644.5,960.86" style="stroke:#A80036;stroke-width:1.0;"/><!--MD5=[4f66ffc947a5c5555513431fef06535b]
link root_logger to logger--><path codeLine="104" d="M580.55,55.02 C560.81,75.02 531.77,104.95 507.5,132 C506.17,133.48 504.84,134.98 503.49,136.5 " fill="none" id="root_logger-to-logger" style="stroke:#A80036;stroke-width:1.0;"/><polygon fill="none" points="508.67,141.21,490.27,151.73,498.1,132.04,508.67,141.21" style="stroke:#A80036;stroke-width:1.0;"/><!--MD5=[4cc484572189e46357cf002b4b560989]
link root_logger to program_args--><path codeLine="105" d="M627.19,55.01 C653.34,80.4 696.09,121.91 729.16,154.03 " fill="none" id="root_logger-to-program_args" style="stroke:#A80036;stroke-width:1.0;"/><polygon fill="#A80036" points="733.14,157.9,729.4748,148.7585,729.5548,154.4148,723.8985,154.4948,733.14,157.9" style="stroke:#A80036;stroke-width:1.0;"/><text fill="#000000" font-family="sans-serif" font-size="13" lengthAdjust="spacing" textLength="30" x="676.5" y="98.0669">uses</text><!--MD5=[dae7f5397f0a7c4ea2fa59f1925911e9]
link root_logger to root_logger_options--><path codeLine="106" d="M603.5,55.01 C603.5,85.37 603.5,138.82 603.5,171.65 " fill="none" id="root_logger-to-root_logger_options" style="stroke:#A80036;stroke-width:1.0;"/><polygon fill="#A80036" points="603.5,176.73,607.5,167.73,603.5,171.73,599.5,167.73,603.5,176.73" style="stroke:#A80036;stroke-width:1.0;"/><text fill="#000000" font-family="sans-serif" font-size="13" lengthAdjust="spacing" textLength="30" x="604.5" y="98.0669">uses</text><!--MD5=[1e6f7738b937bab4cb5a8d427d5adb33]
@startuml
enum log_event_severity {
    trace
    debug
    stat
    info
    warning
    error
    fatal
}

interface logger_backend {
    +type_id() : identifier
    +set_description()
    +enter_scope()
    +leave_scope()
    +log_chart_sample(...)
    +begin_message(...)
    +add_argument(...)
    +finish_message(...)
    +finish_log()
}

class null_log_backend {
}

class syslog_log_backend {
}

class ostream_log_backend {
}

class asio_ostream_log_backend {
}

class proxy_log_backend <<Proxy>> {
}

class log_entry {
    +set_format(...)
    +arg(...)
}

class basic_logger {
    +instance_id() : identifier
    +backend()
    +make_log_entry()
}

class logger {
    +log()
    +error()
    +warning()
    +info()
    +stat()
    +debug()
    +trace()
}

class named_logging_object {
    +log()
    +log_fatal()
    +log_error()
    +log_warning()
    +log_info()
    +log_stat()
    +log_debug()
    +log_trace()
}

class root_logger {
}

class root_logger_options {
}

class program_args {
    +begin()
    +end()
    +find()
}

class main_ctx_object {
}

class main_ctx {
}

logger_backend <|- - null_log_backend : implements
logger_backend <|- - syslog_log_backend : implements
logger_backend <|- - ostream_log_backend : implements
ostream_log_backend <|- - asio_ostream_log_backend
proxy_log_backend - -|> logger_backend : implements
proxy_log_backend *- -> logger_backend : delegates to

log_entry - -> log_event_severity : has
log_entry - -> logger_backend : uses

basic_logger ..> log_entry : instantiates
basic_logger o- -> logger_backend
logger - -|> basic_logger
basic_logger <|- - named_logging_object
named_logging_object <|- -  main_ctx_object
main_ctx_object - -> main_ctx
root_logger - -|> logger
root_logger - -> program_args : uses
root_logger - -> root_logger_options : uses
@enduml

PlantUML version 1.2021.3(Mon Mar 22 17:53:19 CET 2021)
(GPL source distribution)
Java Runtime: OpenJDK Runtime Environment
JVM: OpenJDK 64-Bit Server VM
Default Encoding: UTF-8
Language: en
Country: US
--></g></svg>
