<?xml version="1.0" encoding="UTF-8" standalone="no"?><svg xmlns="http://www.w3.org/2000/svg" xmlns:xlink="http://www.w3.org/1999/xlink" contentScriptType="application/ecmascript" contentStyleType="text/css" height="836px" preserveAspectRatio="none" style="width:928px;height:836px;" version="1.1" viewBox="0 0 928 836" width="928px" zoomAndPan="magnify"><defs><filter height="300%" id="f1t5zl5y8qq2i8" width="300%" x="-1" y="-1"><feGaussianBlur result="blurOut" stdDeviation="2.0"/><feColorMatrix in="blurOut" result="blurOut2" type="matrix" values="0 0 0 0 0 0 0 0 0 0 0 0 0 0 0 0 0 0 .4 0"/><feOffset dx="4.0" dy="4.0" in="blurOut2" result="blurOut3"/><feBlend in="SourceGraphic" in2="blurOut3" mode="normal"/></filter></defs><g><!--MD5=[5253f3a7972396ead189a6c5b2e37396]
class program_arg--><rect codeLine="1" fill="#FEFECE" filter="url(#f1t5zl5y8qq2i8)" height="99.2188" id="program_arg" style="stroke:#A80036;stroke-width:1.5;" width="112" x="56.86" y="193"/><ellipse cx="71.86" cy="209" fill="#ADD1B2" rx="11" ry="11" style="stroke:#A80036;stroke-width:1.0;"/><path d="M74.8288,214.6406 Q74.2506,214.9375 73.61,215.0781 Q72.9694,215.2344 72.2663,215.2344 Q69.7663,215.2344 68.4381,213.5938 Q67.1256,211.9375 67.1256,208.8125 Q67.1256,205.6875 68.4381,204.0313 Q69.7663,202.375 72.2663,202.375 Q72.9694,202.375 73.61,202.5313 Q74.2663,202.6875 74.8288,202.9844 L74.8288,205.7031 Q74.2038,205.125 73.61,204.8594 Q73.0163,204.5781 72.3913,204.5781 Q71.0475,204.5781 70.36,205.6563 Q69.6725,206.7188 69.6725,208.8125 Q69.6725,210.9063 70.36,211.9844 Q71.0475,213.0469 72.3913,213.0469 Q73.0163,213.0469 73.61,212.7813 Q74.2038,212.5 74.8288,211.9219 L74.8288,214.6406 Z " fill="#000000"/><text fill="#000000" font-family="sans-serif" font-size="12" lengthAdjust="spacing" textLength="80" x="85.86" y="213.1543">program_arg</text><line style="stroke:#A80036;stroke-width:1.5;" x1="57.86" x2="167.86" y1="225" y2="225"/><line style="stroke:#A80036;stroke-width:1.5;" x1="57.86" x2="167.86" y1="233" y2="233"/><ellipse cx="67.86" cy="244" fill="#84BE84" rx="3" ry="3" style="stroke:#038048;stroke-width:1.0;"/><text fill="#000000" font-family="sans-serif" font-size="11" lengthAdjust="spacing" textLength="26" x="76.86" y="247.2104">get()</text><ellipse cx="67.86" cy="256.8047" fill="#84BE84" rx="3" ry="3" style="stroke:#038048;stroke-width:1.0;"/><text fill="#000000" font-family="sans-serif" font-size="11" lengthAdjust="spacing" textLength="41" x="76.86" y="260.0151">parse()</text><ellipse cx="67.86" cy="269.6094" fill="#84BE84" rx="3" ry="3" style="stroke:#038048;stroke-width:1.0;"/><text fill="#000000" font-family="sans-serif" font-size="11" lengthAdjust="spacing" textLength="33" x="76.86" y="272.8198">prev()</text><ellipse cx="67.86" cy="282.4141" fill="#84BE84" rx="3" ry="3" style="stroke:#038048;stroke-width:1.0;"/><text fill="#000000" font-family="sans-serif" font-size="11" lengthAdjust="spacing" textLength="32" x="76.86" y="285.6245">next()</text><!--MD5=[26c0fe580dde9ceb96919a64ccc89f08]
class program_args--><rect codeLine="8" fill="#FEFECE" filter="url(#f1t5zl5y8qq2i8)" height="124.8281" id="program_args" style="stroke:#A80036;stroke-width:1.5;" width="119" x="53.36" y="7"/><ellipse cx="68.36" cy="23" fill="#ADD1B2" rx="11" ry="11" style="stroke:#A80036;stroke-width:1.0;"/><path d="M71.3288,28.6406 Q70.7506,28.9375 70.11,29.0781 Q69.4694,29.2344 68.7663,29.2344 Q66.2663,29.2344 64.9381,27.5938 Q63.6256,25.9375 63.6256,22.8125 Q63.6256,19.6875 64.9381,18.0313 Q66.2663,16.375 68.7663,16.375 Q69.4694,16.375 70.11,16.5313 Q70.7663,16.6875 71.3288,16.9844 L71.3288,19.7031 Q70.7038,19.125 70.11,18.8594 Q69.5163,18.5781 68.8913,18.5781 Q67.5475,18.5781 66.86,19.6563 Q66.1725,20.7188 66.1725,22.8125 Q66.1725,24.9063 66.86,25.9844 Q67.5475,27.0469 68.8913,27.0469 Q69.5163,27.0469 70.11,26.7813 Q70.7038,26.5 71.3288,25.9219 L71.3288,28.6406 Z " fill="#000000"/><text fill="#000000" font-family="sans-serif" font-size="12" lengthAdjust="spacing" textLength="87" x="82.36" y="27.1543">program_args</text><line style="stroke:#A80036;stroke-width:1.5;" x1="54.36" x2="171.36" y1="39" y2="39"/><line style="stroke:#A80036;stroke-width:1.5;" x1="54.36" x2="171.36" y1="47" y2="47"/><ellipse cx="64.36" cy="58" fill="#84BE84" rx="3" ry="3" style="stroke:#038048;stroke-width:1.0;"/><text fill="#000000" font-family="sans-serif" font-size="11" lengthAdjust="spacing" textLength="43" x="73.36" y="61.2104">empty()</text><ellipse cx="64.36" cy="70.8047" fill="#84BE84" rx="3" ry="3" style="stroke:#038048;stroke-width:1.0;"/><text fill="#000000" font-family="sans-serif" font-size="11" lengthAdjust="spacing" textLength="30" x="73.36" y="74.0151">size()</text><ellipse cx="64.36" cy="83.6094" fill="#84BE84" rx="3" ry="3" style="stroke:#038048;stroke-width:1.0;"/><text fill="#000000" font-family="sans-serif" font-size="11" lengthAdjust="spacing" textLength="64" x="73.36" y="86.8198">command()</text><ellipse cx="64.36" cy="96.4141" fill="#84BE84" rx="3" ry="3" style="stroke:#038048;stroke-width:1.0;"/><text fill="#000000" font-family="sans-serif" font-size="11" lengthAdjust="spacing" textLength="39" x="73.36" y="99.6245">begin()</text><ellipse cx="64.36" cy="109.2188" fill="#84BE84" rx="3" ry="3" style="stroke:#038048;stroke-width:1.0;"/><text fill="#000000" font-family="sans-serif" font-size="11" lengthAdjust="spacing" textLength="29" x="73.36" y="112.4292">end()</text><ellipse cx="64.36" cy="122.0234" fill="#84BE84" rx="3" ry="3" style="stroke:#038048;stroke-width:1.0;"/><text fill="#000000" font-family="sans-serif" font-size="11" lengthAdjust="spacing" textLength="31" x="73.36" y="125.2339">first()</text><!--MD5=[9bf3ab64420134ef66198669c6415fda]
class application_config--><rect codeLine="17" fill="#FEFECE" filter="url(#f1t5zl5y8qq2i8)" height="73.6094" id="application_config" style="stroke:#A80036;stroke-width:1.5;" width="145" x="294.36" y="205.5"/><ellipse cx="309.36" cy="221.5" fill="#ADD1B2" rx="11" ry="11" style="stroke:#A80036;stroke-width:1.0;"/><path d="M312.3288,227.1406 Q311.7506,227.4375 311.11,227.5781 Q310.4694,227.7344 309.7663,227.7344 Q307.2663,227.7344 305.9381,226.0938 Q304.6256,224.4375 304.6256,221.3125 Q304.6256,218.1875 305.9381,216.5313 Q307.2663,214.875 309.7663,214.875 Q310.4694,214.875 311.11,215.0313 Q311.7663,215.1875 312.3288,215.4844 L312.3288,218.2031 Q311.7038,217.625 311.11,217.3594 Q310.5163,217.0781 309.8913,217.0781 Q308.5475,217.0781 307.86,218.1563 Q307.1725,219.2188 307.1725,221.3125 Q307.1725,223.4063 307.86,224.4844 Q308.5475,225.5469 309.8913,225.5469 Q310.5163,225.5469 311.11,225.2813 Q311.7038,225 312.3288,224.4219 L312.3288,227.1406 Z " fill="#000000"/><text fill="#000000" font-family="sans-serif" font-size="12" lengthAdjust="spacing" textLength="113" x="323.36" y="225.6543">application_config</text><line style="stroke:#A80036;stroke-width:1.5;" x1="295.36" x2="438.36" y1="237.5" y2="237.5"/><line style="stroke:#A80036;stroke-width:1.5;" x1="295.36" x2="438.36" y1="245.5" y2="245.5"/><ellipse cx="305.36" cy="256.5" fill="#84BE84" rx="3" ry="3" style="stroke:#038048;stroke-width:1.0;"/><text fill="#000000" font-family="sans-serif" font-size="11" lengthAdjust="spacing" textLength="54" x="314.36" y="259.7104">is_set(...)</text><ellipse cx="305.36" cy="269.3047" fill="#84BE84" rx="3" ry="3" style="stroke:#038048;stroke-width:1.0;"/><text fill="#000000" font-family="sans-serif" font-size="11" lengthAdjust="spacing" textLength="48" x="314.36" y="272.5151">fetch(...)</text><!--MD5=[a25c9a27c62d20652ab2fde66a4a346b]
class logger--><rect codeLine="22" fill="#FEFECE" filter="url(#f1t5zl5y8qq2i8)" height="60.8047" id="logger" style="stroke:#A80036;stroke-width:1.5;" width="72" x="545.86" y="212"/><ellipse cx="560.86" cy="228" fill="#ADD1B2" rx="11" ry="11" style="stroke:#A80036;stroke-width:1.0;"/><path d="M563.8287,233.6406 Q563.2506,233.9375 562.61,234.0781 Q561.9694,234.2344 561.2662,234.2344 Q558.7662,234.2344 557.4381,232.5938 Q556.1256,230.9375 556.1256,227.8125 Q556.1256,224.6875 557.4381,223.0313 Q558.7662,221.375 561.2662,221.375 Q561.9694,221.375 562.61,221.5313 Q563.2662,221.6875 563.8287,221.9844 L563.8287,224.7031 Q563.2037,224.125 562.61,223.8594 Q562.0162,223.5781 561.3912,223.5781 Q560.0475,223.5781 559.36,224.6563 Q558.6725,225.7188 558.6725,227.8125 Q558.6725,229.9063 559.36,230.9844 Q560.0475,232.0469 561.3912,232.0469 Q562.0162,232.0469 562.61,231.7813 Q563.2037,231.5 563.8287,230.9219 L563.8287,233.6406 Z " fill="#000000"/><text fill="#000000" font-family="sans-serif" font-size="12" lengthAdjust="spacing" textLength="40" x="574.86" y="232.1543">logger</text><line style="stroke:#A80036;stroke-width:1.5;" x1="546.86" x2="616.86" y1="244" y2="244"/><line style="stroke:#A80036;stroke-width:1.5;" x1="546.86" x2="616.86" y1="252" y2="252"/><ellipse cx="556.86" cy="263" fill="#84BE84" rx="3" ry="3" style="stroke:#038048;stroke-width:1.0;"/><text fill="#000000" font-family="sans-serif" font-size="11" lengthAdjust="spacing" textLength="25" x="565.86" y="266.2104">log()</text><!--MD5=[ba2829e5773b5243b3dd677e140458ff]
class process_watchdog--><rect codeLine="26" fill="#FEFECE" filter="url(#f1t5zl5y8qq2i8)" height="86.4141" id="process_watchdog" style="stroke:#A80036;stroke-width:1.5;" width="150" x="183.86" y="653.5"/><ellipse cx="199.31" cy="669.5" fill="#ADD1B2" rx="11" ry="11" style="stroke:#A80036;stroke-width:1.0;"/><path d="M202.2788,675.1406 Q201.7006,675.4375 201.06,675.5781 Q200.4194,675.7344 199.7163,675.7344 Q197.2163,675.7344 195.8881,674.0938 Q194.5756,672.4375 194.5756,669.3125 Q194.5756,666.1875 195.8881,664.5313 Q197.2163,662.875 199.7163,662.875 Q200.4194,662.875 201.06,663.0313 Q201.7163,663.1875 202.2788,663.4844 L202.2788,666.2031 Q201.6538,665.625 201.06,665.3594 Q200.4663,665.0781 199.8413,665.0781 Q198.4975,665.0781 197.81,666.1563 Q197.1225,667.2188 197.1225,669.3125 Q197.1225,671.4063 197.81,672.4844 Q198.4975,673.5469 199.8413,673.5469 Q200.4663,673.5469 201.06,673.2813 Q201.6538,673 202.2788,672.4219 L202.2788,675.1406 Z " fill="#000000"/><text fill="#000000" font-family="sans-serif" font-size="12" lengthAdjust="spacing" textLength="117" x="213.41" y="673.6543">process_watchdog</text><line style="stroke:#A80036;stroke-width:1.5;" x1="184.86" x2="332.86" y1="685.5" y2="685.5"/><line style="stroke:#A80036;stroke-width:1.5;" x1="184.86" x2="332.86" y1="693.5" y2="693.5"/><ellipse cx="194.86" cy="704.5" fill="#84BE84" rx="3" ry="3" style="stroke:#038048;stroke-width:1.0;"/><text fill="#000000" font-family="sans-serif" font-size="11" lengthAdjust="spacing" textLength="108" x="203.86" y="707.7104">declare_initialized()</text><ellipse cx="194.86" cy="717.3047" fill="#84BE84" rx="3" ry="3" style="stroke:#038048;stroke-width:1.0;"/><text fill="#000000" font-family="sans-serif" font-size="11" lengthAdjust="spacing" textLength="71" x="203.86" y="720.5151">notify_alive()</text><ellipse cx="194.86" cy="730.1094" fill="#84BE84" rx="3" ry="3" style="stroke:#038048;stroke-width:1.0;"/><text fill="#000000" font-family="sans-serif" font-size="11" lengthAdjust="spacing" textLength="124" x="203.86" y="733.3198">announce_shutdown()</text><!--MD5=[d5dbf08b2c77d697550096958244124c]
class data_compressor--><rect codeLine="32" fill="#FEFECE" filter="url(#f1t5zl5y8qq2i8)" height="73.6094" id="data_compressor" style="stroke:#A80036;stroke-width:1.5;" width="141" x="653.36" y="205.5"/><ellipse cx="668.36" cy="221.5" fill="#ADD1B2" rx="11" ry="11" style="stroke:#A80036;stroke-width:1.0;"/><path d="M671.3287,227.1406 Q670.7506,227.4375 670.11,227.5781 Q669.4694,227.7344 668.7662,227.7344 Q666.2662,227.7344 664.9381,226.0938 Q663.6256,224.4375 663.6256,221.3125 Q663.6256,218.1875 664.9381,216.5313 Q666.2662,214.875 668.7662,214.875 Q669.4694,214.875 670.11,215.0313 Q670.7662,215.1875 671.3287,215.4844 L671.3287,218.2031 Q670.7037,217.625 670.11,217.3594 Q669.5162,217.0781 668.8912,217.0781 Q667.5475,217.0781 666.86,218.1563 Q666.1725,219.2188 666.1725,221.3125 Q666.1725,223.4063 666.86,224.4844 Q667.5475,225.5469 668.8912,225.5469 Q669.5162,225.5469 670.11,225.2813 Q670.7037,225 671.3287,224.4219 L671.3287,227.1406 Z " fill="#000000"/><text fill="#000000" font-family="sans-serif" font-size="12" lengthAdjust="spacing" textLength="109" x="682.36" y="225.6543">data_compressor</text><line style="stroke:#A80036;stroke-width:1.5;" x1="654.36" x2="793.36" y1="237.5" y2="237.5"/><line style="stroke:#A80036;stroke-width:1.5;" x1="654.36" x2="793.36" y1="245.5" y2="245.5"/><ellipse cx="664.36" cy="256.5" fill="#84BE84" rx="3" ry="3" style="stroke:#038048;stroke-width:1.0;"/><text fill="#000000" font-family="sans-serif" font-size="11" lengthAdjust="spacing" textLength="77" x="673.36" y="259.7104">compress(...)</text><ellipse cx="664.36" cy="269.3047" fill="#84BE84" rx="3" ry="3" style="stroke:#038048;stroke-width:1.0;"/><text fill="#000000" font-family="sans-serif" font-size="11" lengthAdjust="spacing" textLength="91" x="673.36" y="272.5151">decompress(...)</text><!--MD5=[35c25ce0d214cf7e02cfe36892f9f01f]
class build_info--><rect codeLine="37" fill="#FEFECE" filter="url(#f1t5zl5y8qq2i8)" height="112.0234" id="build_info" style="stroke:#A80036;stroke-width:1.5;" width="127" x="369.36" y="640.5"/><ellipse cx="400.56" cy="656.5" fill="#ADD1B2" rx="11" ry="11" style="stroke:#A80036;stroke-width:1.0;"/><path d="M403.5288,662.1406 Q402.9506,662.4375 402.31,662.5781 Q401.6694,662.7344 400.9663,662.7344 Q398.4663,662.7344 397.1381,661.0938 Q395.8256,659.4375 395.8256,656.3125 Q395.8256,653.1875 397.1381,651.5313 Q398.4663,649.875 400.9663,649.875 Q401.6694,649.875 402.31,650.0313 Q402.9663,650.1875 403.5288,650.4844 L403.5288,653.2031 Q402.9038,652.625 402.31,652.3594 Q401.7163,652.0781 401.0913,652.0781 Q399.7475,652.0781 399.06,653.1563 Q398.3725,654.2188 398.3725,656.3125 Q398.3725,658.4063 399.06,659.4844 Q399.7475,660.5469 401.0913,660.5469 Q401.7163,660.5469 402.31,660.2813 Q402.9038,660 403.5288,659.4219 L403.5288,662.1406 Z " fill="#000000"/><text fill="#000000" font-family="sans-serif" font-size="12" lengthAdjust="spacing" textLength="59" x="418.16" y="660.6543">build_info</text><line style="stroke:#A80036;stroke-width:1.5;" x1="370.36" x2="495.36" y1="672.5" y2="672.5"/><line style="stroke:#A80036;stroke-width:1.5;" x1="370.36" x2="495.36" y1="680.5" y2="680.5"/><ellipse cx="380.36" cy="691.5" fill="#84BE84" rx="3" ry="3" style="stroke:#038048;stroke-width:1.0;"/><text fill="#000000" font-family="sans-serif" font-size="11" lengthAdjust="spacing" textLength="89" x="389.36" y="694.7104">version_major()</text><ellipse cx="380.36" cy="704.3047" fill="#84BE84" rx="3" ry="3" style="stroke:#038048;stroke-width:1.0;"/><text fill="#000000" font-family="sans-serif" font-size="11" lengthAdjust="spacing" textLength="89" x="389.36" y="707.5151">version_minor()</text><ellipse cx="380.36" cy="717.1094" fill="#84BE84" rx="3" ry="3" style="stroke:#038048;stroke-width:1.0;"/><text fill="#000000" font-family="sans-serif" font-size="11" lengthAdjust="spacing" textLength="87" x="389.36" y="720.3198">version_patch()</text><ellipse cx="380.36" cy="729.9141" fill="#84BE84" rx="3" ry="3" style="stroke:#038048;stroke-width:1.0;"/><text fill="#000000" font-family="sans-serif" font-size="11" lengthAdjust="spacing" textLength="98" x="389.36" y="733.1245">version_commit()</text><ellipse cx="380.36" cy="742.7188" fill="#84BE84" rx="3" ry="3" style="stroke:#038048;stroke-width:1.0;"/><text fill="#000000" font-family="sans-serif" font-size="11" lengthAdjust="spacing" textLength="101" x="389.36" y="745.9292">version_at_least()</text><!--MD5=[cf7d0fbe94a485551b4c3ea1e3869ea0]
class system_info--><rect codeLine="45" fill="#FEFECE" filter="url(#f1t5zl5y8qq2i8)" height="252.875" id="system_info" style="stroke:#A80036;stroke-width:1.5;" width="171" x="531.36" y="570"/><ellipse cx="576.11" cy="586" fill="#ADD1B2" rx="11" ry="11" style="stroke:#A80036;stroke-width:1.0;"/><path d="M579.0788,591.6406 Q578.5006,591.9375 577.86,592.0781 Q577.2194,592.2344 576.5163,592.2344 Q574.0163,592.2344 572.6881,590.5938 Q571.3756,588.9375 571.3756,585.8125 Q571.3756,582.6875 572.6881,581.0313 Q574.0163,579.375 576.5163,579.375 Q577.2194,579.375 577.86,579.5313 Q578.5163,579.6875 579.0788,579.9844 L579.0788,582.7031 Q578.4538,582.125 577.86,581.8594 Q577.2663,581.5781 576.6413,581.5781 Q575.2975,581.5781 574.61,582.6563 Q573.9225,583.7188 573.9225,585.8125 Q573.9225,587.9063 574.61,588.9844 Q575.2975,590.0469 576.6413,590.0469 Q577.2663,590.0469 577.86,589.7813 Q578.4538,589.5 579.0788,588.9219 L579.0788,591.6406 Z " fill="#000000"/><text fill="#000000" font-family="sans-serif" font-size="12" lengthAdjust="spacing" textLength="73" x="596.61" y="590.1543">system_info</text><line style="stroke:#A80036;stroke-width:1.5;" x1="532.36" x2="701.36" y1="602" y2="602"/><line style="stroke:#A80036;stroke-width:1.5;" x1="532.36" x2="701.36" y1="610" y2="610"/><ellipse cx="542.36" cy="621" fill="#84BE84" rx="3" ry="3" style="stroke:#038048;stroke-width:1.0;"/><text fill="#000000" font-family="sans-serif" font-size="11" lengthAdjust="spacing" textLength="49" x="551.36" y="624.2104">host_id()</text><ellipse cx="542.36" cy="633.8047" fill="#84BE84" rx="3" ry="3" style="stroke:#038048;stroke-width:1.0;"/><text fill="#000000" font-family="sans-serif" font-size="11" lengthAdjust="spacing" textLength="110" x="551.36" y="637.0151">hostname() : string</text><ellipse cx="542.36" cy="646.6094" fill="#84BE84" rx="3" ry="3" style="stroke:#038048;stroke-width:1.0;"/><text fill="#000000" font-family="sans-serif" font-size="11" lengthAdjust="spacing" textLength="106" x="551.36" y="649.8198">uptime() : duration</text><ellipse cx="542.36" cy="659.4141" fill="#84BE84" rx="3" ry="3" style="stroke:#038048;stroke-width:1.0;"/><text fill="#000000" font-family="sans-serif" font-size="11" lengthAdjust="spacing" textLength="145" x="551.36" y="662.6245">cpu_concurrent_threads()</text><ellipse cx="542.36" cy="672.2188" fill="#84BE84" rx="3" ry="3" style="stroke:#038048;stroke-width:1.0;"/><text fill="#000000" font-family="sans-serif" font-size="11" lengthAdjust="spacing" textLength="115" x="551.36" y="675.4292">current_processes()</text><ellipse cx="542.36" cy="685.0234" fill="#84BE84" rx="3" ry="3" style="stroke:#038048;stroke-width:1.0;"/><text fill="#000000" font-family="sans-serif" font-size="11" lengthAdjust="spacing" textLength="120" x="551.36" y="688.2339">short_average_load()</text><ellipse cx="542.36" cy="697.8281" fill="#84BE84" rx="3" ry="3" style="stroke:#038048;stroke-width:1.0;"/><text fill="#000000" font-family="sans-serif" font-size="11" lengthAdjust="spacing" textLength="114" x="551.36" y="701.0386">long_average_load()</text><ellipse cx="542.36" cy="710.6328" fill="#84BE84" rx="3" ry="3" style="stroke:#038048;stroke-width:1.0;"/><text fill="#000000" font-family="sans-serif" font-size="11" lengthAdjust="spacing" textLength="117" x="551.36" y="713.8433">memory_page_size()</text><ellipse cx="542.36" cy="723.4375" fill="#84BE84" rx="3" ry="3" style="stroke:#038048;stroke-width:1.0;"/><text fill="#000000" font-family="sans-serif" font-size="11" lengthAdjust="spacing" textLength="90" x="551.36" y="726.6479">total_ram_size()</text><ellipse cx="542.36" cy="736.2422" fill="#84BE84" rx="3" ry="3" style="stroke:#038048;stroke-width:1.0;"/><text fill="#000000" font-family="sans-serif" font-size="11" lengthAdjust="spacing" textLength="88" x="551.36" y="739.4526">free_ram_size()</text><ellipse cx="542.36" cy="749.0469" fill="#84BE84" rx="3" ry="3" style="stroke:#038048;stroke-width:1.0;"/><text fill="#000000" font-family="sans-serif" font-size="11" lengthAdjust="spacing" textLength="97" x="551.36" y="752.2573">total_swap_size()</text><ellipse cx="542.36" cy="761.8516" fill="#84BE84" rx="3" ry="3" style="stroke:#038048;stroke-width:1.0;"/><text fill="#000000" font-family="sans-serif" font-size="11" lengthAdjust="spacing" textLength="95" x="551.36" y="765.062">free_swap_size()</text><ellipse cx="542.36" cy="774.6563" fill="#84BE84" rx="3" ry="3" style="stroke:#038048;stroke-width:1.0;"/><text fill="#000000" font-family="sans-serif" font-size="11" lengthAdjust="spacing" textLength="135" x="551.36" y="777.8667">thermal_sensor_count()</text><ellipse cx="542.36" cy="787.4609" fill="#84BE84" rx="3" ry="3" style="stroke:#038048;stroke-width:1.0;"/><text fill="#000000" font-family="sans-serif" font-size="11" lengthAdjust="spacing" textLength="137" x="551.36" y="790.6714">sensor_temperature(...)</text><ellipse cx="542.36" cy="800.2656" fill="#84BE84" rx="3" ry="3" style="stroke:#038048;stroke-width:1.0;"/><text fill="#000000" font-family="sans-serif" font-size="11" lengthAdjust="spacing" textLength="127" x="551.36" y="803.4761">cooling_device_count()</text><ellipse cx="542.36" cy="813.0703" fill="#84BE84" rx="3" ry="3" style="stroke:#038048;stroke-width:1.0;"/><text fill="#000000" font-family="sans-serif" font-size="11" lengthAdjust="spacing" textLength="137" x="551.36" y="816.2808">coolind_device_state(...)</text><!--MD5=[8b681ebc789d418b74bf48ad256c08ed]
class user_info--><rect codeLine="64" fill="#FEFECE" filter="url(#f1t5zl5y8qq2i8)" height="73.6094" id="user_info" style="stroke:#A80036;stroke-width:1.5;" width="118" x="737.86" y="659.5"/><ellipse cx="765.91" cy="675.5" fill="#ADD1B2" rx="11" ry="11" style="stroke:#A80036;stroke-width:1.0;"/><path d="M768.8787,681.1406 Q768.3006,681.4375 767.66,681.5781 Q767.0194,681.7344 766.3162,681.7344 Q763.8162,681.7344 762.4881,680.0938 Q761.1756,678.4375 761.1756,675.3125 Q761.1756,672.1875 762.4881,670.5313 Q763.8162,668.875 766.3162,668.875 Q767.0194,668.875 767.66,669.0313 Q768.3162,669.1875 768.8787,669.4844 L768.8787,672.2031 Q768.2537,671.625 767.66,671.3594 Q767.0662,671.0781 766.4412,671.0781 Q765.0975,671.0781 764.41,672.1563 Q763.7225,673.2188 763.7225,675.3125 Q763.7225,677.4063 764.41,678.4844 Q765.0975,679.5469 766.4412,679.5469 Q767.0662,679.5469 767.66,679.2813 Q768.2537,679 768.8787,678.4219 L768.8787,681.1406 Z " fill="#000000"/><text fill="#000000" font-family="sans-serif" font-size="12" lengthAdjust="spacing" textLength="57" x="782.81" y="679.6543">user_info</text><line style="stroke:#A80036;stroke-width:1.5;" x1="738.86" x2="854.86" y1="691.5" y2="691.5"/><line style="stroke:#A80036;stroke-width:1.5;" x1="738.86" x2="854.86" y1="699.5" y2="699.5"/><ellipse cx="748.86" cy="710.5" fill="#84BE84" rx="3" ry="3" style="stroke:#038048;stroke-width:1.0;"/><text fill="#000000" font-family="sans-serif" font-size="11" lengthAdjust="spacing" textLength="73" x="757.86" y="713.7104">login_name()</text><ellipse cx="748.86" cy="723.3047" fill="#84BE84" rx="3" ry="3" style="stroke:#038048;stroke-width:1.0;"/><text fill="#000000" font-family="sans-serif" font-size="11" lengthAdjust="spacing" textLength="92" x="757.86" y="726.5151">home_dir_path()</text><!--MD5=[7164eccd22a31d5606c851e0dc4ba4c9]
class main_ctx--><rect codeLine="69" fill="#FEFECE" filter="url(#f1t5zl5y8qq2i8)" height="156.375" id="main_ctx" style="stroke:#A80036;stroke-width:1.5;" width="215" x="417.36" y="353"/><ellipse cx="486.11" cy="371.9688" fill="#ADD1B2" rx="11" ry="11" style="stroke:#A80036;stroke-width:1.0;"/><path d="M489.0788,377.6094 Q488.5006,377.9063 487.86,378.0469 Q487.2194,378.2031 486.5163,378.2031 Q484.0163,378.2031 482.6881,376.5625 Q481.3756,374.9063 481.3756,371.7813 Q481.3756,368.6563 482.6881,367 Q484.0163,365.3438 486.5163,365.3438 Q487.2194,365.3438 487.86,365.5 Q488.5163,365.6563 489.0788,365.9531 L489.0788,368.6719 Q488.4538,368.0938 487.86,367.8281 Q487.2663,367.5469 486.6413,367.5469 Q485.2975,367.5469 484.61,368.625 Q483.9225,369.6875 483.9225,371.7813 Q483.9225,373.875 484.61,374.9531 Q485.2975,376.0156 486.6413,376.0156 Q487.2663,376.0156 487.86,375.75 Q488.4538,375.4688 489.0788,374.8906 L489.0788,377.6094 Z " fill="#000000"/><text fill="#000000" font-family="sans-serif" font-size="12" font-style="italic" lengthAdjust="spacing" textLength="73" x="504.61" y="369.1387">«Singleton»</text><text fill="#000000" font-family="sans-serif" font-size="12" lengthAdjust="spacing" textLength="54" x="514.11" y="383.1074">main_ctx</text><line style="stroke:#A80036;stroke-width:1.5;" x1="418.36" x2="631.36" y1="390.9375" y2="390.9375"/><line style="stroke:#A80036;stroke-width:1.5;" x1="418.36" x2="631.36" y1="398.9375" y2="398.9375"/><ellipse cx="428.36" cy="409.9375" fill="#84BE84" rx="3" ry="3" style="stroke:#038048;stroke-width:1.0;"/><text fill="#000000" font-family="sans-serif" font-size="11" lengthAdjust="spacing" textLength="70" x="437.36" y="413.1479">process_id()</text><ellipse cx="428.36" cy="422.7422" fill="#84BE84" rx="3" ry="3" style="stroke:#038048;stroke-width:1.0;"/><text fill="#000000" font-family="sans-serif" font-size="11" lengthAdjust="spacing" textLength="127" x="437.36" y="425.9526">args() : program_args</text><ellipse cx="428.36" cy="435.5469" fill="#84BE84" rx="3" ry="3" style="stroke:#038048;stroke-width:1.0;"/><text fill="#000000" font-family="sans-serif" font-size="11" lengthAdjust="spacing" textLength="73" x="437.36" y="438.7573">log() : logger</text><ellipse cx="428.36" cy="448.3516" fill="#84BE84" rx="3" ry="3" style="stroke:#038048;stroke-width:1.0;"/><text fill="#000000" font-family="sans-serif" font-size="11" lengthAdjust="spacing" textLength="180" x="437.36" y="451.562">watchdog() : process_watchdog</text><ellipse cx="428.36" cy="461.1563" fill="#84BE84" rx="3" ry="3" style="stroke:#038048;stroke-width:1.0;"/><text fill="#000000" font-family="sans-serif" font-size="11" lengthAdjust="spacing" textLength="189" x="437.36" y="464.3667">compressor() : data_compressor</text><ellipse cx="428.36" cy="473.9609" fill="#84BE84" rx="3" ry="3" style="stroke:#038048;stroke-width:1.0;"/><text fill="#000000" font-family="sans-serif" font-size="11" lengthAdjust="spacing" textLength="101" x="437.36" y="477.1714">build() : build_info</text><ellipse cx="428.36" cy="486.7656" fill="#84BE84" rx="3" ry="3" style="stroke:#038048;stroke-width:1.0;"/><text fill="#000000" font-family="sans-serif" font-size="11" lengthAdjust="spacing" textLength="131" x="437.36" y="489.9761">system() : system_info</text><ellipse cx="428.36" cy="499.5703" fill="#84BE84" rx="3" ry="3" style="stroke:#038048;stroke-width:1.0;"/><text fill="#000000" font-family="sans-serif" font-size="11" lengthAdjust="spacing" textLength="99" x="437.36" y="502.7808">user() : user_info</text><!--MD5=[5e5b5ca85e3fa76bc05d133b10cccf0a]
class main_ctx_object--><rect codeLine="80" fill="#FEFECE" filter="url(#f1t5zl5y8qq2i8)" height="60.8047" id="main_ctx_object" style="stroke:#A80036;stroke-width:1.5;" width="171" x="440.36" y="39"/><ellipse cx="473.36" cy="55" fill="#ADD1B2" rx="11" ry="11" style="stroke:#A80036;stroke-width:1.0;"/><path d="M476.3288,60.6406 Q475.7506,60.9375 475.11,61.0781 Q474.4694,61.2344 473.7663,61.2344 Q471.2663,61.2344 469.9381,59.5938 Q468.6256,57.9375 468.6256,54.8125 Q468.6256,51.6875 469.9381,50.0313 Q471.2663,48.375 473.7663,48.375 Q474.4694,48.375 475.11,48.5313 Q475.7663,48.6875 476.3288,48.9844 L476.3288,51.7031 Q475.7038,51.125 475.11,50.8594 Q474.5163,50.5781 473.8913,50.5781 Q472.5475,50.5781 471.86,51.6563 Q471.1725,52.7188 471.1725,54.8125 Q471.1725,56.9063 471.86,57.9844 Q472.5475,59.0469 473.8913,59.0469 Q474.5163,59.0469 475.11,58.7813 Q475.7038,58.5 476.3288,57.9219 L476.3288,60.6406 Z " fill="#000000"/><text fill="#000000" font-family="sans-serif" font-size="12" lengthAdjust="spacing" textLength="99" x="491.36" y="59.1543">main_ctx_object</text><line style="stroke:#A80036;stroke-width:1.5;" x1="441.36" x2="610.36" y1="71" y2="71"/><line style="stroke:#A80036;stroke-width:1.5;" x1="441.36" x2="610.36" y1="79" y2="79"/><ellipse cx="451.36" cy="90" fill="#84BE84" rx="3" ry="3" style="stroke:#038048;stroke-width:1.0;"/><text fill="#000000" font-family="sans-serif" font-size="11" lengthAdjust="spacing" textLength="145" x="460.36" y="93.2104">main_context() : main_ctx</text><path d="M667.36,411 L667.36,427 L632.72,431 L667.36,435 L667.36,451.2656 A0,0 0 0 0 667.36,451.2656 L854.36,451.2656 A0,0 0 0 0 854.36,451.2656 L854.36,421 L844.36,411 L667.36,411 A0,0 0 0 0 667.36,411 " fill="#FBFB77" filter="url(#f1t5zl5y8qq2i8)" style="stroke:#A80036;stroke-width:1.0;"/><path d="M844.36,411 L844.36,421 L854.36,421 L844.36,411 " fill="#FBFB77" style="stroke:#A80036;stroke-width:1.0;"/><text fill="#000000" font-family="sans-serif" font-size="13" lengthAdjust="spacing" textLength="134" x="673.36" y="428.0669">Explicitly instantiated</text><text fill="#000000" font-family="sans-serif" font-size="13" lengthAdjust="spacing" textLength="166" x="673.36" y="443.1997">early in the main function.</text><!--MD5=[c833e352291fdce4bd31228bcb856aa6]
class ctx_note--><rect fill="#FEFECE" filter="url(#f1t5zl5y8qq2i8)" height="48" id="ctx_note" style="stroke:#A80036;stroke-width:1.5;" width="85" x="829.36" y="218.5"/><ellipse cx="844.36" cy="234.5" fill="#ADD1B2" rx="11" ry="11" style="stroke:#A80036;stroke-width:1.0;"/><path d="M847.3287,240.1406 Q846.7506,240.4375 846.11,240.5781 Q845.4694,240.7344 844.7662,240.7344 Q842.2662,240.7344 840.9381,239.0938 Q839.6256,237.4375 839.6256,234.3125 Q839.6256,231.1875 840.9381,229.5313 Q842.2662,227.875 844.7662,227.875 Q845.4694,227.875 846.11,228.0313 Q846.7662,228.1875 847.3287,228.4844 L847.3287,231.2031 Q846.7037,230.625 846.11,230.3594 Q845.5162,230.0781 844.8912,230.0781 Q843.5475,230.0781 842.86,231.1563 Q842.1725,232.2188 842.1725,234.3125 Q842.1725,236.4063 842.86,237.4844 Q843.5475,238.5469 844.8912,238.5469 Q845.5162,238.5469 846.11,238.2813 Q846.7037,238 847.3287,237.4219 L847.3287,240.1406 Z " fill="#000000"/><text fill="#000000" font-family="sans-serif" font-size="12" lengthAdjust="spacing" textLength="53" x="858.36" y="238.6543">ctx_note</text><line style="stroke:#A80036;stroke-width:1.5;" x1="830.36" x2="913.36" y1="250.5" y2="250.5"/><line style="stroke:#A80036;stroke-width:1.5;" x1="830.36" x2="913.36" y1="258.5" y2="258.5"/><!--MD5=[9cd593f0518d07148ca62e705d746821]
reverse link program_args to program_arg--><path codeLine="86" d="M112.86,145.58 C112.86,161.66 112.86,178.24 112.86,193 " fill="none" id="program_args-backto-program_arg" style="stroke:#A80036;stroke-width:1.0;"/><polygon fill="#A80036" points="112.86,132.23,108.86,138.23,112.86,144.23,116.86,138.23,112.86,132.23" style="stroke:#A80036;stroke-width:1.0;"/><!--MD5=[1bcaf6ba8a826f9d082a15e628cfe84a]
link program_arg to program_arg--><path codeLine="87" d="M169.29,227.5 C188.45,227.42 203.86,232.42 203.86,242.5 C203.86,251.63 191.21,256.6 174.57,257.39 " fill="none" id="program_arg-to-program_arg" style="stroke:#A80036;stroke-width:1.0;"/><polygon fill="#A80036" points="169.29,257.5,178.3682,261.3192,174.289,257.4,178.2082,253.3208,169.29,257.5" style="stroke:#A80036;stroke-width:1.0;"/><text fill="#000000" font-family="sans-serif" font-size="13" lengthAdjust="spacing" textLength="60" x="209.86" y="247.0669">prev/next</text><!--MD5=[08572839554cddc497e422f2c53da38d]
reverse link main_ctx_object to logger--><path codeLine="88" d="M541.91,119.51 C551.66,149.3 563.8,186.36 572.12,211.77 " fill="none" id="main_ctx_object-backto-logger" style="stroke:#A80036;stroke-width:1.0;"/><polygon fill="none" points="535.18,121.47,535.61,100.29,548.49,117.11,535.18,121.47" style="stroke:#A80036;stroke-width:1.0;"/><!--MD5=[affbe8c2beb5bde5b13e20d98769397a]
link main_ctx_object to main_ctx--><path codeLine="89" d="M525.77,100.23 C525.63,153.89 525.31,268.69 525.09,347.62 " fill="none" id="main_ctx_object-to-main_ctx" style="stroke:#A80036;stroke-width:1.0;"/><polygon fill="#A80036" points="525.07,352.77,529.0957,343.7815,525.0843,347.77,521.0957,343.7586,525.07,352.77" style="stroke:#A80036;stroke-width:1.0;"/><!--MD5=[813bb171aadff2e5af59794df8911100]
link program_args to main_ctx--><path codeLine="90" d="M56.41,143.51 C28.05,189.63 6,248.52 38.86,292 C82.85,350.23 405.3476,412.7214 405.3476,412.7214 " fill="none" id="program_args-main_ctx" style="stroke:#A80036;stroke-width:1.0;"/><polygon fill="#A80036" points="417.19,414.66,411.915,409.7433,405.3476,412.7214,410.6226,417.6382,417.19,414.66" style="stroke:#A80036;stroke-width:1.0;"/><polygon fill="#A80036" points="63.52,132.37,55.3006,137.7961,60.8257,136.582,62.0398,142.107,63.52,132.37" style="stroke:#A80036;stroke-width:1.0;"/><line style="stroke:#A80036;stroke-width:1.0;" x1="60.8257" x2="56.52" y1="136.582" y2="143.33"/><text fill="#000000" font-family="sans-serif" font-size="13" lengthAdjust="spacing" textLength="8" x="401.3382" y="410.0421">1</text><!--MD5=[e842edbd4124a8494432dbe8d3d26c0c]
link logger to main_ctx--><path codeLine="91" d="M568.97,285.68 C564,301.94 551.9886,341.2344 551.9886,341.2344 " fill="none" id="logger-main_ctx" style="stroke:#A80036;stroke-width:1.0;"/><polygon fill="#A80036" points="548.48,352.71,554.0595,348.1417,551.9886,341.2344,546.4091,345.8027,548.48,352.71" style="stroke:#A80036;stroke-width:1.0;"/><polygon fill="#A80036" points="572.83,273.05,566.3757,280.4892,571.3696,277.832,574.0269,282.8259,572.83,273.05" style="stroke:#A80036;stroke-width:1.0;"/><line style="stroke:#A80036;stroke-width:1.0;" x1="571.3696" x2="569.025" y1="277.832" y2="285.48"/><text fill="#000000" font-family="sans-serif" font-size="13" lengthAdjust="spacing" textLength="8" x="542.2887" y="341.857">1</text><!--MD5=[413ab708d6e3f36e99a93c05da786ee4]
link data_compressor to main_ctx--><path codeLine="92" d="M675.3,289.01 C657.62,305.58 615.9912,344.5792 615.9912,344.5792 " fill="none" id="data_compressor-main_ctx" style="stroke:#A80036;stroke-width:1.0;"/><polygon fill="#A80036" points="607.24,352.79,614.3525,351.6017,615.9912,344.5792,608.8786,345.7675,607.24,352.79" style="stroke:#A80036;stroke-width:1.0;"/><polygon fill="#A80036" points="685.02,279.9,675.7171,283.1336,681.3709,283.3182,681.1863,288.9721,685.02,279.9" style="stroke:#A80036;stroke-width:1.0;"/><line style="stroke:#A80036;stroke-width:1.0;" x1="681.3709" x2="675.53" y1="283.3182" y2="288.79"/><text fill="#000000" font-family="sans-serif" font-size="13" lengthAdjust="spacing" textLength="8" x="606.4657" y="341.9443">1</text><!--MD5=[27d02ed75a1884f054f54fd35caee6f5]
link application_config to main_ctx--><path codeLine="93" d="M406.3,290.06 C419.87,306.07 451.6993,343.6289 451.6993,343.6289 " fill="none" id="application_config-main_ctx" style="stroke:#A80036;stroke-width:1.0;"/><polygon fill="#A80036" points="459.45,352.79,458.6284,345.6259,451.6993,343.6289,452.5209,350.793,459.45,352.79" style="stroke:#A80036;stroke-width:1.0;"/><polygon fill="#A80036" points="397.7,279.9,400.466,289.3525,400.9322,283.7148,406.5698,284.181,397.7,279.9" style="stroke:#A80036;stroke-width:1.0;"/><line style="stroke:#A80036;stroke-width:1.0;" x1="400.9322" x2="406.1" y1="283.7148" y2="289.82"/><text fill="#000000" font-family="sans-serif" font-size="13" lengthAdjust="spacing" textLength="8" x="445.0513" y="341.9443">1</text><!--MD5=[5995f5b0fdd3d9f16a248acf31095abf]
reverse link program_args to application_config--><path codeLine="94" d="M176.71,113.48 C218.85,141.85 273.43,178.6 313.3,205.44 " fill="none" id="program_args-backto-application_config" style="stroke:#A80036;stroke-width:1.0;"/><polygon fill="#A80036" points="172.41,110.59,177.6599,118.923,176.5637,113.3734,182.1133,112.2772,172.41,110.59" style="stroke:#A80036;stroke-width:1.0;"/><!--MD5=[61b52b5d74e3bb664c06e7021d1f547e]
link main_ctx to process_watchdog--><path codeLine="95" d="M409.8072,516.8289 C409.8072,516.8289 369.32,551.91 351.86,570 C330.56,592.07 309.93,619.13 293.54,642.47 " fill="none" id="main_ctx-process_watchdog" style="stroke:#A80036;stroke-width:1.0;"/><polygon fill="#A80036" points="286.08,653.24,294.4924,648.1183,288.9266,649.1294,287.9155,643.5637,286.08,653.24" style="stroke:#A80036;stroke-width:1.0;"/><line style="stroke:#A80036;stroke-width:1.0;" x1="288.9266" x2="293.48" y1="649.1294" y2="642.55"/><polygon fill="#A80036" points="419.07,509.2,411.8956,509.9269,409.8072,516.8289,416.9816,516.1021,419.07,509.2" style="stroke:#A80036;stroke-width:1.0;"/><text fill="#000000" font-family="sans-serif" font-size="13" lengthAdjust="spacing" textLength="8" x="401.2918" y="528.8888">1</text><!--MD5=[b65539eedeabf9931d2d78b6e30b0a5f]
link main_ctx to build_info--><path codeLine="96" d="M493.9234,520.609 C493.9234,520.609 467.75,595.56 456.46,627.91 " fill="none" id="main_ctx-build_info" style="stroke:#A80036;stroke-width:1.0;"/><polygon fill="#A80036" points="452.09,640.41,458.8337,633.2321,453.7386,635.6896,451.2811,630.5944,452.09,640.41" style="stroke:#A80036;stroke-width:1.0;"/><line style="stroke:#A80036;stroke-width:1.0;" x1="453.7386" x2="456.375" y1="635.6896" y2="628.13"/><polygon fill="#A80036" points="497.88,509.28,492.1254,513.6256,493.9234,520.609,499.678,516.2633,497.88,509.28" style="stroke:#A80036;stroke-width:1.0;"/><text fill="#000000" font-family="sans-serif" font-size="13" lengthAdjust="spacing" textLength="8" x="486.9272" y="529.5113">1</text><!--MD5=[b5c4c5236a29b1d06cfec8f6df2368dc]
link main_ctx to system_info--><path codeLine="97" d="M555.7966,520.609 C555.7966,520.609 564.41,545.27 568.58,557.23 " fill="none" id="main_ctx-system_info" style="stroke:#A80036;stroke-width:1.0;"/><polygon fill="#A80036" points="572.93,569.69,573.7389,559.8744,571.2814,564.9696,566.1863,562.5121,572.93,569.69" style="stroke:#A80036;stroke-width:1.0;"/><line style="stroke:#A80036;stroke-width:1.0;" x1="571.2814" x2="568.645" y1="564.9696" y2="557.42"/><polygon fill="#A80036" points="551.84,509.28,550.042,516.2633,555.7966,520.609,557.5946,513.6256,551.84,509.28" style="stroke:#A80036;stroke-width:1.0;"/><text fill="#000000" font-family="sans-serif" font-size="13" lengthAdjust="spacing" textLength="8" x="546.0303" y="529.5113">1</text><!--MD5=[6cefe5165658d21a4c649ec628d84c70]
link main_ctx to user_info--><path codeLine="98" d="M642.3597,503.5699 C642.3597,503.5699 697.4,546.01 719.86,570 C741.33,592.93 759.93,622.76 773.47,647.59 " fill="none" id="main_ctx-user_info" style="stroke:#A80036;stroke-width:1.0;"/><polygon fill="#A80036" points="779.7,659.33,779.0113,649.5053,777.3548,654.9141,771.9459,653.2576,779.7,659.33" style="stroke:#A80036;stroke-width:1.0;"/><line style="stroke:#A80036;stroke-width:1.0;" x1="777.3548" x2="773.6" y1="654.9141" y2="647.845"/><polygon fill="#A80036" points="632.57,496.63,635.1516,503.3632,642.3597,503.5699,639.7781,496.8367,632.57,496.63" style="stroke:#A80036;stroke-width:1.0;"/><text fill="#000000" font-family="sans-serif" font-size="13" lengthAdjust="spacing" textLength="8" x="640.4246" y="497.7756">1</text><!--MD5=[401b78e476a10fae2e24a2db688e7ae4]
link ctx_note to main_ctx--><path codeLine="99" d="M846.89,266.67 C836.58,275.42 824.18,284.95 811.86,292 C745.09,330.23 718.93,319.11 649.86,353 C644.14,355.81 638.34,358.8 632.54,361.92 " fill="none" id="ctx_note-main_ctx" style="stroke:#A80036;stroke-width:1.0;stroke-dasharray:7.0,7.0;"/><!--MD5=[0232899f04c6aeab9bf82066394d5049]
@startuml
class program_arg {
    +get()
    +parse()
    +prev()
    +next()
}

class program_args {
    +empty()
    +size()
    +command()
    +begin()
    +end()
    +first()
}

class application_config {
	+is_set(...)
	+fetch(...)
}

class logger {
    +log()
}

class process_watchdog {
    +declare_initialized()
    +notify_alive()
    +announce_shutdown()
}

class data_compressor {
    +compress(...)
    +decompress(...)
}

class build_info {
    +version_major()
    +version_minor()
    +version_patch()
    +version_commit()
    +version_at_least()
}

class system_info {
    +host_id()
    +hostname() : string
    +uptime() : duration
    +cpu_concurrent_threads()
    +current_processes()
    +short_average_load()
    +long_average_load()
    +memory_page_size()
    +total_ram_size()
    +free_ram_size()
    +total_swap_size()
    +free_swap_size()
    +thermal_sensor_count()
    +sensor_temperature(...)
    +cooling_device_count()
    +coolind_device_state(...)
} 

class user_info {
    +login_name()
    +home_dir_path()
} 

class main_ctx <<Singleton>> {
    +process_id()
    +args() : program_args
    +log() : logger
    +watchdog() : process_watchdog
    +compressor() : data_compressor
    +build() : build_info
    +system() : system_info
    +user() : user_info
}

class main_ctx_object {
    +main_context() : main_ctx
}

note right of main_ctx : Explicitly instantiated\nearly in the main function.

program_args *- - program_arg
program_arg - -> program_arg : prev/next
main_ctx_object <|- - logger
main_ctx_object - -> main_ctx
program_args <- -* "1" main_ctx
logger <- -* "1" main_ctx
data_compressor <- -* "1" main_ctx
application_config <- -* "1" main_ctx
program_args <- - application_config
main_ctx "1" *- -> process_watchdog
main_ctx "1" *- -> build_info
main_ctx "1" *- -> system_info
main_ctx "1" *- -> user_info
ctx_note .. main_ctx
@enduml

PlantUML version 1.2021.3(Mon Mar 22 17:53:19 CET 2021)
(GPL source distribution)
Java Runtime: OpenJDK Runtime Environment
JVM: OpenJDK 64-Bit Server VM
Default Encoding: UTF-8
Language: en
Country: US
--></g></svg>
