<?xml version="1.0" encoding="UTF-8" standalone="no"?><svg xmlns="http://www.w3.org/2000/svg" xmlns:xlink="http://www.w3.org/1999/xlink" contentScriptType="application/ecmascript" contentStyleType="text/css" height="1091px" preserveAspectRatio="none" style="width:786px;height:1091px;" version="1.1" viewBox="0 0 786 1091" width="786px" zoomAndPan="magnify"><defs><filter height="300%" id="f1s5kpy7ebfb41" width="300%" x="-1" y="-1"><feGaussianBlur result="blurOut" stdDeviation="2.0"/><feColorMatrix in="blurOut" result="blurOut2" type="matrix" values="0 0 0 0 0 0 0 0 0 0 0 0 0 0 0 0 0 0 .4 0"/><feOffset dx="4.0" dy="4.0" in="blurOut2" result="blurOut3"/><feBlend in="SourceGraphic" in2="blurOut3" mode="normal"/></filter></defs><g><polygon fill="#FFFFFF" filter="url(#f1s5kpy7ebfb41)" points="27.11,571.5,154.11,571.5,161.11,593.7969,168.11,593.7969,168.11,624.0938,27.11,624.0938,27.11,571.5" style="stroke:#000000;stroke-width:1.5;"/><line style="stroke:#000000;stroke-width:1.5;" x1="27.11" x2="161.11" y1="593.7969" y2="593.7969"/><text fill="#000000" font-family="sans-serif" font-size="14" font-weight="bold" lengthAdjust="spacing" textLength="121" x="31.11" y="586.4951">implementation</text><!--MD5=[7a5e72366e02d2aaa9b77ccfa92cc342]
class value_type--><rect codeLine="1" fill="#FEFECE" filter="url(#f1s5kpy7ebfb41)" height="176.0469" id="value_type" style="stroke:#A80036;stroke-width:1.5;" width="98" x="304.61" y="776"/><ellipse cx="319.61" cy="792" fill="#EB937F" rx="11" ry="11" style="stroke:#A80036;stroke-width:1.0;"/><path d="M323.7194,798 L316.0006,798 L316.0006,785.6094 L323.7194,785.6094 L323.7194,787.7656 L318.4538,787.7656 L318.4538,790.4375 L323.2194,790.4375 L323.2194,792.5938 L318.4538,792.5938 L318.4538,795.8438 L323.7194,795.8438 L323.7194,798 Z " fill="#000000"/><text fill="#000000" font-family="sans-serif" font-size="12" lengthAdjust="spacing" textLength="66" x="333.61" y="796.1543">value_type</text><line style="stroke:#A80036;stroke-width:1.5;" x1="305.61" x2="401.61" y1="808" y2="808"/><text fill="#000000" font-family="sans-serif" font-size="11" lengthAdjust="spacing" textLength="50" x="310.61" y="822.2104">unknown</text><text fill="#000000" font-family="sans-serif" font-size="11" lengthAdjust="spacing" textLength="54" x="310.61" y="835.0151">bool_type</text><text fill="#000000" font-family="sans-serif" font-size="11" lengthAdjust="spacing" textLength="54" x="310.61" y="847.8198">byte_type</text><text fill="#000000" font-family="sans-serif" font-size="11" lengthAdjust="spacing" textLength="58" x="310.61" y="860.6245">int16_type</text><text fill="#000000" font-family="sans-serif" font-size="11" lengthAdjust="spacing" textLength="58" x="310.61" y="873.4292">int32_type</text><text fill="#000000" font-family="sans-serif" font-size="11" lengthAdjust="spacing" textLength="58" x="310.61" y="886.2339">int64_type</text><text fill="#000000" font-family="sans-serif" font-size="11" lengthAdjust="spacing" textLength="55" x="310.61" y="899.0386">float_type</text><text fill="#000000" font-family="sans-serif" font-size="11" lengthAdjust="spacing" textLength="81" x="310.61" y="911.8433">duration_type,</text><text fill="#000000" font-family="sans-serif" font-size="11" lengthAdjust="spacing" textLength="67" x="310.61" y="924.6479">string_type,</text><text fill="#000000" font-family="sans-serif" font-size="11" lengthAdjust="spacing" textLength="59" x="310.61" y="937.4526">composite</text><line style="stroke:#A80036;stroke-width:1.5;" x1="305.61" x2="401.61" y1="944.0469" y2="944.0469"/><!--MD5=[86a5b63adb1f8e6a11514adb13fb6044]
class attribute_interface--><rect codeLine="14" fill="#FEFECE" filter="url(#f1s5kpy7ebfb41)" height="60.8047" id="attribute_interface" style="stroke:#A80036;stroke-width:1.5;" width="149" x="438.11" y="833.5"/><ellipse cx="453.11" cy="849.5" fill="#B4A7E5" rx="11" ry="11" style="stroke:#A80036;stroke-width:1.0;"/><path d="M449.0319,845.2656 L449.0319,843.1094 L456.4225,843.1094 L456.4225,845.2656 L453.9538,845.2656 L453.9538,853.3438 L456.4225,853.3438 L456.4225,855.5 L449.0319,855.5 L449.0319,853.3438 L451.5006,853.3438 L451.5006,845.2656 L449.0319,845.2656 Z " fill="#000000"/><text fill="#000000" font-family="sans-serif" font-size="12" font-style="italic" lengthAdjust="spacing" textLength="117" x="467.11" y="853.6543">attribute_interface</text><line style="stroke:#A80036;stroke-width:1.5;" x1="439.11" x2="586.11" y1="865.5" y2="865.5"/><line style="stroke:#A80036;stroke-width:1.5;" x1="439.11" x2="586.11" y1="873.5" y2="873.5"/><ellipse cx="449.11" cy="884.5" fill="#84BE84" rx="3" ry="3" style="stroke:#038048;stroke-width:1.0;"/><text fill="#000000" font-family="sans-serif" font-size="11" lengthAdjust="spacing" textLength="110" x="458.11" y="887.7104">type_id() : identifier</text><path d="M50.11,304 L50.11,404.7969 L145.11,404.7969 L145.11,314 L135.11,304 L50.11,304 " fill="#FBFB77" filter="url(#f1s5kpy7ebfb41)" style="stroke:#A80036;stroke-width:1.0;"/><path d="M135.11,304 L135.11,314 L145.11,314 L135.11,304 " fill="#FBFB77" style="stroke:#A80036;stroke-width:1.0;"/><text fill="#000000" font-family="sans-serif" font-size="13" lengthAdjust="spacing" textLength="72" x="56.11" y="321.0669">- rapidyaml</text><text fill="#000000" font-family="sans-serif" font-size="13" lengthAdjust="spacing" textLength="67" x="56.11" y="336.1997">- rapidjson</text><text fill="#000000" font-family="sans-serif" font-size="13" lengthAdjust="spacing" textLength="74" x="56.11" y="351.3325">- filesystem</text><text fill="#000000" font-family="sans-serif" font-size="13" lengthAdjust="spacing" textLength="64" x="56.11" y="366.4653">- rapidxml</text><text fill="#000000" font-family="sans-serif" font-size="13" lengthAdjust="spacing" textLength="21" x="56.11" y="381.5981">- ...</text><text fill="#000000" font-family="sans-serif" font-size="13" lengthAdjust="spacing" textLength="0" x="60.11" y="396.731"/><!--MD5=[ae77f95d7652b87c98d189a7529fe8b0]
class compound_interface--><rect codeLine="26" fill="#FEFECE" filter="url(#f1s5kpy7ebfb41)" height="201.6563" id="compound_interface" style="stroke:#A80036;stroke-width:1.5;" width="202" x="230.61" y="497"/><ellipse cx="264.51" cy="513" fill="#B4A7E5" rx="11" ry="11" style="stroke:#A80036;stroke-width:1.0;"/><path d="M260.4319,508.7656 L260.4319,506.6094 L267.8225,506.6094 L267.8225,508.7656 L265.3538,508.7656 L265.3538,516.8438 L267.8225,516.8438 L267.8225,519 L260.4319,519 L260.4319,516.8438 L262.9006,516.8438 L262.9006,508.7656 L260.4319,508.7656 Z " fill="#000000"/><text fill="#000000" font-family="sans-serif" font-size="12" font-style="italic" lengthAdjust="spacing" textLength="128" x="282.71" y="517.1543">compound_interface</text><line style="stroke:#A80036;stroke-width:1.5;" x1="231.61" x2="431.61" y1="529" y2="529"/><line style="stroke:#A80036;stroke-width:1.5;" x1="231.61" x2="431.61" y1="537" y2="537"/><ellipse cx="241.61" cy="548" fill="#84BE84" rx="3" ry="3" style="stroke:#038048;stroke-width:1.0;"/><text fill="#000000" font-family="sans-serif" font-size="11" lengthAdjust="spacing" textLength="110" x="250.61" y="551.2104">type_id() : identifier</text><ellipse cx="241.61" cy="560.8047" fill="#84BE84" rx="3" ry="3" style="stroke:#038048;stroke-width:1.0;"/><text fill="#000000" font-family="sans-serif" font-size="11" lengthAdjust="spacing" textLength="155" x="250.61" y="564.0151">add_ref(attribute_interface)</text><ellipse cx="241.61" cy="573.6094" fill="#84BE84" rx="3" ry="3" style="stroke:#038048;stroke-width:1.0;"/><text fill="#000000" font-family="sans-serif" font-size="11" lengthAdjust="spacing" textLength="155" x="250.61" y="576.8198">release(attribute_interface)</text><ellipse cx="241.61" cy="586.4141" fill="#84BE84" rx="3" ry="3" style="stroke:#038048;stroke-width:1.0;"/><text fill="#000000" font-family="sans-serif" font-size="11" lengthAdjust="spacing" textLength="176" x="250.61" y="589.6245">structure() : attribute_interface</text><ellipse cx="241.61" cy="599.2188" fill="#84BE84" rx="3" ry="3" style="stroke:#038048;stroke-width:1.0;"/><text fill="#000000" font-family="sans-serif" font-size="11" lengthAdjust="spacing" textLength="151" x="250.61" y="602.4292">attribute_name(...) : string</text><ellipse cx="241.61" cy="612.0234" fill="#84BE84" rx="3" ry="3" style="stroke:#038048;stroke-width:1.0;"/><text fill="#000000" font-family="sans-serif" font-size="11" lengthAdjust="spacing" textLength="175" x="250.61" y="615.2339">canonical_type(...) : value_type</text><ellipse cx="241.61" cy="624.8281" fill="#84BE84" rx="3" ry="3" style="stroke:#038048;stroke-width:1.0;"/><text fill="#000000" font-family="sans-serif" font-size="11" lengthAdjust="spacing" textLength="91" x="250.61" y="628.0386">is_link(...) : bool</text><ellipse cx="241.61" cy="637.6328" fill="#84BE84" rx="3" ry="3" style="stroke:#038048;stroke-width:1.0;"/><text fill="#000000" font-family="sans-serif" font-size="11" lengthAdjust="spacing" textLength="96" x="250.61" y="640.8433">nested_count(...)</text><ellipse cx="241.61" cy="650.4375" fill="#84BE84" rx="3" ry="3" style="stroke:#038048;stroke-width:1.0;"/><text fill="#000000" font-family="sans-serif" font-size="11" lengthAdjust="spacing" textLength="175" x="250.61" y="653.6479">nested(...) : attribute_interface</text><ellipse cx="241.61" cy="663.2422" fill="#84BE84" rx="3" ry="3" style="stroke:#038048;stroke-width:1.0;"/><text fill="#000000" font-family="sans-serif" font-size="11" lengthAdjust="spacing" textLength="157" x="250.61" y="666.4526">find(...) : attribute_interface</text><ellipse cx="241.61" cy="676.0469" fill="#84BE84" rx="3" ry="3" style="stroke:#038048;stroke-width:1.0;"/><text fill="#000000" font-family="sans-serif" font-size="11" lengthAdjust="spacing" textLength="87" x="250.61" y="679.2573">value_count(...)</text><ellipse cx="241.61" cy="688.8516" fill="#84BE84" rx="3" ry="3" style="stroke:#038048;stroke-width:1.0;"/><text fill="#000000" font-family="sans-serif" font-size="11" lengthAdjust="spacing" textLength="91" x="250.61" y="692.062">fetch_values(...)</text><!--MD5=[93070ed6458c4c85007338763ab2856f]
class concrete_attribute--><rect codeLine="41" fill="#FEFECE" filter="url(#f1s5kpy7ebfb41)" height="48" id="concrete_attribute" style="stroke:#A80036;stroke-width:1.5;" width="149" x="115.11" y="1029"/><ellipse cx="130.11" cy="1045" fill="#ADD1B2" rx="11" ry="11" style="stroke:#A80036;stroke-width:1.0;"/><path d="M133.0788,1050.6406 Q132.5006,1050.9375 131.86,1051.0781 Q131.2194,1051.2344 130.5163,1051.2344 Q128.0163,1051.2344 126.6881,1049.5938 Q125.3756,1047.9375 125.3756,1044.8125 Q125.3756,1041.6875 126.6881,1040.0313 Q128.0163,1038.375 130.5163,1038.375 Q131.2194,1038.375 131.86,1038.5313 Q132.5163,1038.6875 133.0788,1038.9844 L133.0788,1041.7031 Q132.4538,1041.125 131.86,1040.8594 Q131.2663,1040.5781 130.6413,1040.5781 Q129.2975,1040.5781 128.61,1041.6563 Q127.9225,1042.7188 127.9225,1044.8125 Q127.9225,1046.9063 128.61,1047.9844 Q129.2975,1049.0469 130.6413,1049.0469 Q131.2663,1049.0469 131.86,1048.7813 Q132.4538,1048.5 133.0788,1047.9219 L133.0788,1050.6406 Z " fill="#000000"/><text fill="#000000" font-family="sans-serif" font-size="12" lengthAdjust="spacing" textLength="117" x="144.11" y="1049.1543">concrete_attribute</text><line style="stroke:#A80036;stroke-width:1.5;" x1="116.11" x2="263.11" y1="1061" y2="1061"/><line style="stroke:#A80036;stroke-width:1.5;" x1="116.11" x2="263.11" y1="1069" y2="1069"/><!--MD5=[3fbcc6802855b0973131d96dabb183a1]
class concrete_compound--><rect codeLine="44" fill="#FEFECE" filter="url(#f1s5kpy7ebfb41)" height="48" id="concrete_compound" style="stroke:#A80036;stroke-width:1.5;" width="160" x="109.61" y="840"/><ellipse cx="124.61" cy="856" fill="#ADD1B2" rx="11" ry="11" style="stroke:#A80036;stroke-width:1.0;"/><path d="M127.5788,861.6406 Q127.0006,861.9375 126.36,862.0781 Q125.7194,862.2344 125.0163,862.2344 Q122.5163,862.2344 121.1881,860.5938 Q119.8756,858.9375 119.8756,855.8125 Q119.8756,852.6875 121.1881,851.0313 Q122.5163,849.375 125.0163,849.375 Q125.7194,849.375 126.36,849.5313 Q127.0163,849.6875 127.5788,849.9844 L127.5788,852.7031 Q126.9538,852.125 126.36,851.8594 Q125.7663,851.5781 125.1413,851.5781 Q123.7975,851.5781 123.11,852.6563 Q122.4225,853.7188 122.4225,855.8125 Q122.4225,857.9063 123.11,858.9844 Q123.7975,860.0469 125.1413,860.0469 Q125.7663,860.0469 126.36,859.7813 Q126.9538,859.5 127.5788,858.9219 L127.5788,861.6406 Z " fill="#000000"/><text fill="#000000" font-family="sans-serif" font-size="12" lengthAdjust="spacing" textLength="128" x="138.61" y="860.1543">concrete_compound</text><line style="stroke:#A80036;stroke-width:1.5;" x1="110.61" x2="268.61" y1="872" y2="872"/><line style="stroke:#A80036;stroke-width:1.5;" x1="110.61" x2="268.61" y1="880" y2="880"/><!--MD5=[afaa2783c113c9e610596342da8a14ae]
class attribute--><rect codeLine="50" fill="#FEFECE" filter="url(#f1s5kpy7ebfb41)" height="73.6094" id="attribute" style="stroke:#A80036;stroke-width:1.5;" width="136" x="467.61" y="561"/><ellipse cx="504.66" cy="577" fill="#ADD1B2" rx="11" ry="11" style="stroke:#A80036;stroke-width:1.0;"/><path d="M507.6288,582.6406 Q507.0506,582.9375 506.41,583.0781 Q505.7694,583.2344 505.0663,583.2344 Q502.5663,583.2344 501.2381,581.5938 Q499.9256,579.9375 499.9256,576.8125 Q499.9256,573.6875 501.2381,572.0313 Q502.5663,570.375 505.0663,570.375 Q505.7694,570.375 506.41,570.5313 Q507.0663,570.6875 507.6288,570.9844 L507.6288,573.7031 Q507.0038,573.125 506.41,572.8594 Q505.8163,572.5781 505.1913,572.5781 Q503.8475,572.5781 503.16,573.6563 Q502.4725,574.7188 502.4725,576.8125 Q502.4725,578.9063 503.16,579.9844 Q503.8475,581.0469 505.1913,581.0469 Q505.8163,581.0469 506.41,580.7813 Q507.0038,580.5 507.6288,579.9219 L507.6288,582.6406 Z " fill="#000000"/><text fill="#000000" font-family="sans-serif" font-size="12" lengthAdjust="spacing" textLength="55" x="523.56" y="581.1543">attribute</text><line style="stroke:#A80036;stroke-width:1.5;" x1="468.61" x2="602.61" y1="593" y2="593"/><line style="stroke:#A80036;stroke-width:1.5;" x1="468.61" x2="602.61" y1="601" y2="601"/><ellipse cx="478.61" cy="612" fill="#84BE84" rx="3" ry="3" style="stroke:#038048;stroke-width:1.0;"/><text fill="#000000" font-family="sans-serif" font-size="11" lengthAdjust="spacing" textLength="110" x="487.61" y="615.2104">type_id() : identifier</text><ellipse cx="478.61" cy="624.8047" fill="#84BE84" rx="3" ry="3" style="stroke:#038048;stroke-width:1.0;"/><text fill="#000000" font-family="sans-serif" font-size="11" lengthAdjust="spacing" textLength="85" x="487.61" y="628.0151">name() : string</text><!--MD5=[09764f1455e1b7961a96efeedf559183]
class compound--><rect codeLine="55" fill="#FEFECE" filter="url(#f1s5kpy7ebfb41)" height="188.8516" id="compound" style="stroke:#A80036;stroke-width:1.5;" width="201" x="362.11" y="7"/><ellipse cx="425.36" cy="23" fill="#ADD1B2" rx="11" ry="11" style="stroke:#A80036;stroke-width:1.0;"/><path d="M428.3288,28.6406 Q427.7506,28.9375 427.11,29.0781 Q426.4694,29.2344 425.7663,29.2344 Q423.2663,29.2344 421.9381,27.5938 Q420.6256,25.9375 420.6256,22.8125 Q420.6256,19.6875 421.9381,18.0313 Q423.2663,16.375 425.7663,16.375 Q426.4694,16.375 427.11,16.5313 Q427.7663,16.6875 428.3288,16.9844 L428.3288,19.7031 Q427.7038,19.125 427.11,18.8594 Q426.5163,18.5781 425.8913,18.5781 Q424.5475,18.5781 423.86,19.6563 Q423.1725,20.7188 423.1725,22.8125 Q423.1725,24.9063 423.86,25.9844 Q424.5475,27.0469 425.8913,27.0469 Q426.5163,27.0469 427.11,26.7813 Q427.7038,26.5 428.3288,25.9219 L428.3288,28.6406 Z " fill="#000000"/><text fill="#000000" font-family="sans-serif" font-size="12" lengthAdjust="spacing" textLength="66" x="445.86" y="27.1543">compound</text><line style="stroke:#A80036;stroke-width:1.5;" x1="363.11" x2="562.11" y1="39" y2="39"/><line style="stroke:#A80036;stroke-width:1.5;" x1="363.11" x2="562.11" y1="47" y2="47"/><ellipse cx="373.11" cy="58" fill="#84BE84" rx="3" ry="3" style="stroke:#038048;stroke-width:1.0;"/><text fill="#000000" font-family="sans-serif" font-size="11" lengthAdjust="spacing" textLength="110" x="382.11" y="61.2104">type_id() : identifier</text><ellipse cx="373.11" cy="70.8047" fill="#84BE84" rx="3" ry="3" style="stroke:#038048;stroke-width:1.0;"/><text fill="#000000" font-family="sans-serif" font-size="11" lengthAdjust="spacing" textLength="120" x="382.11" y="74.0151">structure() : attribute</text><ellipse cx="373.11" cy="83.6094" fill="#84BE84" rx="3" ry="3" style="stroke:#038048;stroke-width:1.0;"/><text fill="#000000" font-family="sans-serif" font-size="11" lengthAdjust="spacing" textLength="156" x="382.11" y="86.8198">root() : compound_attribute</text><ellipse cx="373.11" cy="96.4141" fill="#84BE84" rx="3" ry="3" style="stroke:#038048;stroke-width:1.0;"/><text fill="#000000" font-family="sans-serif" font-size="11" lengthAdjust="spacing" textLength="151" x="382.11" y="99.6245">attribute_name(...) : string</text><ellipse cx="373.11" cy="109.2188" fill="#84BE84" rx="3" ry="3" style="stroke:#038048;stroke-width:1.0;"/><text fill="#000000" font-family="sans-serif" font-size="11" lengthAdjust="spacing" textLength="175" x="382.11" y="112.4292">canonical_type(...) : value_type</text><ellipse cx="373.11" cy="122.0234" fill="#84BE84" rx="3" ry="3" style="stroke:#038048;stroke-width:1.0;"/><text fill="#000000" font-family="sans-serif" font-size="11" lengthAdjust="spacing" textLength="91" x="382.11" y="125.2339">is_link(...) : bool</text><ellipse cx="373.11" cy="134.8281" fill="#84BE84" rx="3" ry="3" style="stroke:#038048;stroke-width:1.0;"/><text fill="#000000" font-family="sans-serif" font-size="11" lengthAdjust="spacing" textLength="96" x="382.11" y="138.0386">nested_count(...)</text><ellipse cx="373.11" cy="147.6328" fill="#84BE84" rx="3" ry="3" style="stroke:#038048;stroke-width:1.0;"/><text fill="#000000" font-family="sans-serif" font-size="11" lengthAdjust="spacing" textLength="175" x="382.11" y="150.8433">nested(...) : attribute_interface</text><ellipse cx="373.11" cy="160.4375" fill="#84BE84" rx="3" ry="3" style="stroke:#038048;stroke-width:1.0;"/><text fill="#000000" font-family="sans-serif" font-size="11" lengthAdjust="spacing" textLength="157" x="382.11" y="163.6479">find(...) : attribute_interface</text><ellipse cx="373.11" cy="173.2422" fill="#84BE84" rx="3" ry="3" style="stroke:#038048;stroke-width:1.0;"/><text fill="#000000" font-family="sans-serif" font-size="11" lengthAdjust="spacing" textLength="87" x="382.11" y="176.4526">value_count(...)</text><ellipse cx="373.11" cy="186.0469" fill="#84BE84" rx="3" ry="3" style="stroke:#038048;stroke-width:1.0;"/><text fill="#000000" font-family="sans-serif" font-size="11" lengthAdjust="spacing" textLength="91" x="382.11" y="189.2573">fetch_values(...)</text><!--MD5=[d57f883b56cbe6d00f9d8e375dfaa250]
class compound_attribute--><rect codeLine="69" fill="#FEFECE" filter="url(#f1s5kpy7ebfb41)" height="163.2422" id="compound_attribute" style="stroke:#A80036;stroke-width:1.5;" width="201" x="487.11" y="273"/><ellipse cx="521.01" cy="289" fill="#ADD1B2" rx="11" ry="11" style="stroke:#A80036;stroke-width:1.0;"/><path d="M523.9788,294.6406 Q523.4006,294.9375 522.76,295.0781 Q522.1194,295.2344 521.4163,295.2344 Q518.9163,295.2344 517.5881,293.5938 Q516.2756,291.9375 516.2756,288.8125 Q516.2756,285.6875 517.5881,284.0313 Q518.9163,282.375 521.4163,282.375 Q522.1194,282.375 522.76,282.5313 Q523.4163,282.6875 523.9788,282.9844 L523.9788,285.7031 Q523.3538,285.125 522.76,284.8594 Q522.1663,284.5781 521.5413,284.5781 Q520.1975,284.5781 519.51,285.6563 Q518.8225,286.7188 518.8225,288.8125 Q518.8225,290.9063 519.51,291.9844 Q520.1975,293.0469 521.5413,293.0469 Q522.1663,293.0469 522.76,292.7813 Q523.3538,292.5 523.9788,291.9219 L523.9788,294.6406 Z " fill="#000000"/><text fill="#000000" font-family="sans-serif" font-size="12" lengthAdjust="spacing" textLength="127" x="539.21" y="293.1543">compound_attribute</text><line style="stroke:#A80036;stroke-width:1.5;" x1="488.11" x2="687.11" y1="305" y2="305"/><line style="stroke:#A80036;stroke-width:1.5;" x1="488.11" x2="687.11" y1="313" y2="313"/><ellipse cx="498.11" cy="324" fill="#84BE84" rx="3" ry="3" style="stroke:#038048;stroke-width:1.0;"/><text fill="#000000" font-family="sans-serif" font-size="11" lengthAdjust="spacing" textLength="110" x="507.11" y="327.2104">type_id() : identifier</text><ellipse cx="498.11" cy="336.8047" fill="#84BE84" rx="3" ry="3" style="stroke:#038048;stroke-width:1.0;"/><text fill="#000000" font-family="sans-serif" font-size="11" lengthAdjust="spacing" textLength="97" x="507.11" y="340.0151">name(...) : string</text><ellipse cx="498.11" cy="349.6094" fill="#84BE84" rx="3" ry="3" style="stroke:#038048;stroke-width:1.0;"/><text fill="#000000" font-family="sans-serif" font-size="11" lengthAdjust="spacing" textLength="175" x="507.11" y="352.8198">canonical_type(...) : value_type</text><ellipse cx="498.11" cy="362.4141" fill="#84BE84" rx="3" ry="3" style="stroke:#038048;stroke-width:1.0;"/><text fill="#000000" font-family="sans-serif" font-size="11" lengthAdjust="spacing" textLength="91" x="507.11" y="365.6245">is_link(...) : bool</text><ellipse cx="498.11" cy="375.2188" fill="#84BE84" rx="3" ry="3" style="stroke:#038048;stroke-width:1.0;"/><text fill="#000000" font-family="sans-serif" font-size="11" lengthAdjust="spacing" textLength="96" x="507.11" y="378.4292">nested_count(...)</text><ellipse cx="498.11" cy="388.0234" fill="#84BE84" rx="3" ry="3" style="stroke:#038048;stroke-width:1.0;"/><text fill="#000000" font-family="sans-serif" font-size="11" lengthAdjust="spacing" textLength="175" x="507.11" y="391.2339">nested(...) : attribute_interface</text><ellipse cx="498.11" cy="400.8281" fill="#84BE84" rx="3" ry="3" style="stroke:#038048;stroke-width:1.0;"/><text fill="#000000" font-family="sans-serif" font-size="11" lengthAdjust="spacing" textLength="157" x="507.11" y="404.0386">find(...) : attribute_interface</text><ellipse cx="498.11" cy="413.6328" fill="#84BE84" rx="3" ry="3" style="stroke:#038048;stroke-width:1.0;"/><text fill="#000000" font-family="sans-serif" font-size="11" lengthAdjust="spacing" textLength="87" x="507.11" y="416.8433">value_count(...)</text><ellipse cx="498.11" cy="426.4375" fill="#84BE84" rx="3" ry="3" style="stroke:#038048;stroke-width:1.0;"/><text fill="#000000" font-family="sans-serif" font-size="11" lengthAdjust="spacing" textLength="91" x="507.11" y="429.6479">fetch_values(...)</text><!--MD5=[a1d4c488afa69c3a7d7e2a4fb25d8723]
link compound_interface to attribute_interface--><path codeLine="81" d="M400.3,699.18 C431.69,744.97 466.81,796.19 489.28,828.97 " fill="none" id="compound_interface-to-attribute_interface" style="stroke:#A80036;stroke-width:1.0;"/><polygon fill="#A80036" points="492.23,833.27,490.4274,823.5875,489.3974,829.1498,483.8351,828.1197,492.23,833.27" style="stroke:#A80036;stroke-width:1.0;"/><text fill="#000000" font-family="sans-serif" font-size="13" lengthAdjust="spacing" textLength="30" x="427.61" y="742.0669">uses</text><!--MD5=[0a32ae8898b23069bf869a6544bf7cab]
link compound_interface to value_type--><path codeLine="82" d="M339.96,699.18 C341.91,722.64 343.99,747.53 345.91,770.63 " fill="none" id="compound_interface-to-value_type" style="stroke:#A80036;stroke-width:1.0;"/><polygon fill="#A80036" points="346.35,775.84,349.591,766.5397,345.936,770.8572,341.6185,767.2021,346.35,775.84" style="stroke:#A80036;stroke-width:1.0;"/><!--MD5=[9cbda8806e1524cfd62462a96e38fa2e]
reverse link attribute_interface to concrete_attribute--><path codeLine="83" d="M472.09,909.18 C456.92,924.05 438.92,939.93 420.61,952 C370.36,985.14 307.3,1011.57 259.77,1028.92 " fill="none" id="attribute_interface-backto-concrete_attribute" style="stroke:#A80036;stroke-width:1.0;"/><polygon fill="none" points="467.2,904.16,486.21,894.81,477.18,913.98,467.2,904.16" style="stroke:#A80036;stroke-width:1.0;"/><!--MD5=[03ca062d4a924c08d289e78fe595ed4d]
reverse link compound_interface to concrete_compound--><path codeLine="84" d="M268.09,717.1 C243.19,763.39 217.05,811.99 202.1,839.78 " fill="none" id="compound_interface-backto-concrete_compound" style="stroke:#A80036;stroke-width:1.0;"/><polygon fill="none" points="262.08,713.48,277.72,699.18,274.41,720.11,262.08,713.48" style="stroke:#A80036;stroke-width:1.0;"/><!--MD5=[0f0daafd60d710ae4f3d9d63e9b5b50c]
link concrete_compound to concrete_attribute--><path codeLine="85" d="M189.61,888.31 C189.61,922.65 189.61,986.76 189.61,1023.74 " fill="none" id="concrete_compound-to-concrete_attribute" style="stroke:#A80036;stroke-width:1.0;stroke-dasharray:7.0,7.0;"/><polygon fill="#A80036" points="189.61,1028.99,193.61,1019.99,189.61,1023.99,185.61,1019.99,189.61,1028.99" style="stroke:#A80036;stroke-width:1.0;"/><text fill="#000000" font-family="sans-serif" font-size="13" lengthAdjust="spacing" textLength="75" x="190.61" y="995.0669">instantiates</text><!--MD5=[cc56240664db8c5c6e4a29cb2690c1a4]
reverse link implementation to concrete_attribute--><path codeLine="86" d="M83.89,629.37 C57.32,692.94 6,843.13 59.61,952 C76.47,986.23 111.29,1012.02 140.66,1028.84 " fill="none" id="implementation-backto-concrete_attribute" style="stroke:#A80036;stroke-width:1.0;"/><polygon fill="#A80036" points="85.91,624.58,78.7309,631.3225,83.9697,629.1882,86.104,634.4269,85.91,624.58" style="stroke:#A80036;stroke-width:1.0;"/><text fill="#000000" font-family="sans-serif" font-size="13" lengthAdjust="spacing" textLength="30" x="60.61" y="868.5669">uses</text><!--MD5=[2c213b0b1849d8606c66fb11833413a1]
reverse link implementation to concrete_compound--><path codeLine="87" d="M108.34,629.79 C126.97,683.26 164.91,792.11 181.51,839.77 " fill="none" id="implementation-backto-concrete_compound" style="stroke:#A80036;stroke-width:1.0;"/><polygon fill="#A80036" points="106.6,624.79,105.7752,634.6043,108.2409,629.5131,113.3321,631.9788,106.6,624.79" style="stroke:#A80036;stroke-width:1.0;"/><text fill="#000000" font-family="sans-serif" font-size="13" lengthAdjust="spacing" textLength="30" x="147.61" y="742.0669">uses</text><!--MD5=[2d9840692878ee7b534b7be01a1703dc]
link impl_note to implementation--><path codeLine="88" d="M97.61,405.25 C97.61,455.78 97.61,532.05 97.61,571.44 " fill="none" id="impl_note-implementation" style="stroke:#A80036;stroke-width:1.0;stroke-dasharray:7.0,7.0;"/><!--MD5=[e7fd475f68a5ee5c349c8abd4078fd00]
link compound to attribute--><path codeLine="89" d="M438.63,196.21 C425.33,264.01 415.51,357.17 437.61,436 C450.21,480.93 479.18,525.76 502.37,556.66 " fill="none" id="compound-to-attribute" style="stroke:#A80036;stroke-width:1.0;"/><polygon fill="#A80036" points="505.46,560.74,503.1998,551.154,502.4349,556.7589,496.83,555.9941,505.46,560.74" style="stroke:#A80036;stroke-width:1.0;"/><text fill="#000000" font-family="sans-serif" font-size="13" lengthAdjust="spacing" textLength="30" x="438.61" y="359.0669">uses</text><!--MD5=[6a1d37f281a85bd891ae2d58924cc183]
link compound to compound_interface--><path codeLine="90" d="M428.0371,207.4904 C428.0371,207.4904 424.21,220.36 422.61,226 C398.2,311.91 374.29,410.09 357.11,483.87 " fill="none" id="compound-compound_interface" style="stroke:#A80036;stroke-width:1.0;"/><polygon fill="#A80036" points="354.09,496.89,360.0223,489.0282,355.2211,492.0196,352.2297,487.2184,354.09,496.89" style="stroke:#A80036;stroke-width:1.0;"/><line style="stroke:#A80036;stroke-width:1.0;" x1="355.2211" x2="357.025" y1="492.0196" y2="484.22"/><polygon fill="#FFFFFF" points="431.53,196.01,425.9568,200.5859,428.0371,207.4904,433.6104,202.9145,431.53,196.01" style="stroke:#A80036;stroke-width:1.0;"/><!--MD5=[5b193b2f4f05a557f575c3c90fa7e879]
link attribute to attribute_interface--><path codeLine="91" d="M531.4176,647.1046 C531.4176,647.1046 520.42,773.32 516.33,820.35 " fill="none" id="attribute-attribute_interface" style="stroke:#A80036;stroke-width:1.0;"/><polygon fill="#A80036" points="515.19,833.39,519.9567,824.7715,515.6243,828.4089,511.9869,824.0766,515.19,833.39" style="stroke:#A80036;stroke-width:1.0;"/><line style="stroke:#A80036;stroke-width:1.0;" x1="515.6243" x2="516.32" y1="828.4089" y2="820.435"/><polygon fill="#FFFFFF" points="532.46,635.15,527.9539,640.7799,531.4176,647.1046,535.9237,641.4748,532.46,635.15" style="stroke:#A80036;stroke-width:1.0;"/><!--MD5=[dc5b1cd541c36cbb917203a5fbcb8638]
link compound_attribute to compound--><path codeLine="92" d="M558.0759,261.527 C558.0759,261.527 547.99,236.94 542.61,226 C539.66,219.99 536.47,213.92 533.13,207.86 " fill="none" id="compound_attribute-compound" style="stroke:#A80036;stroke-width:1.0;"/><polygon fill="#A80036" points="526.53,196.25,527.4983,206.0511,529,200.5973,534.4539,202.0991,526.53,196.25" style="stroke:#A80036;stroke-width:1.0;"/><line style="stroke:#A80036;stroke-width:1.0;" x1="529" x2="532.95" y1="200.5973" y2="207.55"/><polygon fill="#A80036" points="562.35,272.74,563.9506,265.7088,558.0759,261.527,556.4753,268.5582,562.35,272.74" style="stroke:#A80036;stroke-width:1.0;"/><!--MD5=[e4e3708f89fc1fe7e2146c34870fdd74]
link compound to compound_attribute--><path codeLine="95" d="M487.15,196.04 C492.69,212.07 499.17,228.29 506.61,243 C510.87,251.42 515.75,259.88 520.96,268.17 " fill="none" id="compound-to-compound_attribute" style="stroke:#A80036;stroke-width:1.0;stroke-dasharray:7.0,7.0;"/><polygon fill="#A80036" points="523.88,272.76,522.4164,263.0205,521.1928,268.5435,515.6699,267.3199,523.88,272.76" style="stroke:#A80036;stroke-width:1.0;"/><text fill="#000000" font-family="sans-serif" font-size="13" lengthAdjust="spacing" textLength="26" x="507.61" y="239.0669">root</text><!--MD5=[212b0e525f6757090ea96afecfbdaf2b]
link compound_attribute to attribute--><path codeLine="93" d="M567.6867,447.9796 C567.6867,447.9796 552.27,519.62 546.15,548.06 " fill="none" id="compound_attribute-attribute" style="stroke:#A80036;stroke-width:1.0;"/><polygon fill="#A80036" points="543.38,560.89,549.1794,552.9297,544.4291,556.0013,541.3575,551.251,543.38,560.89" style="stroke:#A80036;stroke-width:1.0;"/><line style="stroke:#A80036;stroke-width:1.0;" x1="544.4291" x2="546.12" y1="556.0013" y2="548.185"/><polygon fill="#A80036" points="570.22,436.25,565.0435,441.2704,567.6867,447.9796,572.8632,442.9592,570.22,436.25" style="stroke:#A80036;stroke-width:1.0;"/><!--MD5=[55eda884f554056db5816f84e803e8a4]
link compound_attribute to compound_attribute--><path codeLine="94" d="M688.36,334.33 C708.63,336.57 723.11,343.29 723.11,354.5 C723.11,364.75 711.01,371.24 693.45,373.99 " fill="none" id="compound_attribute-to-compound_attribute" style="stroke:#A80036;stroke-width:1.0;stroke-dasharray:7.0,7.0;"/><polygon fill="#A80036" points="688.36,374.67,697.8076,377.4526,693.3166,374.0129,696.7563,369.522,688.36,374.67" style="stroke:#A80036;stroke-width:1.0;"/><text fill="#000000" font-family="sans-serif" font-size="13" lengthAdjust="spacing" textLength="44" x="729.11" y="359.0669">nested</text><!--MD5=[a29c4c30b45d6c0030e08af376820c92]
@startuml
enum value_type {
    unknown
    bool_type
    byte_type
    int16_type
    int32_type
    int64_type
    float_type
    duration_type,
    string_type,
    composite
}

interface attribute_interface {
    +type_id() : identifier
}

note "- rapidyaml\n- rapidjson\n- filesystem\n- rapidxml\n- ...\n" as impl_note

interface compound_interface {
    +type_id() : identifier
    +add_ref(attribute_interface)
    +release(attribute_interface)
    +structure() : attribute_interface
    +attribute_name(...) : string
    +canonical_type(...) : value_type
    +is_link(...) : bool
    +nested_count(...)
    +nested(...) : attribute_interface
    +find(...) : attribute_interface
    +value_count(...)
    +fetch_values(...)
}

class concrete_attribute {
}

class concrete_compound {
}

package implementation {
}

class attribute {
    +type_id() : identifier
    +name() : string
}

class compound {
    +type_id() : identifier
    +structure() : attribute
    +root() : compound_attribute
    +attribute_name(...) : string
    +canonical_type(...) : value_type
    +is_link(...) : bool
    +nested_count(...)
    +nested(...) : attribute_interface
    +find(...) : attribute_interface
    +value_count(...)
    +fetch_values(...)
}

class compound_attribute {
    +type_id() : identifier
    +name(...) : string
    +canonical_type(...) : value_type
    +is_link(...) : bool
    +nested_count(...)
    +nested(...) : attribute_interface
    +find(...) : attribute_interface
    +value_count(...)
    +fetch_values(...)
}

compound_interface - -> attribute_interface : uses
compound_interface - -> value_type
attribute_interface <|- - concrete_attribute
compound_interface <|- - concrete_compound
concrete_compound ..> concrete_attribute : instantiates
implementation <- - concrete_attribute : uses
implementation <- - concrete_compound : uses
impl_note .. implementation
compound - -> attribute : uses
compound o- -> compound_interface
attribute o- -> attribute_interface
compound_attribute *- -> compound
compound_attribute *- -> attribute
compound_attribute ..> compound_attribute : nested
compound ..> compound_attribute : root
@enduml

PlantUML version 1.2021.3(Mon Mar 22 17:53:19 CET 2021)
(GPL source distribution)
Java Runtime: OpenJDK Runtime Environment
JVM: OpenJDK 64-Bit Server VM
Default Encoding: UTF-8
Language: en
Country: US
--></g></svg>
