<?xml version="1.0" encoding="UTF-8" standalone="no"?>
<svg
   xmlns:dc="http://purl.org/dc/elements/1.1/"
   xmlns:cc="http://creativecommons.org/ns#"
   xmlns:rdf="http://www.w3.org/1999/02/22-rdf-syntax-ns#"
   xmlns:svg="http://www.w3.org/2000/svg"
   xmlns="http://www.w3.org/2000/svg"
   width="64"
   height="64"
   viewBox="0 0 16.933333 16.933334"
   version="1.1"
   id="svg8">
  <defs
     id="defs2" />
  <metadata
     id="metadata5">
    <rdf:RDF>
      <cc:Work
         rdf:about="">
        <dc:format>image/svg+xml</dc:format>
        <dc:type
           rdf:resource="http://purl.org/dc/dcmitype/StillImage" />
        <dc:title></dc:title>
      </cc:Work>
    </rdf:RDF>
  </metadata>
  <g
     id="layer1">
    <path
       id="rect841"
       style="fill:#000000;fill-opacity:1;stroke:#ffffff;stroke-width:1;stroke-miterlimit:4;stroke-dasharray:none;stroke-opacity:1"
       d="M 2 5 L 2 8 L 5 8 L 5 5 L 2 5 z M 8 5 L 8 8 L 11 8 L 11 5 L 8 5 z M 14 5 L 14 8 L 18 8 L 18 5 L 14 5 z M 21 5 L 21 8 L 25 8 L 25 5 L 21 5 z M 28 5 L 28 8 L 30 8 L 30 16 L 29 16 L 29 17.904297 L 17 17.904297 C 14.784 17.904297 13 19.688297 13 21.904297 L 13 41.054688 C 13 43.270679 14.784 45.054687 17 45.054688 L 27.636719 45.054688 C 27.757522 45.084539 27.878622 45.113195 28 45.140625 L 28 48 L 30 48 L 30 56 L 12 56 L 12 60 L 52 60 L 52 56 L 34 56 L 34 48 L 36 48 L 36 45.164062 C 36.157368 45.129651 36.314282 45.093173 36.470703 45.054688 L 48 45.054688 C 50.216 45.054688 52 43.270679 52 41.054688 L 52 21.904297 C 52 19.688297 50.216 17.904297 48 17.904297 L 35 17.904297 L 35 16 L 34 16 L 34 8 L 36 8 L 36 5 L 34 5 L 30 5 L 28 5 z M 39 5 L 39 8 L 43 8 L 43 5 L 39 5 z M 46 5 L 46 8 L 50 8 L 50 5 L 46 5 z M 53 5 L 53 8 L 57 8 L 57 5 L 53 5 z M 60 5 L 60 8 L 63 8 L 63 5 L 60 5 z M 4 56 L 4 60 L 8 60 L 8 56 L 4 56 z M 56 56 L 56 60 L 60 60 L 60 56 L 56 56 z "
       transform="scale(0.26458333)" />
    <rect
       style="fill:#ababba;fill-opacity:1;stroke:#fefefe;stroke-width:0.264583;stroke-miterlimit:4;stroke-dasharray:none;stroke-opacity:1"
       id="rect840"
       width="8.6967049"
       height="5.5562501"
       x="4.2333331"
       y="5.5562501"
       rx="0.54840666"
       ry="0.54840666" />
    <path
       style="fill:none;stroke:none;stroke-width:0.264583px;stroke-linecap:butt;stroke-linejoin:miter;stroke-opacity:1"
       d="M 8.4666666,6.8791666 H 9.7895832 V 6.3499999 l 1.0583338,0.79375 -1.0583338,0.79375 V 7.4083332 H 8.4666666 Z"
       id="path857" />
    <path
       style="fill:#ffffff;fill-opacity:1;stroke:none;stroke-width:0.264583px;stroke-linecap:butt;stroke-linejoin:miter;stroke-opacity:1"
       d="m 7.4083334,6.8791666 v 1.5875 H 8.2020838 L 6.8791667,10.054167 5.55625,8.4666667 H 6.35 V 6.8791666 Z"
       id="path871" />
    <path
       style="fill:#ffffff;fill-opacity:1;stroke:none;stroke-width:0.264583px;stroke-linecap:butt;stroke-linejoin:miter;stroke-opacity:1"
       d="m 10.583333,9.5250003 v -1.5875 h 0.793751 L 10.054167,6.3499999 8.7312499,7.9375002 h 0.79375 v 1.5875001 z"
       id="path873" />
  </g>
</svg>
