<?xml version="1.0" encoding="UTF-8" standalone="no"?>
<svg
   xmlns:dc="http://purl.org/dc/elements/1.1/"
   xmlns:cc="http://creativecommons.org/ns#"
   xmlns:rdf="http://www.w3.org/1999/02/22-rdf-syntax-ns#"
   xmlns:svg="http://www.w3.org/2000/svg"
   xmlns="http://www.w3.org/2000/svg"
   width="64"
   height="64"
   viewBox="0 0 16.933333 16.933334"
   version="1.1"
   id="svg8">
  <defs
     id="defs2" />
  <metadata
     id="metadata5">
    <rdf:RDF>
      <cc:Work
         rdf:about="">
        <dc:format>image/svg+xml</dc:format>
        <dc:type
           rdf:resource="http://purl.org/dc/dcmitype/StillImage" />
        <dc:title></dc:title>
      </cc:Work>
    </rdf:RDF>
  </metadata>
  <g
     id="layer1">
    <path
       id="rect841"
       style="fill:#000000;fill-opacity:1;stroke:#ffffff;stroke-width:1.00000001;stroke-miterlimit:4;stroke-dasharray:none;stroke-opacity:1"
       d="M 32.050781 8.3554688 A 18.61581 18.61581 0 0 0 13.433594 26.970703 A 18.61581 18.61581 0 0 0 28 45.140625 L 28 48 L 30 48 L 30 56 L 12 56 L 12 60 L 52 60 L 52 56 L 34 56 L 34 48 L 36 48 L 36 45.164062 A 18.61581 18.61581 0 0 0 50.666016 26.970703 A 18.61581 18.61581 0 0 0 32.050781 8.3554688 z M 32.050781 11 A 15.971201 15.971201 0 0 1 48.021484 26.970703 A 15.971201 15.971201 0 0 1 32.050781 42.943359 A 15.971201 15.971201 0 0 1 16.078125 26.970703 A 15.971201 15.971201 0 0 1 32.050781 11 z M 4 56 L 4 60 L 8 60 L 8 56 L 4 56 z M 56 56 L 56 60 L 60 60 L 60 56 L 56 56 z "
       transform="scale(0.26458333)" />
    <circle
       style="fill:#b3e5ca;fill-opacity:1;stroke:none;stroke-width:0.264583"
       id="path956"
       cx="8.5108957"
       cy="7.1217899"
       r="4.2113733" />
    <path
       style="fill:none;stroke:none;stroke-width:0.264583px;stroke-linecap:butt;stroke-linejoin:miter;stroke-opacity:1"
       d="M 8.4666666,6.8791666 H 9.7895832 V 6.3499999 l 1.0583338,0.79375 -1.0583338,0.79375 V 7.4083332 H 8.4666666 Z"
       id="path857" />
    <path
       id="rect923"
       style="fill:#ffffff;fill-opacity:1;stroke:#000000;stroke-width:0.148829;stroke-miterlimit:4;stroke-dasharray:none;stroke-opacity:1"
       d="M 8.1337851,4.0469074 7.837372,4.02105 7.7833092,4.6361179 A 1.7859374,1.7859373 15 0 0 7.4645897,4.6620623 L 7.3055072,4.067524 7.017659,4.1444736 7.1768915,4.7384507 A 1.7859374,1.7859373 15 0 0 6.8858296,4.8723184 L 6.5341136,4.3700099 6.2903803,4.540634 6.6407129,5.0413683 A 1.7859374,1.7859373 15 0 0 6.4109941,5.2675082 L 5.9128571,4.918564 5.7416496,5.1621875 6.2378411,5.5094068 A 1.7859374,1.7859373 15 0 0 6.098668,5.801939 L 5.5163403,5.6459047 5.4393012,5.9334187 6.0193829,6.0888512 a 1.7859374,1.7859373 15 0 0 -0.031395,0.3238187 l -0.595422,0.052315 0.026458,0.2965878 0.592875,-0.051794 A 1.7859374,1.7859373 15 0 0 6.0935699,7.02718 L 5.5570041,7.2776312 5.6827713,7.5472627 6.2179126,7.2976336 A 1.7859374,1.7859373 15 0 0 6.4048701,7.5680124 L 5.9887657,7.9843555 6.1995748,8.19492 6.6146659,7.7801109 A 1.7859374,1.7859373 15 0 0 6.8846314,7.9698117 L 6.636946,8.5010998 6.9065755,8.6269146 7.1541102,8.0961887 a 1.7859374,1.7859373 15 0 0 0.1575236,0.050035 1.7859374,1.7859373 15 0 0 0.1614372,0.03543 L 7.422079,8.7650431 7.7184925,8.7908991 7.7696345,8.2069474 A 1.7859374,1.7859373 15 0 0 8.0982822,8.1776447 L 8.2503571,8.7444255 8.5382054,8.6674758 8.3858694,8.0994214 A 1.7859374,1.7859373 15 0 0 8.6831195,7.9581838 L 9.0217508,8.4419396 9.265484,8.2713154 8.9254683,7.785985 A 1.7859374,1.7859373 15 0 0 9.155459,7.5520933 L 9.6430073,7.8933854 9.814215,7.6497619 9.324721,7.3067449 A 1.7859374,1.7859373 15 0 0 9.4594389,7.0106114 L 10.03952,7.1660437 10.116559,6.8785297 9.5342345,6.7224962 A 1.7859374,1.7859373 15 0 0 9.5592624,6.3999809 L 10.163298,6.3469647 10.13684,6.0503768 9.5309685,6.1035028 A 1.7859374,1.7859373 15 0 0 9.4452466,5.7922389 L 9.9988602,5.5343182 9.8730932,5.2646867 9.3173432,5.5238405 A 1.7859374,1.7859373 15 0 0 9.1322106,5.2623769 L 9.5670986,4.8275938 9.3562896,4.6170294 8.9206895,5.0522236 A 1.7859374,1.7859373 15 0 0 8.6582042,4.8705453 L 8.918918,4.3108494 8.6492881,4.1850361 8.3880128,4.7445815 a 1.7859374,1.7859373 15 0 0 -0.151908,-0.04853 1.7859374,1.7859373 15 0 0 -0.156383,-0.034076 z M 7.9705299,5.6871901 A 0.76008667,0.76008668 15 0 1 8.507816,6.6177968 0.76008667,0.76008668 15 0 1 7.5770587,7.1556446 0.76008667,0.76008668 15 0 1 7.0399231,6.2244761 0.76008667,0.76008668 15 0 1 7.9705299,5.6871901 Z M 7.8164517,6.2622177 A 0.16477415,0.16477414 15 0 0 7.6149509,6.3785543 0.16477415,0.16477414 15 0 0 7.7311369,6.5806169 0.16477415,0.16477414 15 0 0 7.9327883,6.4637186 0.16477415,0.16477414 15 0 0 7.8164517,6.2622177 Z" />
    <path
       id="path954"
       style="fill:#ffffff;fill-opacity:1;stroke:#000000;stroke-width:0.148829;stroke-miterlimit:4;stroke-dasharray:none;stroke-opacity:1"
       d="M 10.002161,7.7426252 9.994811,8.2128879 A 0.59531245,0.59531246 15 0 0 9.8450042,8.2739221 L 9.5165598,7.9350463 9.3028436,8.1421833 9.6324314,8.4822397 a 0.59531245,0.59531246 15 0 0 -0.063923,0.1466852 l -0.4731716,-0.0074 -0.00466,0.2976177 0.4708439,0.00736 a 0.59531245,0.59531246 15 0 0 0.058686,0.1515085 L 9.283103,9.404742 9.4902405,9.618458 9.8249824,9.294019 a 0.59531245,0.59531246 15 0 0 0.1518675,0.0675 l -0.00726,0.464449 0.2976191,0.0047 0.0072,-0.460961 a 0.59531245,0.59531246 15 0 0 0.158527,-0.06148 L 10.752795,9.638236 10.966511,9.4311 10.647794,9.1022603 a 0.59531245,0.59531246 15 0 0 0.06816,-0.1576656 l 0.458059,0.00716 0.0046,-0.2976203 -0.4598,-0.00719 A 0.59531245,0.59531246 15 0 0 10.65446,8.4900766 L 10.986263,8.1684996 10.779124,7.954783 10.444971,8.2786495 a 0.59531245,0.59531246 15 0 0 -0.152494,-0.064016 l 0.0073,-0.4673555 z m 0.134853,0.895186 a 0.15201305,0.15201305 0 0 1 0.0064,8.82e-5 0.15201305,0.15201305 0 0 1 0.14935,0.1540884 A 0.15201305,0.15201305 0 0 1 10.138656,8.9419127 0.15201305,0.15201305 0 0 1 9.98874,8.7872339 0.15201305,0.15201305 0 0 1 10.137015,8.6377982 Z" />
  </g>
</svg>
