<?xml version="1.0" encoding="UTF-8" standalone="no"?>
<svg
   xmlns:dc="http://purl.org/dc/elements/1.1/"
   xmlns:cc="http://creativecommons.org/ns#"
   xmlns:rdf="http://www.w3.org/1999/02/22-rdf-syntax-ns#"
   xmlns:svg="http://www.w3.org/2000/svg"
   xmlns="http://www.w3.org/2000/svg"
   width="64"
   height="64"
   viewBox="0 0 16.933333 16.933334"
   version="1.1"
   id="svg8">
  <defs
     id="defs2" />
  <metadata
     id="metadata5">
    <rdf:RDF>
      <cc:Work
         rdf:about="">
        <dc:format>image/svg+xml</dc:format>
        <dc:type
           rdf:resource="http://purl.org/dc/dcmitype/StillImage" />
        <dc:title></dc:title>
      </cc:Work>
    </rdf:RDF>
  </metadata>
  <path
     id="rect841"
     style="fill:#000000;fill-opacity:1;stroke:#ffffff;stroke-width:0.999999;stroke-miterlimit:4;stroke-dasharray:none;stroke-opacity:1"
     d="M 13 8.2285156 C 11.338 8.2285156 10 9.5665151 10 11.228516 L 10 42 C 10 43.662 11.338 45 13 45 L 27.417969 45 A 18.61581 18.61581 0 0 0 28 45.140625 L 28 48 L 30 48 L 30 56 L 12 56 L 12 60 L 52 60 L 52 56 L 34 56 L 34 48 L 36 48 L 36 45.164062 A 18.61581 18.61581 0 0 0 36.689453 45 L 51 45 C 52.662 45 54 43.662 54 42 L 54 11.228516 C 54 9.5665151 52.662 8.2285156 51 8.2285156 L 13 8.2285156 z M 15 9.8691406 L 49 9.8691406 C 50.662 9.8691406 52 11.207141 52 12.869141 L 52 39.679688 C 52 41.341688 50.662 42.679687 49 42.679688 L 15 42.679688 C 13.338 42.679688 12 41.341688 12 39.679688 L 12 12.869141 C 12 11.207141 13.338 9.8691406 15 9.8691406 z M 4 56 L 4 60 L 8 60 L 8 56 L 4 56 z M 56 56 L 56 60 L 60 60 L 60 56 L 56 56 z "
     transform="scale(0.26458334)" />
  <rect
     style="fill:#9c9cc9;stroke:none;stroke-width:0.198438;fill-opacity:1"
     id="rect846"
     width="10.583333"
     height="8.6812067"
     x="3.1750002"
     y="2.6112931"
     rx="0.79375005"
     ry="0.79375005" />
  <rect
     style="fill:#ababba;stroke:#000000;stroke-width:0.13229167;stroke-miterlimit:4;stroke-dasharray:none"
     id="rect852"
     width="4.2664065"
     height="4.0679688"
     x="6.3996096"
     y="4.9113283"
     rx="0.29765627"
     ry="0.29765627" />
  <rect
     style="fill:#e3e3e8;fill-opacity:1;stroke:#000000;stroke-width:0.132292;stroke-miterlimit:4;stroke-dasharray:none"
     id="rect888"
     width="3.3609691"
     height="3.2046447"
     x="6.8408833"
     y="5.3320775"
     rx="0.29765627"
     ry="0.29765627" />
  <path
     id="rect5436"
     style="fill:#f1f1f3;fill-opacity:1;stroke:#000000;stroke-width:0.500001;stroke-miterlimit:4;stroke-dasharray:none"
     d="m 26.4375,16.6875 v 1.875 c 0.509275,0.634642 0.657695,0.283559 1.125,0 v -1.875 c -0.509275,-0.634642 -0.657695,-0.283559 -1.125,0 z m 1.875,0 v 1.875 c 0.509275,0.634642 0.657695,0.283559 1.125,0 v -1.875 c -0.509275,-0.634642 -0.657695,-0.283559 -1.125,0 z m 1.875,0 v 1.875 c 0.509274,0.634643 0.657694,0.28356 1.125,0 v -1.875 c -0.509275,-0.634642 -0.657695,-0.283559 -1.125,0 z m 3,0 v 1.875 c 0.509274,0.634643 0.657694,0.28356 1.125,0 v -1.875 c -0.509274,-0.634643 -0.657694,-0.28356 -1.125,0 z m 1.875,0 v 1.875 c 0.509275,0.634642 0.657695,0.283559 1.125,0 v -1.875 c -0.509275,-0.634642 -0.657695,-0.283559 -1.125,0 z m 1.875,0 v 1.875 c 0.509275,0.634642 0.657695,0.283559 1.125,0 v -1.875 c -0.509273,-0.634643 -0.657693,-0.28356 -1.125,0 z m -14.625,3.75 c -0.634642,0.509275 -0.283559,0.657695 0,1.125 h 1.875 c 0.634642,-0.509274 0.283559,-0.657695 0,-1.125 z m 18,0 c -0.634647,0.509274 -0.283553,0.657704 0,1.125 h 1.875 c 0.634647,-0.509274 0.283553,-0.657704 0,-1.125 z m -18,1.875 c -0.634642,0.509275 -0.283559,0.657695 0,1.125 h 1.875 c 0.634642,-0.509274 0.283559,-0.657695 0,-1.125 z m 18,0 c -0.634647,0.509274 -0.283553,0.657704 0,1.125 h 1.875 c 0.634647,-0.509274 0.283553,-0.657704 0,-1.125 z m -18,1.875 c -0.634642,0.509275 -0.283559,0.657695 0,1.125 h 1.875 c 0.634642,-0.509274 0.283559,-0.657695 0,-1.125 z m 18,0 c -0.634647,0.509274 -0.283553,0.657704 0,1.125 h 1.875 c 0.634647,-0.509274 0.283553,-0.657704 0,-1.125 z m -18,3 c -0.634643,0.509275 -0.283559,0.657695 0,1.125 h 1.875 c 0.634643,-0.509274 0.283559,-0.657695 0,-1.125 z m 18,0 c -0.634647,0.509273 -0.283554,0.657703 0,1.125 h 1.875 c 0.634647,-0.509273 0.283554,-0.657703 0,-1.125 z m -18,1.875 c -0.634642,0.509275 -0.283559,0.657695 0,1.125 h 1.875 c 0.634642,-0.509274 0.283559,-0.657695 0,-1.125 z m 18,0 c -0.634647,0.509274 -0.283553,0.657704 0,1.125 h 1.875 c 0.634647,-0.509274 0.283553,-0.657704 0,-1.125 z m -18,1.875 c -0.634642,0.509275 -0.283559,0.657695 0,1.125 h 1.875 c 0.634643,-0.509274 0.283559,-0.657695 0,-1.125 z m 18,0 c -0.634647,0.509273 -0.283554,0.657703 0,1.125 h 1.875 c 0.634647,-0.509274 0.283553,-0.657704 0,-1.125 z m -13.875,3 v 1.875 c 0.509275,0.634642 0.657695,0.283559 1.125,0 v -1.875 c -0.509275,-0.634643 -0.657698,-0.283557 -1.125,0 z m 1.875,0 v 1.875 c 0.509275,0.634642 0.657695,0.283559 1.125,0 v -1.875 c -0.509275,-0.634643 -0.657698,-0.283557 -1.125,0 z m 1.875,0 v 1.875 c 0.509274,0.634643 0.657694,0.28356 1.125,0 v -1.875 c -0.509275,-0.634643 -0.657698,-0.283557 -1.125,0 z m 3,0 v 1.875 c 0.509274,0.634643 0.657694,0.28356 1.125,0 v -1.875 c -0.509274,-0.634644 -0.657697,-0.283558 -1.125,0 z m 1.875,0 v 1.875 c 0.509275,0.634642 0.657695,0.283559 1.125,0 v -1.875 c -0.509275,-0.634643 -0.657698,-0.283557 -1.125,0 z m 1.875,0 v 1.875 c 0.509275,0.634642 0.657695,0.283559 1.125,0 v -1.875 c -0.509273,-0.634644 -0.657696,-0.283558 -1.125,0 z"
     transform="scale(0.26458334)" />
</svg>
