<?xml version="1.0" encoding="UTF-8" standalone="no"?>
<svg
   xmlns:dc="http://purl.org/dc/elements/1.1/"
   xmlns:cc="http://creativecommons.org/ns#"
   xmlns:rdf="http://www.w3.org/1999/02/22-rdf-syntax-ns#"
   xmlns:svg="http://www.w3.org/2000/svg"
   xmlns="http://www.w3.org/2000/svg"
   width="64"
   height="64"
   viewBox="0 0 16.933333 16.933334"
   version="1.1"
   id="svg8">
  <defs
     id="defs2" />
  <metadata
     id="metadata5">
    <rdf:RDF>
      <cc:Work
         rdf:about="">
        <dc:format>image/svg+xml</dc:format>
        <dc:type
           rdf:resource="http://purl.org/dc/dcmitype/StillImage" />
        <dc:title></dc:title>
      </cc:Work>
    </rdf:RDF>
  </metadata>
  <g
     id="layer1">
    <path
       id="rect923"
       style="fill:#ffffff;fill-opacity:1;stroke:#000000;stroke-width:0.198438;stroke-miterlimit:4;stroke-dasharray:none;stroke-opacity:1"
       d="M 8.1435252,4.7036422 7.7528514,4.7726302 7.8954789,5.5834334 A 2.3812499,2.3812497 0 0 0 7.4939529,5.7268349 L 7.0838999,5.0160263 6.7397346,5.2144639 7.1497871,5.9244979 A 2.3812499,2.3812497 0 0 0 6.8211249,6.1973494 L 6.1948067,5.6718001 5.9397834,5.9756575 6.5637765,6.4996567 A 2.3812499,2.3812497 0 0 0 6.3459605,6.8701768 L 5.5839914,6.5926742 5.4475656,6.9655196 6.2064339,7.2414719 A 2.3812499,2.3812497 0 0 0 6.1281439,7.666252 H 5.3243172 v 0.3968751 h 0.8007264 a 2.3812499,2.3812497 0 0 0 0.071313,0.4278808 L 5.447565,8.7638594 5.58399,9.1367048 6.3296808,8.8654034 A 2.3812499,2.3812497 0 0 0 6.5443979,9.2460007 L 5.9397834,9.7537216 6.1948067,10.057579 6.7978709,9.5514083 A 2.3812499,2.3812497 0 0 0 7.1319591,9.835112 l -0.3922245,0.679803 0.3441653,0.198438 0.391449,-0.677478 a 2.3812499,2.3812497 0 0 0 0.4131531,0.151153 l -0.135651,0.769721 0.3906738,0.06899 0.135651,-0.768945 a 2.3812499,2.3812497 0 0 0 0.2201415,0.01008 2.3812499,2.3812497 0 0 0 0.2201418,-0.01008 l 0.1356502,0.768945 0.3906738,-0.06899 -0.1356507,-0.769721 A 2.3812499,2.3812497 0 0 0 9.5232857,10.035875 L 9.9147347,10.713353 10.2589,10.514915 9.8666754,9.8358871 A 2.3812499,2.3812497 0 0 0 10.200764,9.5514083 l 0.603064,0.5061707 0.255023,-0.3038574 -0.60539,-0.5077209 a 2.3812499,2.3812497 0 0 0 0.215491,-0.3805973 l 0.745691,0.2713014 0.136426,-0.3728454 -0.748792,-0.2728515 a 2.3812499,2.3812497 0 0 0 0.07131,-0.4278808 h 0.800726 V 7.666252 H 10.87049 A 2.3812499,2.3812497 0 0 0 10.791426,7.2422471 L 11.551069,6.9655196 11.414643,6.5926742 10.652674,6.8701768 A 2.3812499,2.3812497 0 0 0 10.434858,6.4988815 L 11.058851,5.9756575 10.803828,5.6718001 10.177509,6.1973494 A 2.3812499,2.3812497 0 0 0 9.8488475,5.9244979 L 10.2589,5.2144639 9.9147347,5.0160263 9.503907,5.7268355 A 2.3812499,2.3812497 0 0 0 9.1031562,5.5834334 L 9.2457831,4.7726302 8.8551093,4.7036422 8.7117072,5.5144454 a 2.3812499,2.3812497 0 0 0 -0.2123899,-0.01008 2.3812499,2.3812497 0 0 0 -0.2131652,0.01008 z M 8.4993173,6.8725021 A 1.0134489,1.0134489 0 0 1 9.5124336,7.8856183 1.0134489,1.0134489 0 0 1 8.4993173,8.8995101 1.0134489,1.0134489 0 0 1 7.4862009,7.8856183 1.0134489,1.0134489 0 0 1 8.4993173,6.8725021 Z m 0,0.7937499 A 0.21969887,0.21969886 0 0 0 8.279951,7.8856183 0.21969887,0.21969886 0 0 0 8.4993173,8.1057601 0.21969887,0.21969886 0 0 0 8.7186836,7.8856183 0.21969887,0.21969886 0 0 0 8.4993173,7.666252 Z" />
    <path
       id="path954"
       style="fill:#ffffff;fill-opacity:1;stroke:#000000;stroke-width:0.198438;stroke-miterlimit:4;stroke-dasharray:none;stroke-opacity:1"
       d="m 11.825171,8.8185995 0.152816,0.6081887 a 0.79374994,0.79374994 0 0 0 -0.171872,0.1303021 l -0.539947,-0.3230944 -0.203764,0.3405238 0.541827,0.3242208 a 0.79374994,0.79374994 0 0 0 -0.03171,0.2109755 l -0.611947,0.153761 0.09671,0.384909 0.60894,-0.153004 a 0.79374994,0.79374994 0 0 0 0.12786,0.174876 l -0.321405,0.537125 0.340524,0.203763 0.319154,-0.533361 a 0.79374994,0.79374994 0 0 0 0.218882,0.03452 l 0.150927,0.60067 0.384911,-0.09671 -0.14979,-0.59616 a 0.79374994,0.79374994 0 0 0 0.182952,-0.133884 l 0.525831,0.314642 0.203764,-0.340523 -0.523956,-0.313526 a 0.79374994,0.79374994 0 0 0 0.03337,-0.226579 L 13.751658,9.9713861 13.654938,9.5864765 13.06028,9.735893 A 0.79374994,0.79374994 0 0 0 12.923207,9.5561398 l 0.316356,-0.528662 -0.340526,-0.2037637 -0.318592,0.5324214 a 0.79374994,0.79374994 0 0 0 -0.21849,-0.029822 L 12.210082,8.7218851 Z m 0.482599,1.1063744 a 0.20268407,0.20268406 0 0 1 0.0083,-0.00209 0.20268407,0.20268406 0 0 1 0.245522,0.1469111 0.20268407,0.20268406 0 0 1 -0.14673,0.246268 0.20268407,0.20268406 0 0 1 -0.246456,-0.147476 0.20268407,0.20268406 0 0 1 0.139395,-0.2436271 z" />
    <path
       id="path837"
       style="fill:#ffffff;fill-opacity:1;stroke:#000000;stroke-width:0.198438;stroke-miterlimit:4;stroke-dasharray:none;stroke-opacity:1"
       d="m 3.9491406,4.1853063 0.152816,0.6081887 a 0.79374994,0.79374994 0 0 0 -0.171872,0.1303021 l -0.539947,-0.3230944 -0.203764,0.3405238 0.541827,0.3242208 a 0.79374994,0.79374994 0 0 0 -0.03171,0.2109755 l -0.611947,0.153761 0.09671,0.384909 0.60894,-0.153004 a 0.79374994,0.79374994 0 0 0 0.12786,0.174876 l -0.321405,0.537125 0.340524,0.203763 0.319154,-0.533361 a 0.79374994,0.79374994 0 0 0 0.218882,0.03452 l 0.150927,0.60067 0.384911,-0.09671 -0.14979,-0.59616 a 0.79374994,0.79374994 0 0 0 0.182952,-0.133884 l 0.525831,0.314642 0.203764,-0.340523 -0.523956,-0.313526 a 0.79374994,0.79374994 0 0 0 0.03337,-0.226579 l 0.59241,-0.1488489 -0.09672,-0.3849096 -0.594658,0.1494165 A 0.79374994,0.79374994 0 0 0 5.0471766,4.9228466 l 0.316356,-0.528662 -0.340526,-0.2037637 -0.318592,0.5324214 a 0.79374994,0.79374994 0 0 0 -0.21849,-0.029822 L 4.3340516,4.0885919 Z m 0.482599,1.1063744 a 0.20268407,0.20268406 0 0 1 0.0083,-0.00209 0.20268407,0.20268406 0 0 1 0.245522,0.1469111 0.20268407,0.20268406 0 0 1 -0.14673,0.246268 0.20268407,0.20268406 0 0 1 -0.246456,-0.147476 0.20268407,0.20268406 0 0 1 0.139395,-0.2436271 z" />
  </g>
</svg>
