<?xml version="1.0" encoding="UTF-8" standalone="no"?>
<svg
   xmlns:dc="http://purl.org/dc/elements/1.1/"
   xmlns:cc="http://creativecommons.org/ns#"
   xmlns:rdf="http://www.w3.org/1999/02/22-rdf-syntax-ns#"
   xmlns:svg="http://www.w3.org/2000/svg"
   xmlns="http://www.w3.org/2000/svg"
   width="64"
   height="64"
   viewBox="0 0 16.933333 16.933334"
   version="1.1"
   id="svg8">
  <defs
     id="defs2" />
  <metadata
     id="metadata5">
    <rdf:RDF>
      <cc:Work
         rdf:about="">
        <dc:format>image/svg+xml</dc:format>
        <dc:type
           rdf:resource="http://purl.org/dc/dcmitype/StillImage" />
        <dc:title></dc:title>
      </cc:Work>
    </rdf:RDF>
  </metadata>
  <g
     id="layer1">
    <path
       style="fill:#e4e6b2;stroke:#000000;stroke-width:0.264583px;stroke-linecap:butt;stroke-linejoin:miter;stroke-opacity:1;fill-opacity:1"
       d="M 4.5377076,7.46156 8.4666666,3.5326007 12.395625,7.46156 8.4666666,11.390519 Z"
       id="path1501" />
    <path
       id="rect841"
       style="fill:#000000;fill-opacity:1;stroke:#ffffff;stroke-width:0.999999;stroke-miterlimit:4;stroke-dasharray:none;stroke-opacity:1"
       d="M 32 8.4023438 L 12.201172 28.201172 L 28 44 L 28 48 L 30 48 L 30 56 L 12 56 L 12 60 L 52 60 L 52 56 L 34 56 L 34 48 L 36 48 L 36 44 L 51.798828 28.201172 L 32 8.4023438 z M 32 13.351562 L 46.849609 28.201172 L 32 43.050781 L 17.150391 28.201172 L 32 13.351562 z M 4 56 L 4 60 L 8 60 L 8 56 L 4 56 z M 56 56 L 56 60 L 60 60 L 60 56 L 56 56 z "
       transform="scale(0.26458333)" />
    <g
       aria-label="?"
       id="g1496"
       style="font-style:normal;font-weight:normal;font-size:7.05556px;line-height:1.25;font-family:sans-serif;fill:#ffffff;fill-opacity:1;stroke:none;stroke-width:0.264583">
      <path
         id="path1494"
         style="font-size:7.05556px;fill:#ffffff;fill-opacity:1;stroke-width:0.264583"
         d="M 8.5820312,4.8457031 C 8.0305092,4.8382155 7.498142,5.0660612 6.9882812,5.3535156 V 6.6875 C 7.1849026,6.5567147 7.3686207,6.4342919 7.6015625,6.2929688 7.9630838,6.0736378 8.4153118,5.9039897 8.8789062,6.1035156 A 0.24046404,0.24046404 0 0 1 9.0078125,6.4082031 C 8.8588205,6.804904 8.5450224,7.0656646 8.3007812,7.3203125 8.0565401,7.5749604 7.8849944,7.7978318 7.8769531,8.1015625 a 0.24046404,0.24046404 0 0 1 0,0.011719 C 7.8175102,8.9530467 7.8347778,9.7907973 7.8339844,10.658203 H 9.109375 C 9.120446,9.8543058 9.0599172,9.0426585 9.1191406,8.2265625 a 0.24046404,0.24046404 0 0 1 0.074219,-0.15625 C 9.5187639,7.762375 9.8724778,7.4186129 10.091797,7.0566406 10.311116,6.6946684 10.403168,6.3396378 10.25,5.9179688 a 0.24046404,0.24046404 0 0 1 -0.0059,-0.021484 C 10.063957,5.2155263 9.3008299,4.8107521 8.5976562,4.8457031 a 0.24046404,0.24046404 0 0 1 -0.015625,0 z" />
    </g>
    <g
       aria-label="?"
       id="text1488"
       style="font-style:normal;font-weight:normal;font-size:7.05556px;line-height:1.25;font-family:sans-serif;fill:#000000;fill-opacity:1;stroke:none;stroke-width:0.264583">
      <path
         d="M 8.1188447,9.4934688 H 8.8181995 V 10.368524 H 8.1188447 Z M 8.7975289,8.9870394 H 8.1395153 v -0.530545 q 0,-0.3479549 0.096463,-0.5718863 0.096463,-0.2239313 0.4065215,-0.5202097 L 8.9525583,7.0577847 q 0.1963706,-0.1825902 0.282498,-0.3445098 0.089573,-0.1619196 0.089573,-0.3307294 0,-0.3066137 -0.2273765,-0.496094 -0.2239313,-0.1894804 -0.5960019,-0.1894804 -0.2721627,0 -0.5822215,0.1205784 -0.3066137,0.1205784 -0.6407882,0.3514 V 5.5212711 Q 7.60208,5.3249005 7.9328094,5.2284378 8.2669839,5.1319751 8.621829,5.1319751 q 0.6338979,0 1.0163038,0.3341745 0.3858512,0.3341744 0.3858512,0.881945 0,0.2618274 -0.1240238,0.4995391 Q 9.7759367,7.0819004 9.4658779,7.3781788 L 9.1627093,7.6744572 q -0.1619196,0.1619196 -0.2308215,0.2549372 -0.065457,0.089573 -0.093018,0.1757 -0.020671,0.072347 -0.031006,0.1757 -0.010335,0.1033529 -0.010335,0.282498 z"
         style="font-size:7.05556px;stroke-width:0.264583"
         id="path1491" />
    </g>
  </g>
</svg>
